<?xml version="1.0" encoding="UTF-8" standalone="no"?>
<svg
   xmlns:dc="http://purl.org/dc/elements/1.1/"
   xmlns:cc="http://creativecommons.org/ns#"
   xmlns:rdf="http://www.w3.org/1999/02/22-rdf-syntax-ns#"
   xmlns:svg="http://www.w3.org/2000/svg"
   xmlns="http://www.w3.org/2000/svg"
   xmlns:sodipodi="http://sodipodi.sourceforge.net/DTD/sodipodi-0.dtd"
   xmlns:inkscape="http://www.inkscape.org/namespaces/inkscape"
   width="50"
   height="50"
   viewBox="0 0 50 50"
   version="1.1"
   id="svg4"
   sodipodi:docname="share-icon-facebook.svg"
   inkscape:version="0.92.4 (5da689c313, 2019-01-14)">
  <metadata
     id="metadata10">
    <rdf:RDF>
      <cc:Work
         rdf:about="">
        <dc:format>image/svg+xml</dc:format>
        <dc:type
           rdf:resource="http://purl.org/dc/dcmitype/StillImage" />
        <dc:title></dc:title>
      </cc:Work>
    </rdf:RDF>
  </metadata>
  <defs
     id="defs8" />
  <sodipodi:namedview
     pagecolor="#ffffff"
     bordercolor="#666666"
     borderopacity="1"
     objecttolerance="10"
     gridtolerance="10"
     guidetolerance="10"
     inkscape:pageopacity="0"
     inkscape:pageshadow="2"
     inkscape:window-width="640"
     inkscape:window-height="480"
     id="namedview6"
     showgrid="false"
     inkscape:zoom="0.26618304"
     inkscape:cx="896"
     inkscape:cy="896"
     inkscape:current-layer="svg4" />
  <path
     d="M 40.625,0 Q 44.4987,0 47.24935,2.75065 50,5.5013 50,9.375 v 31.25 q 0,3.873698 -2.75065,6.624349 Q 44.4987,50 40.625,50 H 34.50521 V 30.63151 h 6.47786 l 0.97657,-7.55208 h -7.45443 v -4.81771 q 0,-1.82292 0.76497,-2.73438 0.76498,-0.91145 2.97852,-0.91145 l 3.97135,-0.0326 V 7.84501 q -2.05078,-0.29297 -5.79427,-0.29297 -4.42708,0 -7.08008,2.60417 -2.65299,2.60417 -2.65299,7.35677 v 5.56641 h -6.51042 v 7.55208 h 6.51042 V 50 H 9.375 Q 5.5013,50 2.75065,47.249349 0,44.498698 0,40.625 V 9.375 Q 0,5.5013 2.75065,2.75065 5.5013,0 9.375,0 Z"
     id="path2"
     inkscape:connector-curvature="0"
     style="stroke-width:0.03255208" />
</svg>
