<?xml version="1.0" encoding="UTF-8" standalone="no"?>
<!-- Created with Inkscape (http://www.inkscape.org/) -->

<svg
   xmlns:dc="http://purl.org/dc/elements/1.1/"
   xmlns:cc="http://creativecommons.org/ns#"
   xmlns:rdf="http://www.w3.org/1999/02/22-rdf-syntax-ns#"
   xmlns:svg="http://www.w3.org/2000/svg"
   xmlns="http://www.w3.org/2000/svg"
   xmlns:sodipodi="http://sodipodi.sourceforge.net/DTD/sodipodi-0.dtd"
   xmlns:inkscape="http://www.inkscape.org/namespaces/inkscape"
   width="970"
   height="200"
   viewBox="0 0 256.64583 52.916666"
   version="1.1"
   id="svg8"
   inkscape:version="0.92.4 (5da689c313, 2019-01-14)"
   sodipodi:docname="bismillah.svg">
  <defs
     id="defs2" />
  <sodipodi:namedview
     id="base"
     pagecolor="#ffffff"
     bordercolor="#666666"
     borderopacity="1.0"
     inkscape:pageopacity="0.0"
     inkscape:pageshadow="2"
     inkscape:zoom="0.51030928"
     inkscape:cx="485"
     inkscape:cy="100"
     inkscape:document-units="mm"
     inkscape:current-layer="layer1"
     showgrid="false"
     units="px"
     inkscape:showpageshadow="false" />
  <metadata
     id="metadata5">
    <rdf:RDF>
      <cc:Work
         rdf:about="">
        <dc:format>image/svg+xml</dc:format>
        <dc:type
           rdf:resource="http://purl.org/dc/dcmitype/StillImage" />
        <dc:title></dc:title>
        <dc:creator>
          <cc:Agent>
            <dc:title>Rizqi Nur Assyaufi</dc:title>
          </cc:Agent>
        </dc:creator>
        <cc:license
           rdf:resource="http://creativecommons.org/licenses/by-nc-sa/4.0/" />
      </cc:Work>
      <cc:License
         rdf:about="http://creativecommons.org/licenses/by-nc-sa/4.0/">
        <cc:permits
           rdf:resource="http://creativecommons.org/ns#Reproduction" />
        <cc:permits
           rdf:resource="http://creativecommons.org/ns#Distribution" />
        <cc:requires
           rdf:resource="http://creativecommons.org/ns#Notice" />
        <cc:requires
           rdf:resource="http://creativecommons.org/ns#Attribution" />
        <cc:prohibits
           rdf:resource="http://creativecommons.org/ns#CommercialUse" />
        <cc:permits
           rdf:resource="http://creativecommons.org/ns#DerivativeWorks" />
        <cc:requires
           rdf:resource="http://creativecommons.org/ns#ShareAlike" />
      </cc:License>
    </rdf:RDF>
  </metadata>
  <g
     inkscape:label="Layer 1"
     inkscape:groupmode="layer"
     id="layer1"
     transform="translate(0,-244.08334)">
    <path
       style="fill:#f47114;stroke-width:0.44383794"
       d="m 1.3054285,293.20686 c 0.4849541,-5.04365 2.3037237,-17.15403 3.0771286,-20.48884 0.9810533,-4.23023 2.5992986,-7.17987 4.8192355,-8.78415 1.0322014,-0.74599 2.2555424,-2.09228 2.7185364,-2.99179 2.107471,-4.0944 5.568008,-7.18342 8.047337,-7.18342 0.787954,0 2.149658,0.29987 3.026019,0.66577 2.130187,0.89001 4.113245,0.82491 6.39315,-0.21021 2.097636,-0.95214 2.25973,-1.31176 1.074646,-2.38426 -0.915618,-0.82864 -3.414453,-0.96204 -5.21281,-0.27835 -1.560072,0.59317 -1.876081,0.22803 -0.816355,-0.9428 2.190671,-2.42069 5.713958,-2.88065 8.172341,-1.0669 0.994818,0.73397 2.086256,1.10962 3.223966,1.10962 1.520107,0 1.703511,0.11376 1.578164,0.97829 -0.108575,0.74876 -0.766779,1.20298 -2.804862,1.93568 -1.464663,0.52659 -3.861704,1.5888 -5.326745,2.36048 -3.555692,1.87299 -5.48393,2.14329 -8.34918,1.1705 -2.119238,-0.71948 -2.434536,-0.72624 -3.966627,-0.0855 -2.013546,0.84246 -2.115564,1.5183 -0.323493,2.14301 1.580909,0.5511 2.209819,1.5551 2.209819,3.52773 0,2.13394 -1.013198,3.01826 -3.132292,2.73404 -4.080695,-0.54733 -8.7263928,2.27552 -9.6670077,5.87396 -0.2552419,0.97649 -1.0860753,6.06951 -1.8462961,11.31788 -1.4876157,10.27007 -2.0791957,13.17561 -2.7695017,13.6022 -0.2862756,0.17665 -0.3300479,-0.87259 -0.1251841,-3.00344 z M 137.16758,289.48761 c 0.39562,-10.59992 0.51976,-11.67037 1.63638,-14.10935 1.17923,-2.5758 3.56538,-4.75619 6.10903,-5.58223 0.93827,-0.30457 1.88667,-1.04483 2.35525,-1.83805 0.93844,-1.58867 1.93745,-1.67196 7.45377,-0.62123 2.04089,0.38896 5.04709,0.63254 6.68045,0.54175 2.55595,-0.14206 2.99852,-0.055 3.17628,0.62475 0.25429,0.97241 1.66588,1.01892 3.41852,0.11274 1.10831,-0.57312 1.30948,-0.58045 1.30948,-0.0472 0,0.98904 1.31289,1.24276 2.74183,0.52993 0.99579,-0.49696 1.58819,-0.53974 2.49947,-0.18132 2.07359,0.81562 21.67789,-0.33866 35.59176,-2.09606 17.00314,-2.14724 31.77635,-6.45274 38.90289,-11.33779 2.02274,-1.38654 3.70556,-4.30696 3.70556,-6.43078 0,-0.84137 0.49234,-1.87556 1.35962,-2.85572 l 1.35958,-1.5367 -0.2641,1.99727 c -0.63682,4.81582 -5.00164,10.39518 -10.55874,13.49678 -8.09534,4.51829 -22.30406,8.18047 -39.60892,10.20895 -12.75326,1.49494 -21.21125,1.78134 -33.73167,1.1423 -0.4882,-0.0262 -1.53862,0.0892 -2.33421,0.25374 -0.7956,0.16465 -1.69438,0.1011 -1.99728,-0.14104 -0.31259,-0.24952 -0.93455,-0.28517 -1.4384,-0.0823 -1.47192,0.59326 -2.3639,0.46605 -3.2272,-0.46078 -0.6981,-0.74932 -1.04864,-0.8148 -2.34743,-0.43878 -0.83972,0.24324 -2.6727,0.31453 -4.07325,0.15834 -2.45894,-0.27416 -2.60594,-0.23014 -4.27573,1.27836 -1.65521,1.49538 -1.80584,1.54182 -3.51844,1.08472 -2.06647,-0.5516 -4.5915,0.021 -6.40881,1.44868 -2.00621,1.5781 -2.5575,3.46464 -2.5575,8.75184 0,2.89156 -0.27092,5.87298 -0.67441,7.42211 -1.20082,4.6103 -1.49312,4.31588 -1.28376,-1.29314 z m -94.13273,0.87643 c -1.220552,-0.33864 -2.338426,-0.62414 -2.484155,-0.63493 -0.145737,-0.0102 -0.66542,-0.36905 -1.154863,-0.79631 -2.833544,-2.47315 -3.366118,-7.86689 -1.328429,-13.45391 1.078618,-2.95734 3.646699,-6.98885 4.138601,-6.49692 0.09817,0.0982 -0.417958,1.4566 -1.14691,3.01872 -2.630856,5.63781 -2.184454,10.54973 1.165692,12.82661 1.321529,0.89819 2.296088,1.1398 5.114446,1.26797 3.05253,0.13901 3.777875,0.0163 5.883052,-1.01641 4.306561,-2.10699 6.901898,-6.18022 7.795908,-12.23519 0.744467,-5.04212 1.196602,-6.17414 2.578651,-6.456 3.338279,-0.68086 4.564398,-1.25477 6.819353,-3.19188 1.353332,-1.16259 2.936334,-2.86882 3.517795,-3.79155 1.40207,-2.22509 3.755767,-4.06579 7.34889,-5.74723 2.765298,-1.294 2.882113,-1.40697 1.879153,-1.81724 -0.588194,-0.24061 -2.697343,-0.45661 -4.686998,-0.47966 -3.364966,-0.0419 -3.587155,-0.0991 -3.182101,-0.85666 1.192112,-2.22924 6.571074,-2.63118 10.572276,-0.79007 1.0985,0.50535 2.446656,0.92347 2.995906,0.92883 0.566136,0.006 0.998636,0.28516 0.998636,0.64524 0,0.96867 -2.361811,2.44148 -5.029173,3.13625 -3.458489,0.90081 -7.398292,2.73792 -7.398292,3.44976 0,0.33708 0.501154,1.08368 1.113724,1.65909 1.257341,1.18125 1.154249,2.23191 -0.383727,3.91095 -0.843527,0.92084 -1.20208,0.99978 -3.388737,0.74606 -2.118155,-0.24585 -2.635164,-0.14632 -3.863559,0.74554 -0.779994,0.56609 -2.330224,1.68956 -3.444948,2.49664 -1.114727,0.80704 -2.623616,1.67541 -3.353087,1.9297 -1.091735,0.38061 -1.327466,0.70981 -1.332872,1.86145 -0.01,2.0704 -1.1423,6.5087 -2.368444,9.28124 -3.008663,6.80308 -11.343317,11.53268 -17.375784,9.86005 z m -24.691348,-7.69982 c 4.324736,-2.28597 7.186691,-4.65835 8.366737,-6.93557 1.580774,-3.05052 3.419018,-4.80478 6.551419,-6.25204 3.514972,-1.624 5.313672,-2.90175 6.086335,-4.32355 0.293719,-0.54051 0.6552,-3.9918 0.822588,-7.85392 0.250996,-5.792 0.448206,-7.17093 1.237433,-8.65484 l 0.93883,-1.76514 -0.247797,6.8795 c -0.421838,11.70993 -1.994357,14.93551 -8.884673,18.22411 -3.503238,1.67202 -3.873165,1.98352 -5.658903,4.7647 -2.113548,3.29173 -4.959904,6.08581 -7.094395,6.96414 -0.766402,0.31556 -2.49196,0.70322 -3.834563,0.8619 l -2.441111,0.28885 z m 57.577744,-0.41989 c 4.137829,-2.19695 6.545613,-4.14579 8.242485,-6.67139 2.255826,-3.35755 3.971322,-4.94268 7.027536,-6.49343 4.575937,-2.32192 4.500865,-2.15679 4.892689,-10.75899 0.325118,-7.13766 0.752993,-9.51581 2.056206,-11.42904 0.537802,-0.78955 0.596351,-0.66518 0.596351,1.26651 0,1.17806 -0.223683,5.06723 -0.497115,8.64262 -0.4036,5.27741 -0.692527,6.88793 -1.53554,8.5588 -1.236559,2.45089 -4.763487,5.67503 -8.268437,7.55855 -2.005458,1.07768 -2.921918,1.95721 -4.394336,4.21717 -2.459879,3.77556 -4.81065,5.74333 -7.567582,6.33456 -3.703567,0.79427 -3.829567,0.51477 -0.552257,-1.22536 z M 8.9702936,277.22812 c -0.9154159,-0.47023 -1.6643924,-0.98892 -1.6643924,-1.1528 0,-0.16403 0.5270278,-0.84808 1.1711765,-1.52044 l 1.1711766,-1.22249 1.7137667,0.87435 c 1.874897,0.95649 2.12907,1.69353 0.937056,2.71723 -1.344137,1.15435 -1.623781,1.17987 -3.3287834,0.30403 z m 7.2523114,0.021 c -0.588301,-0.48962 -1.387209,-1.08184 -1.775349,-1.31553 -0.610904,-0.36802 -0.538415,-0.57414 0.539595,-1.53574 1.513712,-1.3503 2.226455,-1.38553 3.901278,-0.19294 1.59672,1.13696 1.605626,1.50914 0.06853,2.86202 -1.471211,1.29488 -1.403098,1.29036 -2.734037,0.18234 z m 33.802694,-2.48606 c -1.283302,-0.8952 -1.267115,-1.95676 0.04876,-3.19292 0.916648,-0.86113 1.194861,-0.91664 2.229836,-0.44505 1.530152,0.69721 1.966796,2.35814 0.92312,3.51138 -0.937035,1.03545 -1.847214,1.07141 -3.201634,0.12679 z m 193.480041,-4.07569 -1.45355,-1.18631 1.28342,-1.2296 c 1.06311,-1.01856 1.47007,-1.15869 2.37057,-0.81631 1.33482,0.50746 2.3314,1.64521 1.96312,2.24107 -0.1504,0.24325 -0.82174,0.83295 -1.49177,1.31008 l -1.21823,0.86743 z m -134.56057,-1.1725 c 2.2053,-1.15206 4.36916,-2.66789 5.20851,-3.6487 1.26024,-1.47263 1.43667,-1.55966 1.44245,-0.71143 0.009,1.26535 2.00449,2.80621 3.63486,2.80621 2.04069,0 4.68974,-1.61537 6.01971,-3.6708 l 1.21467,-1.87716 0.22761,1.76661 c 0.18526,1.43771 0.45802,1.84728 1.46484,2.19978 1.69323,0.59277 4.91291,-0.50954 5.10355,-1.74722 0.2002,-1.29991 1.50767,-4.21644 1.89017,-4.21644 1.41764,0 0.35123,3.32625 -2.11096,6.58437 -2.44491,3.23528 -6.26967,4.18027 -8.37951,2.07046 -0.61027,-0.6103 -1.20211,-1.1096 -1.31517,-1.1096 -0.11308,0 -1.01024,0.58287 -1.99372,1.29526 -2.82683,2.04776 -5.55035,2.18751 -8.0178,0.41152 -0.57556,-0.41413 -1.01633,-0.28467 -2.26109,0.66472 -1.19705,0.91302 -2.03775,1.17639 -3.72345,1.16632 l -2.17729,-0.0102 3.77261,-1.97086 z m -59.918109,-2.35836 c 0,-0.25791 0.231705,-1.03153 0.514941,-1.71874 0.283236,-0.6872 0.65578,-3.94581 0.827897,-7.24128 0.301951,-5.78113 1.222274,-9.7644 2.256047,-9.7644 0.894185,0 -0.234167,12.59264 -1.409942,15.7352 -0.833786,2.22845 -2.188953,4.07909 -2.188953,2.98922 z m 56.987059,-1.85861 c 0.18139,-0.61029 0.53942,-4.10551 0.79566,-7.76717 0.34698,-4.95815 0.68129,-7.0824 1.30968,-8.32197 0.46409,-0.91537 0.96747,-1.66439 1.11868,-1.66439 0.15123,0 0.13053,3.04587 -0.0461,6.76856 -0.25105,5.29578 -0.51657,7.22418 -1.22026,8.86277 -1.03542,2.41105 -2.52276,4.02329 -1.95779,2.1222 z m -76.021199,-3.06603 c -0.407056,-0.25792 -0.516671,-0.78057 -0.324439,-1.5466 0.310757,-1.23816 1.161216,-1.59814 1.161216,-0.49171 0,0.36641 0.199728,0.66574 0.443855,0.66574 0.244128,0 0.443855,-0.238 0.443855,-0.52867 0,-0.29093 0.273905,-0.15407 0.608696,0.30405 0.578741,0.79145 0.64339,0.76833 1.313744,-0.47023 l 0.705047,-1.30243 0.01791,1.15178 c 0.03145,2.03958 -2.568017,3.3589 -4.369723,2.21786 z m 113.418249,-6.76338 c 0.2467,-6.62406 0.9744,-10.80172 1.74693,-10.02917 0.4254,0.42566 0.19311,12.84226 -0.27266,14.57191 -0.24175,0.89793 -0.73323,1.87629 -1.0921,2.17409 -0.57138,0.47441 -0.6189,-0.36069 -0.38215,-6.71683 z m -56.48407,5.64762 c -0.1332,-0.34703 0.01424,-1.09603 0.327377,-1.66438 0.486471,-0.88259 0.593319,-0.92001 0.732478,-0.25635 0.08959,0.42724 0.276054,0.77673 0.414341,0.77673 0.138289,0 0.516721,-0.34965 0.84102,-0.77673 0.561532,-0.73972 0.590284,-0.73972 0.603725,0 0.01995,1.10606 1.120789,0.96169 1.691606,-0.22176 0.475465,-0.98592 0.482016,-0.98342 0.511687,0.19661 0.01893,0.75591 -0.332614,1.44941 -0.956392,1.88634 -1.244153,0.8714 -3.840066,0.90873 -4.16581,0.0599 z m 39.32776,-5.33455 c 0,-1.42281 0.71683,-1.83703 1.04007,-0.6009 0.24996,0.95577 0.26584,0.95744 1.18716,0.12375 0.74929,-0.67808 1.00637,-0.72774 1.30094,-0.25113 0.43475,0.70345 1.35404,0.25845 1.35404,-0.65545 0,-0.35176 0.19973,-0.63958 0.44385,-0.63958 0.74941,0 0.49292,1.28245 -0.44385,2.21919 -0.62466,0.62465 -1.47945,0.88765 -2.88494,0.88765 -1.82166,0 -1.99727,-0.0955 -1.99727,-1.08341 z"
       id="path848"
       inkscape:connector-curvature="0" />
  </g>
</svg>
