<?xml version="1.0" encoding="UTF-8" standalone="no"?>
<!-- Created with Inkscape (http://www.inkscape.org/) -->

<svg
   xmlns:dc="http://purl.org/dc/elements/1.1/"
   xmlns:cc="http://creativecommons.org/ns#"
   xmlns:rdf="http://www.w3.org/1999/02/22-rdf-syntax-ns#"
   xmlns:svg="http://www.w3.org/2000/svg"
   xmlns="http://www.w3.org/2000/svg"
   xmlns:sodipodi="http://sodipodi.sourceforge.net/DTD/sodipodi-0.dtd"
   xmlns:inkscape="http://www.inkscape.org/namespaces/inkscape"
   width="200"
   height="200"
   viewBox="0 0 52.916665 52.916668"
   version="1.1"
   id="svg844"
   inkscape:version="0.92.4 (5da689c313, 2019-01-14)"
   sodipodi:docname="favicon.svg"
   inkscape:export-filename="/home/bandithijo/dex/buletin-dakwah-kaffah/assets/images/icons/favicon.png"
   inkscape:export-xdpi="96"
   inkscape:export-ydpi="96">
  <defs
     id="defs838" />
  <sodipodi:namedview
     id="base"
     pagecolor="#ffffff"
     bordercolor="#666666"
     borderopacity="1.0"
     inkscape:pageopacity="0.0"
     inkscape:pageshadow="2"
     inkscape:zoom="2.445"
     inkscape:cx="100"
     inkscape:cy="100"
     inkscape:document-units="mm"
     inkscape:current-layer="layer1"
     showgrid="false"
     units="px" />
  <metadata
     id="metadata841">
    <rdf:RDF>
      <cc:Work
         rdf:about="">
        <dc:format>image/svg+xml</dc:format>
        <dc:type
           rdf:resource="http://purl.org/dc/dcmitype/StillImage" />
        <dc:title></dc:title>
      </cc:Work>
    </rdf:RDF>
  </metadata>
  <g
     inkscape:label="Layer 1"
     inkscape:groupmode="layer"
     id="layer1"
     transform="translate(0,-244.08332)">
    <path
       sodipodi:nodetypes="ccccccscccsccccscccsccssccccccccccccccsscccccccscc"
       inkscape:connector-curvature="0"
       id="path840-3"
       d="m 2.3926816,287.44348 c 0,-0.38231 0.3276258,-1.3406 0.7280892,-2.12958 2.3883975,-4.70577 5.2137635,-6.71873 7.2590522,-5.17176 1.503461,1.13718 6.322047,0.0712 6.823769,-1.50967 0.350485,-1.10425 -0.06455,-1.42061 -1.551621,-1.1828 -2.561292,0.40956 -3.286923,-1.31602 -2.16962,-5.1594 0.639523,-2.19989 1.151912,-2.68572 2.516444,-2.38603 3.166611,0.6955 4.313193,5.78983 2.29522,10.19767 -1.751716,3.82622 -4.492964,5.40021 -8.051441,4.62294 -3.7804286,-0.82578 -3.7346758,-0.82786 -4.8298667,0.21973 -0.5628554,0.53845 -1.3317968,1.47735 -1.7087576,2.0864 -0.7813437,1.26241 -1.3112681,1.42906 -1.3112681,0.41234 z m 21.4980314,-2.79887 c -2.123181,-0.77657 -2.595028,-1.86347 -2.533317,-5.83533 0.118802,-7.64451 1.849902,-17.58859 3.061879,-17.58859 0.324532,0 0.443035,0.21491 0.328514,0.59626 -0.621099,2.06757 -1.279033,9.27079 -1.176279,12.87806 0.151723,5.32632 0.524172,6.02939 3.114575,5.87936 2.272965,-0.1316 2.456288,-0.50752 2.957989,-6.06513 0.852591,-9.44476 2.344586,-11.38529 12.784614,-16.62787 2.248836,-1.12929 5.077418,-2.74685 6.285728,-3.59459 2.246875,-1.5764 2.743676,-1.68027 2.743676,-0.57367 0,1.44378 -4.658871,4.75715 -12.947822,9.2084 -3.959852,2.12651 -5.222371,3.03862 -5.86998,4.24084 -0.195627,0.363 -0.483093,2.4936 -0.638782,4.7343 -0.325094,4.67875 -1.147419,9.45245 -1.868463,10.84679 -0.272817,0.52751 -0.847746,1.1896 -1.277675,1.47132 -1.095556,0.71783 -3.587404,0.93357 -4.964657,0.42985 z M 2.753702,278.68267 c -0.6447482,-0.3276 -1.2254604,-0.76626 -1.290466,-0.97464 -0.064995,-0.20846 0.5573381,-1.12505 1.3829866,-2.03702 l 1.5011834,-1.65809 1.2279314,0.66128 1.2279307,0.66125 1.2246351,-1.43068 1.2246314,-1.43071 1.3403204,0.68379 c 0.737182,0.37628 1.34032,0.84408 1.34032,1.03998 0,1.02441 -2.153244,3.7187 -2.9719544,3.7187 -0.252651,0 -0.8084203,-0.22858 -1.2350743,-0.50827 -0.729502,-0.47799 -0.8444539,-0.43738 -1.9288711,0.68148 -1.3270201,1.36914 -1.4638017,1.39578 -3.0435732,0.59293 z m 10.743848,-11.21097 -1.672585,-1.51905 1.672585,-1.49888 c 0.919924,-0.8244 1.846398,-1.50578 2.05885,-1.51419 0.415772,-0.0161 2.850687,2.5336 2.850687,2.98551 0,0.2644 -1.685287,1.92793 -2.725855,2.69091 -0.406112,0.29781 -0.85468,0.0628 -2.183682,-1.1443 z"
       style="fill:#f57215;fill-opacity:1;stroke-width:0.34073201" />
  </g>
</svg>
