<?xml version="1.0" encoding="UTF-8" standalone="no"?>
<!-- Created with Inkscape (http://www.inkscape.org/) -->

<svg
   xmlns:dc="http://purl.org/dc/elements/1.1/"
   xmlns:cc="http://creativecommons.org/ns#"
   xmlns:rdf="http://www.w3.org/1999/02/22-rdf-syntax-ns#"
   xmlns:svg="http://www.w3.org/2000/svg"
   xmlns="http://www.w3.org/2000/svg"
   xmlns:sodipodi="http://sodipodi.sourceforge.net/DTD/sodipodi-0.dtd"
   xmlns:inkscape="http://www.inkscape.org/namespaces/inkscape"
   width="200"
   height="200"
   viewBox="0 0 52.916665 52.916668"
   version="1.1"
   id="svg844"
   inkscape:version="0.92.4 (5da689c313, 2019-01-14)"
   sodipodi:docname="favicon.svg"
   inkscape:export-filename="/home/bandithijo/dex/buletin-dakwah-kaffah/assets/images/icons/favicon.png"
   inkscape:export-xdpi="96"
   inkscape:export-ydpi="96">
  <defs
     id="defs838" />
  <sodipodi:namedview
     id="base"
     pagecolor="#ffffff"
     bordercolor="#666666"
     borderopacity="1.0"
     inkscape:pageopacity="0.0"
     inkscape:pageshadow="2"
     inkscape:zoom="2.475"
     inkscape:cx="100"
     inkscape:cy="100"
     inkscape:document-units="mm"
     inkscape:current-layer="layer1"
     showgrid="false"
     units="px"
     inkscape:showpageshadow="false" />
  <metadata
     id="metadata841">
    <rdf:RDF>
      <cc:Work
         rdf:about="">
        <dc:format>image/svg+xml</dc:format>
        <dc:type
           rdf:resource="http://purl.org/dc/dcmitype/StillImage" />
        <dc:title></dc:title>
        <dc:creator>
          <cc:Agent>
            <dc:title>Rizqi Nur Assyaufi</dc:title>
          </cc:Agent>
        </dc:creator>
        <cc:license
           rdf:resource="http://creativecommons.org/licenses/by-nc-sa/4.0/" />
      </cc:Work>
      <cc:License
         rdf:about="http://creativecommons.org/licenses/by-nc-sa/4.0/">
        <cc:permits
           rdf:resource="http://creativecommons.org/ns#Reproduction" />
        <cc:permits
           rdf:resource="http://creativecommons.org/ns#Distribution" />
        <cc:requires
           rdf:resource="http://creativecommons.org/ns#Notice" />
        <cc:requires
           rdf:resource="http://creativecommons.org/ns#Attribution" />
        <cc:prohibits
           rdf:resource="http://creativecommons.org/ns#CommercialUse" />
        <cc:permits
           rdf:resource="http://creativecommons.org/ns#DerivativeWorks" />
        <cc:requires
           rdf:resource="http://creativecommons.org/ns#ShareAlike" />
      </cc:License>
    </rdf:RDF>
  </metadata>
  <g
     inkscape:label="Layer 1"
     inkscape:groupmode="layer"
     id="layer1"
     transform="translate(0,-244.08332)">
    <path
       sodipodi:nodetypes="ccccccscccsccccscccsccssccccccccccccccsscccccccscc"
       inkscape:connector-curvature="0"
       id="path840-3"
       d="m 1.4200298,290.35437 c 0,-0.49509 0.4242795,-1.7361 0.9428847,-2.75783 3.0930052,-6.09403 6.7518893,-8.70084 9.4005635,-6.6975 1.947001,1.47267 8.18713,0.0922 8.836867,-1.95504 0.453882,-1.43002 -0.08359,-1.83971 -2.00937,-1.53174 -3.316904,0.53039 -4.256606,-1.70426 -2.809685,-6.68148 0.82819,-2.84889 1.491741,-3.47805 3.258827,-3.08994 4.100801,0.90068 5.58564,7.4979 2.972339,13.20611 -2.268495,4.955 -5.818445,6.99333 -10.426718,5.98676 -4.8957013,-1.0694 -4.8364513,-1.07209 -6.2547373,0.28455 -0.728904,0.6973 -1.7246932,1.91319 -2.2128622,2.70192 -1.0118499,1.63484 -1.6981087,1.85065 -1.6981087,0.53399 z M 29.26025,286.7298 c -2.749546,-1.00567 -3.360594,-2.41322 -3.280677,-7.55682 0.15385,-9.89974 2.395646,-22.77745 3.965172,-22.77745 0.420273,0 0.573736,0.27831 0.42543,0.77216 -0.804332,2.67753 -1.656365,12.00579 -1.523297,16.67725 0.196483,6.89765 0.67881,7.80814 4.033414,7.61384 2.943518,-0.17041 3.180924,-0.65724 3.830633,-7.85441 1.104116,-12.23108 3.036269,-14.74409 16.556236,-21.5333 2.91227,-1.46245 6.57532,-3.55721 8.140097,-4.65505 2.909731,-2.04145 3.553095,-2.17596 3.553095,-0.7429 0,1.86971 -6.033297,6.16056 -16.767593,11.925 -5.128058,2.75385 -6.763036,3.93505 -7.601698,5.49193 -0.253339,0.47009 -0.625611,3.22925 -0.827231,6.13098 -0.421,6.05904 -1.485922,12.24104 -2.419683,14.04673 -0.353301,0.68313 -1.097841,1.54055 -1.654604,1.90538 -1.418759,0.9296 -4.645734,1.20898 -6.429294,0.55666 z M 1.8875558,279.00901 c -0.834957,-0.42424 -1.58698656,-0.99232 -1.67116966,-1.26217 -0.084169,-0.26996 0.72175983,-1.45695 1.79098506,-2.63797 l 1.9440513,-2.14725 1.5901862,0.85637 1.590186,0.85633 1.585918,-1.85275 1.5859123,-1.85278 1.735732,0.88551 c 0.95466,0.48729 1.735731,1.09309 1.735731,1.34678 0,1.32663 -2.788478,4.81577 -3.8487186,4.81577 -0.327186,0 -1.0469137,-0.29601 -1.5994357,-0.65821 -0.944714,-0.61901 -1.093579,-0.56642 -2.497912,0.88252 -1.7185081,1.77305 -1.895642,1.80756 -3.9414659,0.76785 z m 13.9134172,-14.51835 -2.166019,-1.96719 2.166019,-1.94106 c 1.191313,-1.06761 2.391109,-1.95 2.666237,-1.9609 0.53843,-0.0208 3.691676,3.28105 3.691676,3.86627 0,0.34241 -2.182468,2.4967 -3.530017,3.48477 -0.52592,0.38567 -1.106821,0.0813 -2.827896,-1.48189 z"
       style="fill:#f57215;fill-opacity:1;stroke-width:0.44125223" />
  </g>
</svg>
