<?xml version="1.0" encoding="UTF-8" standalone="no"?>
<!-- Created with Inkscape (http://www.inkscape.org/) -->

<svg
   xmlns:dc="http://purl.org/dc/elements/1.1/"
   xmlns:cc="http://creativecommons.org/ns#"
   xmlns:rdf="http://www.w3.org/1999/02/22-rdf-syntax-ns#"
   xmlns:svg="http://www.w3.org/2000/svg"
   xmlns="http://www.w3.org/2000/svg"
   xmlns:sodipodi="http://sodipodi.sourceforge.net/DTD/sodipodi-0.dtd"
   xmlns:inkscape="http://www.inkscape.org/namespaces/inkscape"
   width="768"
   height="768"
   viewBox="0 0 203.19999 203.20001"
   version="1.1"
   id="svg8"
   inkscape:version="0.92.4 (5da689c313, 2019-01-14)"
   sodipodi:docname="logo-kaffah-square.svg"
   inkscape:export-filename="/home/bandithijo/dex/buletin-dakwah-kaffah/assets/images/icons/logo-kaffah-square.png"
   inkscape:export-xdpi="96"
   inkscape:export-ydpi="96">
  <defs
     id="defs2" />
  <sodipodi:namedview
     id="base"
     pagecolor="#ffffff"
     bordercolor="#666666"
     borderopacity="1.0"
     inkscape:pageopacity="0.0"
     inkscape:pageshadow="2"
     inkscape:zoom="0.64453125"
     inkscape:cx="384"
     inkscape:cy="384"
     inkscape:document-units="mm"
     inkscape:current-layer="layer1"
     showgrid="false"
     inkscape:snap-global="true"
     units="px"
     inkscape:snap-page="true"
     inkscape:object-nodes="false" />
  <metadata
     id="metadata5">
    <rdf:RDF>
      <cc:Work
         rdf:about="">
        <dc:format>image/svg+xml</dc:format>
        <dc:type
           rdf:resource="http://purl.org/dc/dcmitype/StillImage" />
        <dc:title></dc:title>
      </cc:Work>
    </rdf:RDF>
  </metadata>
  <g
     inkscape:label="Layer 1"
     inkscape:groupmode="layer"
     id="layer1"
     transform="translate(0,-93.799993)">
    <g
       id="g846"
       transform="matrix(1.9200001,0,0,1.9200001,0,-273.24002)">
      <rect
         y="281.66675"
         x="0"
         height="15.333272"
         width="105.83333"
         id="rect864"
         style="opacity:1;fill:#000000;fill-opacity:1;fill-rule:nonzero;stroke:none;stroke-width:0.36803842;stroke-linecap:round;stroke-linejoin:round;stroke-miterlimit:4;stroke-dasharray:none;stroke-dashoffset:0;stroke-opacity:1;paint-order:markers stroke fill" />
      <g
         transform="matrix(1.4335776,0,0,1.4335776,-132.98987,237.82739)"
         id="text878"
         style="font-style:normal;font-variant:normal;font-weight:normal;font-stretch:normal;font-size:10.52432728px;line-height:6.57770395px;font-family:Impact;-inkscape-font-specification:Impact;letter-spacing:0px;word-spacing:0px;fill:#ffffff;fill-opacity:1;stroke:none;stroke-width:0.26310816px;stroke-linecap:butt;stroke-linejoin:miter;stroke-opacity:1"
         aria-label="Bulet in Dakwah">
        <path
           inkscape:connector-curvature="0"
           id="path905"
           style="font-style:normal;font-variant:normal;font-weight:bold;font-stretch:normal;font-family:Calibri;-inkscape-font-specification:Calibri;fill:#ffffff;fill-opacity:1;stroke-width:0.26310816px"
           d="m 100.58302,37.451957 q 0,0.354579 -0.0976,0.642354 -0.0976,0.287775 -0.27236,0.508744 -0.16958,0.22097 -0.411104,0.380274 -0.236386,0.159304 -0.524161,0.26208 -0.287774,0.102777 -0.61666,0.154165 -0.323746,0.04625 -0.724575,0.04625 h -1.767758 q -0.169581,0 -0.287775,-0.09764 -0.113054,-0.102777 -0.113054,-0.328885 v -5.796602 q 0,-0.226109 0.113054,-0.323747 0.118194,-0.102777 0.287775,-0.102777 h 1.67012 q 0.611521,0 1.032905,0.102777 0.426523,0.102777 0.714298,0.313469 0.292913,0.205553 0.447075,0.524161 0.15417,0.318607 0.15417,0.750269 0,0.241525 -0.0617,0.457356 -0.0617,0.210692 -0.179857,0.385412 -0.118193,0.174721 -0.292913,0.30833 -0.169582,0.13361 -0.390551,0.215831 0.282635,0.05139 0.519022,0.179859 0.241529,0.128471 0.416249,0.334024 0.17986,0.200415 0.28263,0.472773 0.10278,0.272358 0.10278,0.611521 z m -1.747204,-2.800663 q 0,-0.200415 -0.06167,-0.359719 -0.06167,-0.159303 -0.184998,-0.26208 -0.123332,-0.107915 -0.313469,-0.164443 -0.184998,-0.05653 -0.498467,-0.05653 h -0.683464 v 1.726648 h 0.755408 q 0.292913,0 0.467634,-0.06681 0.17472,-0.07194 0.287774,-0.190137 0.118193,-0.123332 0.17472,-0.282636 0.05653,-0.164442 0.05653,-0.344301 z m 0.344301,2.846912 q 0,-0.231247 -0.07708,-0.411106 -0.07708,-0.184998 -0.226109,-0.30833 -0.149026,-0.123332 -0.380273,-0.190137 -0.231248,-0.06681 -0.601244,-0.06681 h -0.801657 v 1.891091 h 0.976378 q 0.282635,0 0.472772,-0.05653 0.195276,-0.06167 0.334024,-0.17472 0.143888,-0.118193 0.22097,-0.287774 0.08222,-0.174721 0.08222,-0.395691 z" />
        <path
           inkscape:connector-curvature="0"
           id="path907"
           style="font-style:normal;font-variant:normal;font-weight:bold;font-stretch:normal;font-family:Calibri;-inkscape-font-specification:Calibri;fill:#ffffff;fill-opacity:1;stroke-width:0.26310816px"
           d="m 105.93768,39.271103 q 0,0.05139 -0.0257,0.0925 -0.0257,0.03597 -0.0925,0.06167 -0.0617,0.02569 -0.16958,0.03597 -0.10278,0.01542 -0.26208,0.01542 -0.16959,0 -0.2775,-0.01542 -0.10278,-0.01028 -0.16444,-0.03597 -0.0617,-0.02569 -0.0874,-0.06167 -0.0257,-0.04111 -0.0257,-0.0925 v -0.529299 q -0.38027,0.411106 -0.77596,0.61666 -0.39055,0.205553 -0.81194,0.205553 -0.47277,0 -0.79652,-0.154165 -0.3186,-0.154165 -0.51902,-0.421384 -0.19527,-0.26722 -0.28263,-0.61666 -0.0822,-0.35458 -0.0822,-0.87874 v -2.805802 q 0,-0.05139 0.0257,-0.08736 0.0308,-0.04111 0.10278,-0.0668 0.0771,-0.02569 0.20041,-0.03597 0.12847,-0.01542 0.31347,-0.01542 0.19014,0 0.31347,0.01542 0.12333,0.01028 0.19527,0.03597 0.0771,0.02569 0.10792,0.0668 0.0308,0.03597 0.0308,0.08736 v 2.589971 q 0,0.359718 0.0463,0.549855 0.0462,0.190136 0.13875,0.328885 0.0976,0.13361 0.24153,0.210692 0.14902,0.07194 0.3443,0.07194 0.24666,0 0.49332,-0.179859 0.25181,-0.17986 0.53444,-0.524161 v -3.047327 q 0,-0.05139 0.0257,-0.08736 0.0308,-0.04111 0.10277,-0.0668 0.0771,-0.02569 0.20042,-0.03597 0.12333,-0.01542 0.31347,-0.01542 0.19013,0 0.31347,0.01542 0.12333,0.01028 0.19527,0.03597 0.072,0.02569 0.10278,0.0668 0.0308,0.03597 0.0308,0.08736 z" />
        <path
           inkscape:connector-curvature="0"
           id="path909"
           style="font-style:normal;font-variant:normal;font-weight:bold;font-stretch:normal;font-family:Calibri;-inkscape-font-specification:Calibri;fill:#ffffff;fill-opacity:1;stroke-width:0.26310816px"
           d="m 108.53793,39.271103 q 0,0.05139 -0.0308,0.0925 -0.0308,0.03597 -0.10792,0.06167 -0.0719,0.02569 -0.19527,0.03597 -0.12334,0.01542 -0.31347,0.01542 -0.19014,0 -0.31347,-0.01542 -0.12333,-0.01028 -0.20042,-0.03597 -0.0719,-0.02569 -0.10277,-0.06167 -0.0308,-0.04111 -0.0308,-0.0925 V 32.51354 q 0,-0.05139 0.0308,-0.0925 0.0308,-0.04111 0.10277,-0.06681 0.0771,-0.03083 0.20042,-0.04625 0.12333,-0.01542 0.31347,-0.01542 0.19013,0 0.31347,0.01542 0.12333,0.01542 0.19527,0.04625 0.0771,0.02569 0.10792,0.06681 0.0308,0.04111 0.0308,0.0925 z" />
        <path
           inkscape:connector-curvature="0"
           id="path911"
           style="font-style:normal;font-variant:normal;font-weight:bold;font-stretch:normal;font-family:Calibri;-inkscape-font-specification:Calibri;fill:#ffffff;fill-opacity:1;stroke-width:0.26310816px"
           d="m 114.06731,36.845575 q 0,0.236386 -0.10791,0.34944 -0.10278,0.113055 -0.28778,0.113055 h -2.79038 q 0,0.292913 0.0668,0.534438 0.072,0.236386 0.22097,0.405968 0.15417,0.164443 0.39055,0.251803 0.24153,0.08736 0.57555,0.08736 0.33917,0 0.59611,-0.04625 0.25694,-0.05139 0.44194,-0.107915 0.19013,-0.06167 0.31347,-0.107916 0.12333,-0.05139 0.20041,-0.05139 0.0463,0 0.0771,0.02056 0.0308,0.01542 0.0514,0.06167 0.0206,0.04625 0.0257,0.13361 0.0103,0.08222 0.0103,0.210692 0,0.113054 -0.005,0.195276 -0.005,0.07708 -0.0154,0.133609 -0.0103,0.05653 -0.0308,0.09764 -0.0206,0.03597 -0.0565,0.07194 -0.0308,0.03597 -0.17986,0.09764 -0.14903,0.06167 -0.38028,0.123332 -0.23124,0.05653 -0.5293,0.09764 -0.29805,0.04625 -0.63721,0.04625 -0.61152,0 -1.07402,-0.154165 -0.45735,-0.154165 -0.76568,-0.467634 -0.30833,-0.313469 -0.4625,-0.79138 -0.14902,-0.477911 -0.14902,-1.120265 0,-0.611521 0.1593,-1.09971 0.1593,-0.493328 0.4625,-0.832491 0.30319,-0.344302 0.73485,-0.524161 0.4368,-0.179859 0.98151,-0.179859 0.57555,0 0.98152,0.169582 0.41111,0.169581 0.67319,0.472772 0.26208,0.298052 0.38541,0.709159 0.12333,0.411106 0.12333,0.894157 z m -1.25387,-0.369996 q 0.0154,-0.544716 -0.22097,-0.853046 -0.23125,-0.313469 -0.71944,-0.313469 -0.24666,0 -0.43166,0.0925 -0.17986,0.0925 -0.30319,0.251803 -0.11819,0.154165 -0.185,0.369996 -0.0617,0.210692 -0.0719,0.452217 z" />
        <path
           inkscape:connector-curvature="0"
           id="path913"
           style="font-style:normal;font-variant:normal;font-weight:bold;font-stretch:normal;font-family:Calibri;-inkscape-font-specification:Calibri;fill:#ffffff;fill-opacity:1;stroke-width:0.26310816px"
           d="m 117.78783,38.818886 q 0,0.226109 -0.0308,0.349441 -0.0257,0.118193 -0.0719,0.169581 -0.0463,0.04625 -0.13875,0.08736 -0.0874,0.03597 -0.21069,0.06167 -0.11819,0.03083 -0.26208,0.04625 -0.13875,0.01542 -0.28264,0.01542 -0.38541,0 -0.66804,-0.09764 -0.28264,-0.09764 -0.46764,-0.298053 -0.185,-0.205553 -0.27236,-0.513883 -0.0874,-0.30833 -0.0874,-0.729714 v -2.348446 h -0.54985 q -0.0976,0 -0.14903,-0.118193 -0.0514,-0.123332 -0.0514,-0.405968 0,-0.149026 0.0103,-0.251803 0.0154,-0.102776 0.0411,-0.159303 0.0257,-0.06167 0.0617,-0.08736 0.0411,-0.02569 0.0925,-0.02569 h 0.54471 v -1.022627 q 0,-0.05139 0.0257,-0.0925 0.0308,-0.04111 0.10277,-0.06681 0.0771,-0.03083 0.20042,-0.04111 0.12847,-0.01542 0.31347,-0.01542 0.19013,0 0.31347,0.01542 0.12847,0.01028 0.20041,0.04111 0.0719,0.02569 0.10278,0.06681 0.0308,0.04111 0.0308,0.0925 v 1.022627 h 0.99693 q 0.0514,0 0.0874,0.02569 0.0411,0.0257 0.0668,0.08736 0.0257,0.05653 0.036,0.159303 0.0154,0.102777 0.0154,0.251803 0,0.282636 -0.0514,0.405968 -0.0514,0.118193 -0.14903,0.118193 h -1.00207 v 2.15317 q 0,0.375135 0.11819,0.565272 0.1182,0.184998 0.42139,0.184998 0.10277,0 0.185,-0.01542 0.0822,-0.02056 0.14388,-0.04111 0.0668,-0.02569 0.10792,-0.04111 0.0463,-0.02056 0.0822,-0.02056 0.0308,0 0.0565,0.02056 0.0308,0.01542 0.0463,0.07194 0.0154,0.05139 0.0257,0.143887 0.0154,0.0925 0.0154,0.236386 z" />
        <path
           inkscape:connector-curvature="0"
           id="path915"
           style="font-style:normal;font-variant:normal;font-weight:bold;font-stretch:normal;font-family:Calibri;-inkscape-font-specification:Calibri;fill:#ffffff;fill-opacity:1;stroke-width:0.26310816px"
           d="m 120.03547,39.271103 q 0,0.05139 -0.0308,0.0925 -0.0308,0.03597 -0.10791,0.06167 -0.072,0.02569 -0.19528,0.03597 -0.12333,0.01542 -0.31347,0.01542 -0.19013,0 -0.31347,-0.01542 -0.12333,-0.01028 -0.20041,-0.03597 -0.0719,-0.02569 -0.10278,-0.06167 -0.0308,-0.04111 -0.0308,-0.0925 v -4.57356 q 0,-0.05139 0.0308,-0.08736 0.0308,-0.04111 0.10278,-0.06681 0.0771,-0.03083 0.20041,-0.04625 0.12334,-0.01542 0.31347,-0.01542 0.19014,0 0.31347,0.01542 0.12333,0.01542 0.19528,0.04625 0.0771,0.02569 0.10791,0.06681 0.0308,0.03597 0.0308,0.08736 z m 0.0976,-6.135765 q 0,0.390552 -0.1593,0.539578 -0.1593,0.149026 -0.59097,0.149026 -0.4368,0 -0.59096,-0.143887 -0.14903,-0.143888 -0.14903,-0.519022 0,-0.390552 0.15417,-0.539578 0.1593,-0.154165 0.5961,-0.154165 0.43166,0 0.58583,0.149026 0.15416,0.143888 0.15416,0.519022 z" />
        <path
           inkscape:connector-curvature="0"
           id="path917"
           style="font-style:normal;font-variant:normal;font-weight:bold;font-stretch:normal;font-family:Calibri;-inkscape-font-specification:Calibri;fill:#ffffff;fill-opacity:1;stroke-width:0.26310816px"
           d="m 125.70874,39.271103 q 0,0.05139 -0.0308,0.0925 -0.0308,0.03597 -0.10277,0.06167 -0.072,0.02569 -0.20042,0.03597 -0.12333,0.01542 -0.30833,0.01542 -0.19013,0 -0.31861,-0.01542 -0.12333,-0.01028 -0.19527,-0.03597 -0.0719,-0.02569 -0.10278,-0.06167 -0.0308,-0.04111 -0.0308,-0.0925 v -2.615665 q 0,-0.334024 -0.0514,-0.524161 -0.0463,-0.190137 -0.13875,-0.323746 -0.0925,-0.138749 -0.24152,-0.210692 -0.14389,-0.07708 -0.33917,-0.07708 -0.24666,0 -0.49846,0.179859 -0.25181,0.179859 -0.52416,0.524161 v 3.047327 q 0,0.05139 -0.0308,0.0925 -0.0308,0.03597 -0.10791,0.06167 -0.072,0.02569 -0.19528,0.03597 -0.12333,0.01542 -0.31347,0.01542 -0.19013,0 -0.31346,-0.01542 -0.12334,-0.01028 -0.20042,-0.03597 -0.0719,-0.02569 -0.10278,-0.06167 -0.0308,-0.04111 -0.0308,-0.0925 v -4.583837 q 0,-0.05139 0.0257,-0.08736 0.0257,-0.04111 0.0925,-0.0668 0.0668,-0.02569 0.16959,-0.03597 0.10791,-0.01542 0.26722,-0.01542 0.16444,0 0.27235,0.01542 0.10792,0.01028 0.16445,0.03597 0.0617,0.02569 0.0874,0.0668 0.0257,0.03597 0.0257,0.08736 v 0.529299 q 0.38027,-0.411106 0.77082,-0.61666 0.39569,-0.205553 0.82222,-0.205553 0.46763,0 0.78624,0.154165 0.32375,0.154165 0.51902,0.421384 0.20042,0.262081 0.28778,0.61666 0.0874,0.354579 0.0874,0.853046 z" />
        <path
           inkscape:connector-curvature="0"
           id="path919"
           style="font-style:normal;font-variant:normal;font-weight:bold;font-stretch:normal;font-family:Calibri;-inkscape-font-specification:Calibri;fill:#ffffff;fill-opacity:1;stroke-width:0.26310816px"
           d="m 134.96891,36.023362 q 0,0.914712 -0.24153,1.567343 -0.23638,0.647493 -0.68346,1.0586 -0.44708,0.411106 -1.08943,0.606382 -0.63722,0.190137 -1.5211,0.190137 h -1.5879 q -0.16958,0 -0.28777,-0.09764 -0.11305,-0.102777 -0.11305,-0.328885 v -5.796602 q 0,-0.226109 0.11305,-0.323747 0.11819,-0.102777 0.28777,-0.102777 h 1.7061 q 0.88901,0 1.50567,0.210693 0.6218,0.205553 1.04319,0.616659 0.42652,0.405968 0.64749,1.007211 0.22097,0.601244 0.22097,1.392624 z m -1.39776,0.04625 q 0,-0.472772 -0.11306,-0.87874 -0.10791,-0.405968 -0.35458,-0.70402 -0.24152,-0.298052 -0.62693,-0.462495 -0.38028,-0.169581 -1.00208,-0.169581 h -0.68346 v 4.522172 h 0.70402 q 0.55499,0 0.93527,-0.143888 0.38027,-0.143887 0.63207,-0.431661 0.25695,-0.292914 0.38028,-0.724576 0.12847,-0.431662 0.12847,-1.007211 z" />
        <path
           inkscape:connector-curvature="0"
           id="path921"
           style="font-style:normal;font-variant:normal;font-weight:bold;font-stretch:normal;font-family:Calibri;-inkscape-font-specification:Calibri;fill:#ffffff;fill-opacity:1;stroke-width:0.26310816px"
           d="m 139.91247,39.28652 q 0,0.07194 -0.0514,0.113054 -0.0514,0.04111 -0.16445,0.05653 -0.10791,0.02056 -0.32374,0.02056 -0.23125,0 -0.33916,-0.02056 -0.10278,-0.01542 -0.14903,-0.05653 -0.0411,-0.04111 -0.0411,-0.113054 v -0.364857 q -0.28264,0.303191 -0.64749,0.472772 -0.35972,0.169582 -0.80166,0.169582 -0.36486,0 -0.67319,-0.09764 -0.30319,-0.0925 -0.5293,-0.277497 -0.22097,-0.190137 -0.3443,-0.467634 -0.12333,-0.277497 -0.12333,-0.647492 0,-0.400829 0.15416,-0.693743 0.15931,-0.298052 0.46764,-0.488189 0.31347,-0.195275 0.77596,-0.287774 0.46249,-0.0925 1.07402,-0.0925 h 0.44707 v -0.277497 q 0,-0.215831 -0.0462,-0.375135 -0.0411,-0.164442 -0.14388,-0.272358 -0.0976,-0.107915 -0.26722,-0.159304 -0.16444,-0.05139 -0.41111,-0.05139 -0.32374,0 -0.58069,0.07194 -0.2518,0.07194 -0.44707,0.159303 -0.19528,0.08736 -0.32889,0.159304 -0.12847,0.07194 -0.21069,0.07194 -0.0565,0 -0.10278,-0.03597 -0.0411,-0.03597 -0.0719,-0.102777 -0.0257,-0.0668 -0.0411,-0.164442 -0.0154,-0.09764 -0.0154,-0.215831 0,-0.159304 0.0257,-0.251803 0.0257,-0.0925 0.0976,-0.164443 0.0719,-0.07708 0.25181,-0.164442 0.17985,-0.0925 0.42138,-0.169582 0.24152,-0.07708 0.52416,-0.123332 0.28777,-0.05139 0.59097,-0.05139 0.53957,0 0.91985,0.107916 0.38541,0.102776 0.63207,0.323746 0.24667,0.215831 0.35972,0.560133 0.11306,0.344301 0.11306,0.817074 z m -1.2693,-1.963034 h -0.49332 q -0.31347,0 -0.53444,0.04625 -0.22097,0.04625 -0.35972,0.138748 -0.13875,0.0925 -0.20555,0.226109 -0.0617,0.128471 -0.0617,0.298052 0,0.287775 0.17986,0.452217 0.185,0.164443 0.50874,0.164443 0.27236,0 0.49847,-0.138749 0.23125,-0.138748 0.46763,-0.405967 z" />
        <path
           inkscape:connector-curvature="0"
           id="path923"
           style="font-style:normal;font-variant:normal;font-weight:bold;font-stretch:normal;font-family:Calibri;-inkscape-font-specification:Calibri;fill:#ffffff;fill-opacity:1;stroke-width:0.26310816px"
           d="m 145.46754,39.276242 q 0,0.05139 -0.0308,0.0925 -0.0257,0.03597 -0.10278,0.06167 -0.0719,0.02056 -0.20041,0.03083 -0.12847,0.01542 -0.33403,0.01542 -0.21069,0 -0.3443,-0.01028 -0.12847,-0.01028 -0.21583,-0.03083 -0.0822,-0.02569 -0.12847,-0.06681 -0.0463,-0.04111 -0.0822,-0.107915 l -1.52623,-2.415251 v 2.425528 q 0,0.05139 -0.0308,0.0925 -0.0308,0.03597 -0.10791,0.06167 -0.072,0.02569 -0.19528,0.03597 -0.12333,0.01542 -0.31347,0.01542 -0.19013,0 -0.31347,-0.01542 -0.12333,-0.01028 -0.20041,-0.03597 -0.0719,-0.02569 -0.10278,-0.06167 -0.0308,-0.04111 -0.0308,-0.0925 V 32.51354 q 0,-0.05139 0.0308,-0.0925 0.0308,-0.04111 0.10278,-0.06681 0.0771,-0.03083 0.20041,-0.04625 0.12334,-0.01542 0.31347,-0.01542 0.19014,0 0.31347,0.01542 0.12333,0.01542 0.19528,0.04625 0.0771,0.02569 0.10791,0.06681 0.0308,0.04111 0.0308,0.0925 v 4.023705 l 1.35665,-1.824285 q 0.0411,-0.06167 0.0925,-0.107916 0.0514,-0.04625 0.13361,-0.07194 0.0874,-0.02569 0.21069,-0.03597 0.12847,-0.01542 0.32374,-0.01542 0.19014,0 0.31861,0.01542 0.13361,0.01028 0.21069,0.03597 0.0822,0.02569 0.11306,0.0668 0.0308,0.03597 0.0308,0.0925 0,0.07708 -0.0411,0.164443 -0.036,0.08736 -0.11305,0.184998 l -1.34124,1.521094 1.55193,2.399834 q 0.0617,0.102777 0.0874,0.17986 0.0308,0.07194 0.0308,0.133609 z" />
        <path
           inkscape:connector-curvature="0"
           id="path925"
           style="font-style:normal;font-variant:normal;font-weight:bold;font-stretch:normal;font-family:Calibri;-inkscape-font-specification:Calibri;fill:#ffffff;fill-opacity:1;stroke-width:0.26310816px"
           d="m 153.27857,34.676988 q 0,0.05653 -0.0154,0.138748 -0.0154,0.08222 -0.0565,0.236387 l -1.22304,4.147037 q -0.0257,0.08736 -0.0668,0.143887 -0.0411,0.05139 -0.12848,0.08222 -0.0822,0.03083 -0.24152,0.04111 -0.15417,0.01028 -0.40597,0.01028 -0.2518,0 -0.41111,-0.01542 -0.1593,-0.01028 -0.2518,-0.04111 -0.0874,-0.03083 -0.12847,-0.08222 -0.0411,-0.05653 -0.0617,-0.138748 l -0.77083,-2.785247 -0.0103,-0.04625 -0.0103,0.04625 -0.70916,2.785247 q -0.0206,0.08736 -0.0617,0.143887 -0.036,0.05139 -0.12847,0.08222 -0.0925,0.03083 -0.2518,0.04111 -0.15931,0.01028 -0.41111,0.01028 -0.25694,0 -0.41624,-0.01542 -0.15417,-0.01028 -0.24667,-0.04111 -0.0874,-0.03083 -0.12847,-0.08222 -0.0411,-0.05653 -0.0617,-0.138748 l -1.21276,-4.147037 q -0.0462,-0.149027 -0.0617,-0.231248 -0.0103,-0.08736 -0.0103,-0.143887 0,-0.05139 0.0257,-0.08736 0.0308,-0.04111 0.10278,-0.06167 0.0771,-0.02569 0.20041,-0.03597 0.12847,-0.01028 0.31861,-0.01028 0.20555,0 0.33402,0.01028 0.12847,0.01028 0.20042,0.03597 0.0719,0.02569 0.0976,0.07194 0.0308,0.04111 0.0463,0.102777 l 0.90957,3.365935 0.0103,0.06167 0.0103,-0.06167 0.85305,-3.365935 q 0.0154,-0.06167 0.0463,-0.102777 0.036,-0.04625 0.10278,-0.07194 0.0668,-0.02569 0.18499,-0.03597 0.12334,-0.01028 0.31347,-0.01028 0.19014,0 0.30833,0.01542 0.1182,0.01028 0.185,0.03597 0.0719,0.02055 0.0976,0.06167 0.0308,0.03597 0.0463,0.08736 l 0.91471,3.391629 0.0154,0.05653 0.0103,-0.06167 0.87361,-3.365935 q 0.0103,-0.06167 0.0411,-0.102777 0.0308,-0.04625 0.10277,-0.07194 0.072,-0.02569 0.19528,-0.03597 0.12333,-0.01028 0.31347,-0.01028 0.19013,0 0.30833,0.01028 0.12333,0.01028 0.19013,0.03597 0.0719,0.02055 0.0976,0.06167 0.0257,0.03597 0.0257,0.08736 z" />
        <path
           inkscape:connector-curvature="0"
           id="path927"
           style="font-style:normal;font-variant:normal;font-weight:bold;font-stretch:normal;font-family:Calibri;-inkscape-font-specification:Calibri;fill:#ffffff;fill-opacity:1;stroke-width:0.26310816px"
           d="m 157.91893,39.28652 q 0,0.07194 -0.0514,0.113054 -0.0514,0.04111 -0.16444,0.05653 -0.10791,0.02056 -0.32375,0.02056 -0.23124,0 -0.33916,-0.02056 -0.10278,-0.01542 -0.14902,-0.05653 -0.0411,-0.04111 -0.0411,-0.113054 v -0.364857 q -0.28263,0.303191 -0.64749,0.472772 -0.35972,0.169582 -0.80166,0.169582 -0.36485,0 -0.67318,-0.09764 -0.30319,-0.0925 -0.5293,-0.277497 -0.22097,-0.190137 -0.3443,-0.467634 -0.12334,-0.277497 -0.12334,-0.647492 0,-0.400829 0.15417,-0.693743 0.1593,-0.298052 0.46763,-0.488189 0.31347,-0.195275 0.77597,-0.287774 0.46249,-0.0925 1.07401,-0.0925 h 0.44708 v -0.277497 q 0,-0.215831 -0.0462,-0.375135 -0.0411,-0.164442 -0.14389,-0.272358 -0.0976,-0.107915 -0.26722,-0.159304 -0.16444,-0.05139 -0.4111,-0.05139 -0.32375,0 -0.58069,0.07194 -0.2518,0.07194 -0.44708,0.159303 -0.19527,0.08736 -0.32888,0.159304 -0.12847,0.07194 -0.2107,0.07194 -0.0565,0 -0.10277,-0.03597 -0.0411,-0.03597 -0.072,-0.102777 -0.0257,-0.0668 -0.0411,-0.164442 -0.0154,-0.09764 -0.0154,-0.215831 0,-0.159304 0.0257,-0.251803 0.0257,-0.0925 0.0976,-0.164443 0.0719,-0.07708 0.2518,-0.164442 0.17986,-0.0925 0.42139,-0.169582 0.24152,-0.07708 0.52416,-0.123332 0.28777,-0.05139 0.59096,-0.05139 0.53958,0 0.91985,0.107916 0.38541,0.102776 0.63208,0.323746 0.24666,0.215831 0.35972,0.560133 0.11305,0.344301 0.11305,0.817074 z m -1.26929,-1.963034 h -0.49333 q -0.31347,0 -0.53444,0.04625 -0.22097,0.04625 -0.35971,0.138748 -0.13875,0.0925 -0.20556,0.226109 -0.0617,0.128471 -0.0617,0.298052 0,0.287775 0.17986,0.452217 0.18499,0.164443 0.50874,0.164443 0.27236,0 0.49847,-0.138749 0.23124,-0.138748 0.46763,-0.405967 z" />
        <path
           inkscape:connector-curvature="0"
           id="path929"
           style="font-style:normal;font-variant:normal;font-weight:bold;font-stretch:normal;font-family:Calibri;-inkscape-font-specification:Calibri;fill:#ffffff;fill-opacity:1;stroke-width:0.26310816px"
           d="m 163.5922,39.271103 q 0,0.05139 -0.0308,0.0925 -0.0308,0.03597 -0.10278,0.06167 -0.0719,0.02569 -0.20041,0.03597 -0.12334,0.01542 -0.30833,0.01542 -0.19014,0 -0.31861,-0.01542 -0.12333,-0.01028 -0.19528,-0.03597 -0.0719,-0.02569 -0.10277,-0.06167 -0.0308,-0.04111 -0.0308,-0.0925 v -2.615665 q 0,-0.334024 -0.0514,-0.524161 -0.0462,-0.190137 -0.13875,-0.323746 -0.0925,-0.138749 -0.24153,-0.210692 -0.14389,-0.07708 -0.33916,-0.07708 -0.24666,0 -0.49847,0.179859 -0.2518,0.179859 -0.52416,0.524161 v 3.047327 q 0,0.05139 -0.0308,0.0925 -0.0308,0.03597 -0.10792,0.06167 -0.0719,0.02569 -0.19527,0.03597 -0.12333,0.01542 -0.31347,0.01542 -0.19014,0 -0.31347,-0.01542 -0.12333,-0.01028 -0.20041,-0.03597 -0.0719,-0.02569 -0.10278,-0.06167 -0.0308,-0.04111 -0.0308,-0.0925 V 32.51354 q 0,-0.05139 0.0308,-0.0925 0.0308,-0.04111 0.10278,-0.06681 0.0771,-0.03083 0.20041,-0.04625 0.12333,-0.01542 0.31347,-0.01542 0.19014,0 0.31347,0.01542 0.12333,0.01542 0.19527,0.04625 0.0771,0.02569 0.10792,0.06681 0.0308,0.04111 0.0308,0.0925 v 2.533444 q 0.33403,-0.328885 0.67833,-0.488189 0.34944,-0.164443 0.72457,-0.164443 0.46764,0 0.78624,0.154165 0.32375,0.154165 0.51903,0.421384 0.20041,0.26722 0.28777,0.626938 0.0874,0.354579 0.0874,0.863323 z" />
      </g>
      <path
         sodipodi:nodetypes="ccccccscccsccccscccsccssccccccccccccccsscccccccscc"
         inkscape:connector-curvature="0"
         id="path840-3"
         d="m 14.853623,255.60127 c 0,-0.67958 0.582361,-2.38295 1.294191,-3.78537 4.245417,-8.36458 9.267554,-11.94265 12.90309,-9.19288 2.672427,2.02135 11.237546,0.12662 12.129369,-2.68346 0.622993,-1.96284 -0.114741,-2.52517 -2.758037,-2.10247 -4.552739,0.728 -5.842561,-2.33924 -3.856535,-9.17091 1.136763,-3.91035 2.047543,-4.77392 4.473021,-4.2412 5.628709,1.23626 7.666778,10.2915 4.079796,18.12651 -3.113709,6.80119 -7.986323,9.59896 -14.311576,8.21736 -6.719779,-1.46782 -6.638451,-1.47154 -8.585172,0.39057 -1.000485,0.95713 -2.367291,2.62602 -3.037345,3.70862 -1.388852,2.24396 -2.330802,2.54019 -2.330802,0.73294 z m 38.21312,-4.97506 c -3.773988,-1.38034 -4.612714,-3.31233 -4.503013,-10.3724 0.211172,-13.58823 3.288233,-31.264 5.442542,-31.264 0.57686,0 0.787502,0.382 0.583941,1.05985 -1.104016,3.67516 -2.273515,16.479 -2.090857,22.89098 0.269681,9.46764 0.931725,10.71734 5.53621,10.45066 4.040235,-0.23391 4.366095,-0.90213 5.257865,-10.78086 1.515507,-16.78824 4.167542,-20.23756 22.724881,-29.55632 3.997334,-2.00733 9.025186,-4.88258 11.172989,-6.38945 3.993859,-2.80207 4.876939,-2.9867 4.876939,-1.01972 0,2.56636 -8.281232,8.45593 -23.014984,16.36812 -7.038703,3.77987 -9.282853,5.40119 -10.43399,7.53814 -0.34773,0.64524 -0.858704,4.4324 -1.135445,8.41529 -0.577859,8.31657 -2.039558,16.8019 -3.321224,19.28036 -0.484936,0.93766 -1.506884,2.11454 -2.271091,2.61529 -1.947368,1.27596 -6.37667,1.65945 -8.824763,0.76406 z m -37.5714,-10.59745 c -1.146051,-0.58229 -2.178277,-1.36201 -2.293825,-1.73242 -0.115529,-0.37055 0.990678,-1.99982 2.458282,-3.62085 l 2.668379,-2.94728 2.182669,1.17545 2.182668,1.17538 2.17681,-2.54305 2.176803,-2.54311 2.382444,1.21544 c 1.310352,0.66884 2.38244,1.50036 2.38244,1.84859 0,1.8209 -3.827428,6.61005 -5.2827,6.61005 -0.449091,0 -1.436981,-0.40631 -2.195366,-0.90348 -1.296702,-0.84961 -1.501032,-0.77743 -3.428602,1.21136 -2.358801,2.43367 -2.601931,2.48102 -5.410002,1.05392 z m 19.097374,-19.92767 -2.973048,-2.70013 2.973048,-2.66429 c 1.635181,-1.46538 3.282003,-2.67654 3.659641,-2.69149 0.739041,-0.0286 5.067148,4.50352 5.067148,5.30678 0,0.46998 -2.99563,3.42692 -4.845258,4.78314 -0.72187,0.52935 -1.519207,0.1116 -3.881531,-2.03401 z"
         style="fill:#f57215;fill-opacity:1;stroke-width:0.60565698" />
      <path
         sodipodi:nodetypes="cccsccscccccccsscccccssscccccccccsscccccsscccccssccccccccccccsscccccccccsccccccssscccscssccccccccccccssssccccsssccccccccccccccccccsccccscccccc"
         style="fill:#000000;fill-opacity:1;stroke-width:0.33705771"
         d="m 25.952055,279.32982 c -4.950543,-1.40677 -5.99245,-7.73229 -1.642558,-9.9722 1.098671,-0.56574 2.325837,-0.81762 4.763302,-0.97774 1.805847,-0.11862 3.283353,-0.27866 3.283353,-0.3555 0,-0.32604 -0.804782,-1.63212 -1.145893,-1.85991 -0.725377,-0.48434 -3.752097,-0.23846 -5.210747,0.42357 -0.808114,0.36665 -1.521289,0.66671 -1.58483,0.66671 -0.06353,0 -0.58406,-0.681 -1.156713,-1.5133 l -1.041182,-1.51331 1.109256,-0.68468 c 1.885169,-1.16357 4.508935,-1.76255 7.129904,-1.62772 3.014857,0.15526 4.822245,1.03208 5.85509,2.84088 0.708541,1.24085 0.753161,1.71008 0.758379,7.97534 l 0.0055,6.65685 h -2.190878 c -2.112229,0 -2.190874,-0.0319 -2.190874,-0.84262 0,-1.01741 -0.363862,-1.07005 -1.177989,-0.17038 -0.627958,0.6939 -2.525229,1.36795 -3.709348,1.31783 -0.370749,-0.0159 -1.204979,-0.17954 -1.853819,-0.36387 z m 5.297778,-4.32277 c 0.202991,0 1.106319,-2.05045 1.106319,-2.51122 0,-0.41624 -0.429665,-0.5223 -2.115876,-0.5223 -2.405659,0 -3.614103,0.61244 -3.614103,1.83166 0,1.35851 1.535892,1.99603 3.536881,1.46807 0.554918,-0.1465 1.043972,-0.26632 1.086779,-0.26632 z m 39.114298,4.40048 c -2.974379,-0.95134 -4.887262,-3.55037 -4.536708,-6.16402 0.406842,-3.0332 2.713144,-4.51282 7.571691,-4.85769 3.359532,-0.23846 3.724171,-0.51853 2.399698,-1.84301 -0.598073,-0.59805 -1.015745,-0.68974 -2.612194,-0.57349 -1.04517,0.0761 -2.416558,0.3965 -3.047529,0.71192 -0.630971,0.31529 -1.255435,0.57347 -1.387703,0.57347 -0.296393,0 -2.015361,-2.56039 -2.015361,-3.0018 0,-0.17596 0.872134,-0.7464 1.938087,-1.26778 1.731868,-0.84717 2.299194,-0.94837 5.332052,-0.95143 3.139603,-0.003 3.498872,0.0661 4.793674,0.92208 2.400291,1.58707 2.572359,2.20818 2.708199,9.77614 l 0.119507,6.65685 h -2.389883 c -2.328101,0 -2.389882,-0.0199 -2.389882,-0.84739 v -0.84744 l -1.275163,0.84386 c -1.405841,0.93031 -3.779649,1.32671 -5.208468,0.86973 z m 4.276452,-4.20343 c 1.214173,-0.50733 1.870125,-1.3962 1.870125,-2.53428 0,-0.63104 -0.201878,-0.69629 -2.153541,-0.69629 -2.648346,0 -3.808713,0.71395 -3.454442,2.12546 0.157681,0.62828 0.545373,0.98394 1.314774,1.2062 0.60013,0.17318 1.133948,0.32883 1.186252,0.34555 0.05225,0.0159 0.608866,-0.18432 1.236832,-0.44664 z M 4.0433086,267.44088 v -11.94791 l 2.2751394,-1.84787 2.2751393,-1.84789 0.090488,7.72875 c 0.049764,4.25082 0.2014382,7.72866 0.3370708,7.72857 0.1356322,-1.2e-4 1.3562829,-1.21352 2.7125869,-2.69648 l 2.466008,-2.69625 h 2.842651 c 1.766292,0 2.842649,0.13457 2.842649,0.35511 0,0.19507 -1.370474,1.79359 -3.045502,3.55188 -1.886757,1.98055 -2.95346,3.35232 -2.803591,3.60539 0.133044,0.22453 1.649592,2.56993 3.370091,5.2116 l 3.12818,4.80308 -2.936786,-0.008 -2.936784,-0.008 -2.131664,-3.22931 -2.13166,-3.22926 -0.8175934,0.76809 c -0.7211135,0.67745 -0.8175932,1.05946 -0.8175932,3.23726 v 2.46918 H 6.4027376 4.0433329 Z m 38.0875164,5.20676 v -6.74115 h -1.011169 c -1.000962,0 -1.011177,-0.0199 -1.011177,-1.85383 0,-1.83508 0.01037,-1.85383 1.011177,-1.85383 0.877936,0 1.011412,-0.12222 1.013052,-0.92689 0.005,-2.51388 1.619028,-4.96681 3.811958,-5.79359 1.956795,-0.73771 4.653491,-0.28982 6.428523,1.06819 0.616978,0.47198 0.608371,0.53421 -0.284837,2.05833 -1.016279,1.73412 -1.077218,1.76601 -2.016846,1.05532 -1.367773,-1.03454 -2.884833,-0.21855 -2.884833,1.55156 0,0.98175 0.01113,0.98708 2.022347,0.98708 h 2.022347 v 1.85383 1.85383 H 49.20902 47.186673 v 6.74115 6.74113 H 44.65874 42.130807 Z m 12.808192,0 v -6.74115 h -1.01117 c -1.000963,0 -1.011177,-0.0199 -1.011177,-1.85383 0,-1.83508 0.01036,-1.85383 1.011177,-1.85383 0.887052,0 1.01117,-0.11784 1.01117,-0.96085 0,-2.3495 1.546193,-4.76915 3.612542,-5.65325 2.012891,-0.8613 4.769345,-0.4614 6.629814,0.96181 0.617038,0.47202 0.608558,0.53389 -0.281255,2.05224 -0.914729,1.5609 -0.920384,1.56409 -1.883452,1.06607 -0.531277,-0.27469 -1.190177,-0.49953 -1.464208,-0.49953 -0.807733,0 -1.557571,0.98517 -1.557571,2.04643 0,0.98175 0.01113,0.98708 2.022338,0.98708 h 2.022356 v 1.85383 1.85383 h -2.022356 -2.022338 v 6.74115 6.74113 h -2.527931 -2.527932 z m 30.672244,-5.22439 V 255.4577 h 2.527929 2.527936 v 4.03522 4.03521 l 1.566953,-0.83319 c 3.330811,-1.77098 7.278259,-0.60658 8.833251,2.6056 0.65983,1.36302 0.72269,2.04067 0.72269,7.79058 v 6.29765 h -2.325414 -2.325412 l -0.118238,-5.66097 c -0.130661,-6.25494 -0.413727,-7.22925 -2.204307,-7.58722 -1.226656,-0.24524 -3.175063,0.69126 -3.720559,1.78826 -0.279828,0.56276 -0.420664,2.60588 -0.423984,6.15127 l -0.0052,5.30866 h -2.52794 -2.527931 z"
         id="path928"
         inkscape:connector-curvature="0" />
    </g>
  </g>
</svg>
