<?xml version="1.0" encoding="UTF-8" standalone="no"?>
<!-- Created with Inkscape (http://www.inkscape.org/) -->

<svg
   xmlns:dc="http://purl.org/dc/elements/1.1/"
   xmlns:cc="http://creativecommons.org/ns#"
   xmlns:rdf="http://www.w3.org/1999/02/22-rdf-syntax-ns#"
   xmlns:svg="http://www.w3.org/2000/svg"
   xmlns="http://www.w3.org/2000/svg"
   xmlns:sodipodi="http://sodipodi.sourceforge.net/DTD/sodipodi-0.dtd"
   xmlns:inkscape="http://www.inkscape.org/namespaces/inkscape"
   width="768"
   height="768"
   viewBox="0 0 203.19999 203.20001"
   version="1.1"
   id="svg8"
   inkscape:version="0.92.5 (2060ec1f9f, 2020-04-08)"
   sodipodi:docname="logo-kaffah-square.svg"
   inkscape:export-filename="/home/bandithijo/dex/buletin-dakwah-kaffah/assets/images/icons/logo-kaffah-square.png"
   inkscape:export-xdpi="96"
   inkscape:export-ydpi="96">
  <defs
     id="defs2" />
  <sodipodi:namedview
     id="base"
     pagecolor="#ffffff"
     bordercolor="#666666"
     borderopacity="1.0"
     inkscape:pageopacity="0.0"
     inkscape:pageshadow="2"
     inkscape:zoom="0.64453125"
     inkscape:cx="317.09424"
     inkscape:cy="384"
     inkscape:document-units="mm"
     inkscape:current-layer="layer1"
     showgrid="false"
     inkscape:snap-global="true"
     units="px"
     inkscape:snap-page="true"
     inkscape:object-nodes="false" />
  <metadata
     id="metadata5">
    <rdf:RDF>
      <cc:Work
         rdf:about="">
        <dc:format>image/svg+xml</dc:format>
        <dc:type
           rdf:resource="http://purl.org/dc/dcmitype/StillImage" />
        <dc:title />
        <cc:license
           rdf:resource="http://creativecommons.org/licenses/by-nc-sa/4.0/" />
        <dc:creator>
          <cc:Agent>
            <dc:title>Rizqi Nur Assyaufi</dc:title>
          </cc:Agent>
        </dc:creator>
      </cc:Work>
      <cc:License
         rdf:about="http://creativecommons.org/licenses/by-nc-sa/4.0/">
        <cc:permits
           rdf:resource="http://creativecommons.org/ns#Reproduction" />
        <cc:permits
           rdf:resource="http://creativecommons.org/ns#Distribution" />
        <cc:requires
           rdf:resource="http://creativecommons.org/ns#Notice" />
        <cc:requires
           rdf:resource="http://creativecommons.org/ns#Attribution" />
        <cc:prohibits
           rdf:resource="http://creativecommons.org/ns#CommercialUse" />
        <cc:permits
           rdf:resource="http://creativecommons.org/ns#DerivativeWorks" />
        <cc:requires
           rdf:resource="http://creativecommons.org/ns#ShareAlike" />
      </cc:License>
    </rdf:RDF>
  </metadata>
  <g
     inkscape:label="Layer 1"
     inkscape:groupmode="layer"
     id="layer1"
     transform="translate(0,-93.799993)">
    <rect
       style="opacity:1;fill:#000000;fill-opacity:1;fill-rule:nonzero;stroke:none;stroke-width:0.70663381;stroke-linecap:round;stroke-linejoin:round;stroke-miterlimit:4;stroke-dasharray:none;stroke-dashoffset:0;stroke-opacity:1;paint-order:markers stroke fill"
       id="rect864"
       width="203.2"
       height="29.439884"
       x="0"
       y="267.56015" />
    <path
       style="fill:#f57215;fill-opacity:1;stroke-width:1.16286147"
       d="m 28.518958,217.51444 c 0,-1.30479 1.118133,-4.57526 2.484846,-7.26791 8.151202,-16.05999 17.793705,-22.92989 24.773935,-17.65033 5.13106,3.88099 21.576089,0.24311 23.288389,-5.15224 1.196147,-3.76865 -0.220302,-4.84833 -5.295431,-4.03674 -8.741259,1.39776 -11.217718,-4.49134 -7.404548,-17.60815 2.182585,-7.50787 3.931283,-9.16593 8.588201,-8.14311 10.807122,2.37362 14.720215,19.75969 7.833209,34.80291 -5.978322,13.05828 -15.333741,18.43 -27.478227,15.77733 -12.901977,-2.81822 -12.745827,-2.82536 -16.483532,0.74989 -1.920931,1.83769 -4.545199,5.04196 -5.831702,7.12055 -2.666596,4.30841 -4.47514,4.87717 -4.47514,1.40725 z m 73.369192,-9.55211 c -7.246055,-2.65025 -8.856409,-6.35968 -8.645784,-19.91501 0.405451,-26.0894 6.313408,-60.02688 10.449684,-60.02688 1.10757,0 1.512,0.73344 1.12116,2.03491 -2.11971,7.05631 -4.36514,31.63968 -4.01444,43.95068 0.51779,18.17787 1.78891,20.5773 10.62952,20.06527 7.75725,-0.44911 8.38291,-1.73209 10.0951,-20.69925 2.90978,-32.23342 8.00168,-38.85612 43.63178,-56.74814 7.67488,-3.85407 17.32836,-9.37455 21.45214,-12.26774 7.66821,-5.379979 9.36372,-5.734468 9.36372,-1.95787 0,4.92742 -15.89997,16.23539 -44.18877,31.4268 -13.51431,7.25735 -17.82308,10.37028 -20.03326,14.47323 -0.66764,1.23886 -1.64871,8.5102 -2.18006,16.15735 -1.10949,15.96782 -3.91595,32.25965 -6.37675,37.0183 -0.93107,1.8003 -2.89321,4.05991 -4.36049,5.02135 -3.73895,2.44985 -12.24321,3.18615 -16.94355,1.467 z M 29.75106,187.61522 c -2.200418,-1.11799 -4.182292,-2.61506 -4.404144,-3.32624 -0.221816,-0.71146 1.902102,-3.83966 4.719902,-6.95204 l 5.123288,-5.65877 4.190724,2.25686 4.190723,2.25673 4.179475,-4.88266 4.179462,-4.88277 4.574293,2.33365 c 2.515876,1.28417 4.574285,2.88069 4.574285,3.54929 0,3.49613 -7.348662,12.6913 -10.142784,12.6913 -0.862255,0 -2.759004,-0.78012 -4.215103,-1.73468 -2.489668,-1.63126 -2.881982,-1.49267 -6.582917,2.32581 -4.528898,4.67264 -4.995707,4.76356 -10.387204,2.02352 z m 36.66696,-38.26113 -5.708252,-5.18425 5.708252,-5.11543 c 3.139548,-2.81353 6.301446,-5.13896 7.026511,-5.16766 1.418959,-0.0549 9.728925,8.64676 9.728925,10.18901 0,0.90237 -5.75161,6.57969 -9.302896,9.18363 -1.38599,1.01636 -2.916878,0.21428 -7.45254,-3.9053 z"
       id="path840-3"
       inkscape:connector-curvature="0"
       sodipodi:nodetypes="ccccccscccsccccscccsccssccccccccccccccsscccccccscc" />
    <g
       aria-label="kaffah"
       style="font-style:normal;font-weight:normal;font-size:25.64711571px;line-height:1.25;font-family:sans-serif;letter-spacing:0px;word-spacing:0px;fill:#000000;fill-opacity:1;stroke:none;stroke-width:0.64117789"
       id="text836"
       transform="matrix(1.1159929,0,0,1.1159929,7.9049765,-68.367673)"
       inkscape:export-xdpi="96"
       inkscape:export-ydpi="96">
      <path
         d="M 8.2876137,297.05243 H 0.08053645 v -41.65601 l 8.20707725,-6.87917 v 28.78348 l 9.1372123,-9.73906 h 10.340918 l -11.216339,11.92761 11.654049,17.56315 h -9.739065 l -7.495797,-11.27105 -2.6809783,2.7904 z"
         style="font-style:normal;font-variant:normal;font-weight:bold;font-stretch:normal;font-size:54.71384811px;font-family:Montserrat;-inkscape-font-specification:'Montserrat Bold';stroke-width:0.64117789"
         id="path838"
         inkscape:connector-curvature="0"
         sodipodi:nodetypes="ccccccccccccc" />
      <path
         d="m 56.873372,297.05243 h -7.714653 v -3.5564 q -3.173403,3.99411 -7.878794,3.99411 -4.650677,0 -7.82408,-2.68098 -3.173404,-2.73569 -3.173404,-7.22223 0,-4.54125 3.282831,-6.78451 3.282831,-2.24327 8.973071,-2.24327 h 6.127951 v -0.16414 q 0,-4.70539 -4.97896,-4.70539 -2.13384,0 -4.541249,0.87542 -2.352696,0.82071 -3.994111,2.07912 l -3.665828,-5.30724 q 5.799668,-4.21297 13.240751,-4.21297 5.361958,0 8.754216,2.68098 3.392259,2.68098 3.392259,8.48065 z m -8.261791,-11.21634 v -1.42256 h -5.143102 q -4.924246,0 -4.924246,3.06398 0,1.5867 1.14899,2.46212 1.203705,0.82071 3.392259,0.82071 2.188554,0 3.829969,-1.31314 1.69613,-1.36784 1.69613,-3.61111 z"
         style="font-style:normal;font-variant:normal;font-weight:bold;font-stretch:normal;font-size:54.71384811px;font-family:Montserrat;-inkscape-font-specification:'Montserrat Bold';stroke-width:0.64117789"
         id="path840"
         inkscape:connector-curvature="0" />
      <path
         d="m 73.943995,265.92025 v 1.9697 h 7.1128 v 5.90909 h -7.1128 v 23.25339 h -8.261792 v -23.25339 h -3.446972 v -5.90909 h 3.446972 v -1.80556 q 0,-4.81482 2.899834,-7.60522 2.954548,-2.84512 7.276942,-2.84512 4.377108,0 7.933508,3.28283 l -2.954548,5.5261 q -1.805557,-2.07913 -3.994111,-2.07913 -1.258418,0 -2.079126,0.93013 -0.820707,0.87543 -0.820707,2.62627 z"
         style="font-style:normal;font-variant:normal;font-weight:bold;font-stretch:normal;font-size:54.71384811px;font-family:Montserrat;-inkscape-font-specification:'Montserrat Bold';stroke-width:0.64117789"
         id="path842"
         inkscape:connector-curvature="0" />
      <path
         d="m 95.938883,265.92025 v 1.9697 h 7.112797 v 5.90909 h -7.112797 v 23.25339 h -8.261791 v -23.25339 h -3.446973 v -5.90909 h 3.446973 v -1.80556 q 0,-4.81482 2.899834,-7.60522 2.954548,-2.84512 7.276942,-2.84512 4.377112,0 7.933512,3.28283 l -2.95455,5.5261 q -1.80556,-2.07913 -3.994113,-2.07913 -1.258419,0 -2.079126,0.93013 -0.820708,0.87543 -0.820708,2.62627 z"
         style="font-style:normal;font-variant:normal;font-weight:bold;font-stretch:normal;font-size:54.71384811px;font-family:Montserrat;-inkscape-font-specification:'Montserrat Bold';stroke-width:0.64117789"
         id="path844"
         inkscape:connector-curvature="0" />
      <path
         d="m 132.81591,297.05243 h -7.71466 v -3.5564 q -3.1734,3.99411 -7.87879,3.99411 -4.65068,0 -7.82408,-2.68098 -3.17341,-2.73569 -3.17341,-7.22223 0,-4.54125 3.28284,-6.78451 3.28283,-2.24327 8.97307,-2.24327 h 6.12795 v -0.16414 q 0,-4.70539 -4.97896,-4.70539 -2.13384,0 -4.54125,0.87542 -2.3527,0.82071 -3.99411,2.07912 l -3.66583,-5.30724 q 5.79967,-4.21297 13.24075,-4.21297 5.36196,0 8.75422,2.68098 3.39226,2.68098 3.39226,8.48065 z m -8.2618,-11.21634 v -1.42256 h -5.1431 q -4.92424,0 -4.92424,3.06398 0,1.5867 1.14899,2.46212 1.2037,0.82071 3.39226,0.82071 2.18855,0 3.82996,-1.31314 1.69613,-1.36784 1.69613,-3.61111 z"
         style="font-style:normal;font-variant:normal;font-weight:bold;font-stretch:normal;font-size:54.71384811px;font-family:Montserrat;-inkscape-font-specification:'Montserrat Bold';stroke-width:0.64117789"
         id="path846"
         inkscape:connector-curvature="0" />
      <path
         d="m 148.51877,281.18541 v 15.86702 h -8.20708 v -40.59768 h 8.20708 v 14.44446 q 3.72054,-3.77526 8.3165,-3.77526 4.65068,0 7.82408,3.28284 3.17341,3.28283 3.17341,8.75421 v 17.89143 h -8.20708 v -16.08587 q 0,-6.78452 -4.97896,-6.78452 -2.46212,0 -4.32239,1.80556 -1.80556,1.75084 -1.80556,5.19781 z"
         style="font-style:normal;font-variant:normal;font-weight:bold;font-stretch:normal;font-size:54.71384811px;font-family:Montserrat;-inkscape-font-specification:'Montserrat Bold';stroke-width:0.64117789"
         id="path848"
         inkscape:connector-curvature="0" />
    </g>
    <g
       aria-label="Buletin Dakwah"
       style="font-style:normal;font-weight:normal;font-size:24.08284569px;line-height:1.25;font-family:sans-serif;letter-spacing:0px;word-spacing:0px;fill:#ffffff;fill-opacity:1;stroke:none;stroke-width:0.60207117"
       id="text869">
      <path
         d="M 15.142734,291.47165 H 7.7733828 v -16.83391 h 6.5505342 q 1.709882,0 2.938107,0.40941 1.252308,0.40941 1.878462,1.10781 1.131894,1.30047 1.131894,2.93811 0,1.97479 -1.276391,2.9381 -0.433491,0.33716 -0.602071,0.43349 -0.16858,0.0722 -0.602071,0.26492 1.565385,0.33716 2.480533,1.42088 0.939231,1.05965 0.939231,2.64912 0,1.75804 -1.204143,3.10668 -1.396805,1.56539 -4.864734,1.56539 z m -3.612427,-10.01846 h 1.78213 q 1.565385,0 2.311954,-0.33716 0.770651,-0.33716 0.770651,-1.44498 0,-1.13189 -0.698403,-1.49313 -0.698402,-0.36124 -2.360119,-0.36124 h -1.806213 z m 0,6.83952 h 2.576864 q 1.613551,0 2.408285,-0.38532 0.818817,-0.40941 0.818817,-1.56539 0,-1.18006 -0.866983,-1.5413 -0.842899,-0.38532 -2.721361,-0.38532 h -2.215622 z"
         style="font-style:normal;font-variant:normal;font-weight:bold;font-stretch:normal;font-family:Montserrat;-inkscape-font-specification:'Montserrat Bold';fill:#ffffff;stroke-width:0.60207117"
         id="path823" />
      <path
         d="m 32.241508,285.4991 v -6.98402 h 3.636509 v 12.95657 h -3.636509 v -1.70988 q -1.34864,1.90254 -3.492013,1.90254 -2.11929,0 -3.564261,-1.32455 -1.444971,-1.34864 -1.444971,-3.97367 v -7.85101 h 3.63651 v 7.05627 q 0,2.98627 2.191539,2.98627 1.083728,0 1.878462,-0.77065 0.794734,-0.79473 0.794734,-2.28787 z"
         style="font-style:normal;font-variant:normal;font-weight:bold;font-stretch:normal;font-family:Montserrat;-inkscape-font-specification:'Montserrat Bold';fill:#ffffff;stroke-width:0.60207117"
         id="path825" />
      <path
         d="m 42.910195,291.47165 h -3.612427 v -17.86947 h 3.612427 z"
         style="font-style:normal;font-variant:normal;font-weight:bold;font-stretch:normal;font-family:Montserrat;-inkscape-font-specification:'Montserrat Bold';fill:#ffffff;stroke-width:0.60207117"
         id="path827" />
      <path
         d="m 57.552559,289.59319 q -2.191539,2.07112 -5.153729,2.07112 -2.938108,0 -4.864735,-1.80621 -1.926628,-1.8303 -1.926628,-4.88882 0,-3.05852 1.950711,-4.86473 1.974793,-1.80622 4.647989,-1.80622 2.673196,0 4.527575,1.61355 1.878462,1.61355 1.878462,4.43125 v 1.92662 h -9.440476 q 0.16858,1.05965 1.107811,1.73397 0.939231,0.67432 2.119291,0.67432 1.902544,0 3.13077,-1.27639 z m -2.600948,-5.9003 q -0.120414,-1.15598 -0.866982,-1.78213 -0.746568,-0.62615 -1.830296,-0.62615 -1.059646,0 -1.950711,0.65023 -0.891065,0.65024 -1.035562,1.75805 z"
         style="font-style:normal;font-variant:normal;font-weight:bold;font-stretch:normal;font-family:Montserrat;-inkscape-font-specification:'Montserrat Bold';fill:#ffffff;stroke-width:0.60207117"
         id="path829" />
      <path
         d="m 65.379426,281.11603 v 5.80396 q 0,0.74657 0.385325,1.18006 0.385326,0.40941 0.915148,0.40941 1.01148,0 1.709882,-0.91515 l 1.34864,2.5287 q -1.6858,1.5413 -3.564262,1.5413 -1.854379,0 -3.154852,-1.22822 -1.276391,-1.22823 -1.276391,-3.34752 v -5.97254 h -1.517219 v -2.60095 h 1.517219 v -3.87734 h 3.63651 v 3.87734 h 3.130769 v 2.60095 z"
         style="font-style:normal;font-variant:normal;font-weight:bold;font-stretch:normal;font-family:Montserrat;-inkscape-font-specification:'Montserrat Bold';fill:#ffffff;stroke-width:0.60207117"
         id="path831" />
      <path
         d="m 75.277443,291.47165 h -3.612427 v -12.95657 h 3.612427 z m -3.323432,-14.59421 q -0.602072,-0.62615 -0.602072,-1.51721 0,-0.89107 0.602072,-1.49314 0.626154,-0.62616 1.517219,-0.62616 0.891065,0 1.493136,0.62616 0.626154,0.60207 0.626154,1.49314 0,0.89106 -0.626154,1.51721 -0.602071,0.60208 -1.493136,0.60208 -0.891065,0 -1.517219,-0.60208 z"
         style="font-style:normal;font-variant:normal;font-weight:bold;font-stretch:normal;font-family:Montserrat;-inkscape-font-specification:'Montserrat Bold';fill:#ffffff;stroke-width:0.60207117"
         id="path833" />
      <path
         d="m 82.309632,284.2468 v 7.22485 h -3.612427 v -12.95657 h 3.612427 v 1.44497 q 1.637633,-1.66172 3.684675,-1.66172 2.047042,0 3.419764,1.44497 1.396805,1.44497 1.396805,3.85326 v 7.87509 h -3.612427 v -7.32119 q 0,-2.98627 -2.191539,-2.98627 -1.083728,0 -1.902544,0.79474 -0.794734,0.77065 -0.794734,2.28787 z"
         style="font-style:normal;font-variant:normal;font-weight:bold;font-stretch:normal;font-family:Montserrat;-inkscape-font-specification:'Montserrat Bold';fill:#ffffff;stroke-width:0.60207117"
         id="path835" />
      <path
         d="m 106.75371,274.63774 q 4.5035,0 6.91178,2.21562 2.40828,2.19154 2.40828,6.11704 0,3.92551 -2.36011,6.21338 -2.33604,2.28787 -7.15261,2.28787 h -5.7558 v -16.83391 z m 0.19267,13.51048 q 2.57686,0 3.94958,-1.30048 1.39681,-1.30047 1.39681,-3.781 0,-2.48054 -1.39681,-3.80509 -1.37272,-1.34864 -4.23858,-1.34864 h -2.09521 v 10.23521 z"
         style="font-style:normal;font-variant:normal;font-weight:bold;font-stretch:normal;font-family:Montserrat;-inkscape-font-specification:'Montserrat Bold';fill:#ffffff;stroke-width:0.60207117"
         id="path837" />
      <path
         d="m 129.80093,291.47165 h -3.39568 v -1.56539 q -1.39681,1.75805 -3.46793,1.75805 -2.04705,0 -3.44385,-1.18006 -1.39681,-1.20414 -1.39681,-3.17893 0,-1.99888 1.44498,-2.98628 1.44497,-0.98739 3.94958,-0.98739 h 2.69728 v -0.0722 q 0,-2.07113 -2.19154,-2.07113 -0.93923,0 -1.99887,0.38533 -1.03557,0.36124 -1.75805,0.91515 l -1.61355,-2.33604 q 2.55278,-1.85438 5.82805,-1.85438 2.36011,0 3.85325,1.18006 1.49314,1.18006 1.49314,3.73284 z m -3.63651,-4.93698 v -0.62616 h -2.26379 q -2.16746,0 -2.16746,1.34864 0,0.6984 0.50574,1.08373 0.52983,0.36124 1.49314,0.36124 0.96331,0 1.6858,-0.57799 0.74657,-0.60207 0.74657,-1.58946 z"
         style="font-style:normal;font-variant:normal;font-weight:bold;font-stretch:normal;font-family:Montserrat;-inkscape-font-specification:'Montserrat Bold';fill:#ffffff;stroke-width:0.60207117"
         id="path839" />
      <path
         d="m 136.71271,291.47165 h -3.61243 v -17.86947 h 3.61243 v 9.17556 l 4.02183,-4.28674 h 4.55166 l -4.93698,5.25006 5.12964,7.73059 h -4.28674 l -3.29935,-4.96107 -1.18006,1.22823 z"
         style="font-style:normal;font-variant:normal;font-weight:bold;font-stretch:normal;font-family:Montserrat;-inkscape-font-specification:'Montserrat Bold';fill:#ffffff;stroke-width:0.60207117"
         id="path841" />
      <path
         d="m 154.17275,291.47165 h -3.73284 l -4.40716,-12.95657 h 3.73284 l 2.5287,7.82692 2.52869,-7.82692 h 3.49202 l 2.5287,7.82692 2.52869,-7.82692 h 3.75693 l -4.40716,12.95657 h -3.75693 l -2.3842,-7.05627 z"
         style="font-style:normal;font-variant:normal;font-weight:bold;font-stretch:normal;font-family:Montserrat;-inkscape-font-specification:'Montserrat Bold';fill:#ffffff;stroke-width:0.60207117"
         id="path843" />
      <path
         d="m 180.0136,291.47165 h -3.39568 v -1.56539 q -1.39681,1.75805 -3.46793,1.75805 -2.04705,0 -3.44385,-1.18006 -1.39681,-1.20414 -1.39681,-3.17893 0,-1.99888 1.44497,-2.98628 1.44498,-0.98739 3.94959,-0.98739 h 2.69728 v -0.0722 q 0,-2.07113 -2.19154,-2.07113 -0.93923,0 -1.99888,0.38533 -1.03556,0.36124 -1.75804,0.91515 l -1.61355,-2.33604 q 2.55278,-1.85438 5.82805,-1.85438 2.36011,0 3.85325,1.18006 1.49314,1.18006 1.49314,3.73284 z m -3.63651,-4.93698 v -0.62616 h -2.26379 q -2.16746,0 -2.16746,1.34864 0,0.6984 0.50574,1.08373 0.52983,0.36124 1.49314,0.36124 0.96331,0 1.6858,-0.57799 0.74657,-0.60207 0.74657,-1.58946 z"
         style="font-style:normal;font-variant:normal;font-weight:bold;font-stretch:normal;font-family:Montserrat;-inkscape-font-specification:'Montserrat Bold';fill:#ffffff;stroke-width:0.60207117"
         id="path845" />
      <path
         d="m 186.92537,284.48762 v 6.98403 h -3.61243 v -17.86947 h 3.61243 v 6.35787 q 1.63763,-1.66172 3.66059,-1.66172 2.04704,0 3.44385,1.44497 1.3968,1.44497 1.3968,3.85326 v 7.87509 h -3.61242 v -7.08036 q 0,-2.98627 -2.19154,-2.98627 -1.08373,0 -1.90255,0.79473 -0.79473,0.77065 -0.79473,2.28787 z"
         style="font-style:normal;font-variant:normal;font-weight:bold;font-stretch:normal;font-family:Montserrat;-inkscape-font-specification:'Montserrat Bold';fill:#ffffff;stroke-width:0.60207117"
         id="path847" />
    </g>
  </g>
</svg>
