<?xml version="1.0" encoding="UTF-8" standalone="no"?>
<svg
   xmlns:dc="http://purl.org/dc/elements/1.1/"
   xmlns:cc="http://creativecommons.org/ns#"
   xmlns:rdf="http://www.w3.org/1999/02/22-rdf-syntax-ns#"
   xmlns:svg="http://www.w3.org/2000/svg"
   xmlns="http://www.w3.org/2000/svg"
   xmlns:sodipodi="http://sodipodi.sourceforge.net/DTD/sodipodi-0.dtd"
   xmlns:inkscape="http://www.inkscape.org/namespaces/inkscape"
   width="167"
   height="50"
   viewBox="0 0 167 50"
   version="1.1"
   id="svg4"
   sodipodi:docname="logo-kaffah-fanspage.svg"
   inkscape:version="0.92.4 (5da689c313, 2019-01-14)">
  <metadata
     id="metadata10">
    <rdf:RDF>
      <cc:Work
         rdf:about="">
        <dc:format>image/svg+xml</dc:format>
        <dc:type
           rdf:resource="http://purl.org/dc/dcmitype/StillImage" />
        <dc:title></dc:title>
      </cc:Work>
    </rdf:RDF>
  </metadata>
  <defs
     id="defs8" />
  <sodipodi:namedview
     pagecolor="#ffffff"
     bordercolor="#666666"
     borderopacity="1"
     objecttolerance="10"
     gridtolerance="10"
     guidetolerance="10"
     inkscape:pageopacity="0"
     inkscape:pageshadow="2"
     inkscape:window-width="640"
     inkscape:window-height="480"
     id="namedview6"
     showgrid="false"
     inkscape:zoom="1.1525841"
     inkscape:cx="150.11498"
     inkscape:cy="-38.31794"
     inkscape:current-layer="svg4" />
  <g
     id="g848"
     transform="matrix(0.03110356,0,0,0.03255208,-4.0188057,50.855264)">
    <rect
       ry="299.89633"
       rx="284.99292"
       y="-1562.2738"
       x="129.20758"
       height="1536"
       width="5369.1597"
       id="rect817"
       style="opacity:1;fill:#333333;fill-opacity:1;fill-rule:nonzero;stroke:none;stroke-width:50;stroke-linecap:round;stroke-linejoin:round;stroke-miterlimit:4;stroke-dasharray:none;stroke-dashoffset:0;stroke-opacity:1;paint-order:markers stroke fill" />
    <g
       transform="matrix(30.855447,0,0,30.855447,-514.25611,-2362.2564)"
       id="text878"
       style="font-style:normal;font-variant:normal;font-weight:normal;font-stretch:normal;font-size:10.52432728px;line-height:6.57770395px;font-family:Impact;-inkscape-font-specification:Impact;letter-spacing:0px;word-spacing:0px;fill:#ffffff;fill-opacity:1;stroke:none;stroke-width:0.26310816px;stroke-linecap:butt;stroke-linejoin:miter;stroke-opacity:1"
       aria-label="Bulet in Dakwah">
      <path
         inkscape:connector-curvature="0"
         id="path905"
         style="font-style:normal;font-variant:normal;font-weight:bold;font-stretch:normal;font-family:Calibri;-inkscape-font-specification:Calibri;fill:#ffffff;fill-opacity:1;stroke-width:0.26310816px"
         d="m 100.58302,37.451957 q 0,0.354579 -0.0976,0.642354 -0.0976,0.287775 -0.27236,0.508744 -0.16958,0.22097 -0.411104,0.380274 -0.236386,0.159304 -0.524161,0.26208 -0.287774,0.102777 -0.61666,0.154165 -0.323746,0.04625 -0.724575,0.04625 h -1.767758 q -0.169581,0 -0.287775,-0.09764 -0.113054,-0.102777 -0.113054,-0.328885 v -5.796602 q 0,-0.226109 0.113054,-0.323747 0.118194,-0.102777 0.287775,-0.102777 h 1.67012 q 0.611521,0 1.032905,0.102777 0.426523,0.102777 0.714298,0.313469 0.292913,0.205553 0.447075,0.524161 0.15417,0.318607 0.15417,0.750269 0,0.241525 -0.0617,0.457356 -0.0617,0.210692 -0.179857,0.385412 -0.118193,0.174721 -0.292913,0.30833 -0.169582,0.13361 -0.390551,0.215831 0.282635,0.05139 0.519022,0.179859 0.241529,0.128471 0.416249,0.334024 0.17986,0.200415 0.28263,0.472773 0.10278,0.272358 0.10278,0.611521 z m -1.747204,-2.800663 q 0,-0.200415 -0.06167,-0.359719 -0.06167,-0.159303 -0.184998,-0.26208 -0.123332,-0.107915 -0.313469,-0.164443 -0.184998,-0.05653 -0.498467,-0.05653 h -0.683464 v 1.726648 h 0.755408 q 0.292913,0 0.467634,-0.06681 0.17472,-0.07194 0.287774,-0.190137 0.118193,-0.123332 0.17472,-0.282636 0.05653,-0.164442 0.05653,-0.344301 z m 0.344301,2.846912 q 0,-0.231247 -0.07708,-0.411106 -0.07708,-0.184998 -0.226109,-0.30833 -0.149026,-0.123332 -0.380273,-0.190137 -0.231248,-0.06681 -0.601244,-0.06681 h -0.801657 v 1.891091 h 0.976378 q 0.282635,0 0.472772,-0.05653 0.195276,-0.06167 0.334024,-0.17472 0.143888,-0.118193 0.22097,-0.287774 0.08222,-0.174721 0.08222,-0.395691 z" />
      <path
         inkscape:connector-curvature="0"
         id="path907"
         style="font-style:normal;font-variant:normal;font-weight:bold;font-stretch:normal;font-family:Calibri;-inkscape-font-specification:Calibri;fill:#ffffff;fill-opacity:1;stroke-width:0.26310816px"
         d="m 105.93768,39.271103 q 0,0.05139 -0.0257,0.0925 -0.0257,0.03597 -0.0925,0.06167 -0.0617,0.02569 -0.16958,0.03597 -0.10278,0.01542 -0.26208,0.01542 -0.16959,0 -0.2775,-0.01542 -0.10278,-0.01028 -0.16444,-0.03597 -0.0617,-0.02569 -0.0874,-0.06167 -0.0257,-0.04111 -0.0257,-0.0925 v -0.529299 q -0.38027,0.411106 -0.77596,0.61666 -0.39055,0.205553 -0.81194,0.205553 -0.47277,0 -0.79652,-0.154165 -0.3186,-0.154165 -0.51902,-0.421384 -0.19527,-0.26722 -0.28263,-0.61666 -0.0822,-0.35458 -0.0822,-0.87874 v -2.805802 q 0,-0.05139 0.0257,-0.08736 0.0308,-0.04111 0.10278,-0.0668 0.0771,-0.02569 0.20041,-0.03597 0.12847,-0.01542 0.31347,-0.01542 0.19014,0 0.31347,0.01542 0.12333,0.01028 0.19527,0.03597 0.0771,0.02569 0.10792,0.0668 0.0308,0.03597 0.0308,0.08736 v 2.589971 q 0,0.359718 0.0463,0.549855 0.0462,0.190136 0.13875,0.328885 0.0976,0.13361 0.24153,0.210692 0.14902,0.07194 0.3443,0.07194 0.24666,0 0.49332,-0.179859 0.25181,-0.17986 0.53444,-0.524161 v -3.047327 q 0,-0.05139 0.0257,-0.08736 0.0308,-0.04111 0.10277,-0.0668 0.0771,-0.02569 0.20042,-0.03597 0.12333,-0.01542 0.31347,-0.01542 0.19013,0 0.31347,0.01542 0.12333,0.01028 0.19527,0.03597 0.072,0.02569 0.10278,0.0668 0.0308,0.03597 0.0308,0.08736 z" />
      <path
         inkscape:connector-curvature="0"
         id="path909"
         style="font-style:normal;font-variant:normal;font-weight:bold;font-stretch:normal;font-family:Calibri;-inkscape-font-specification:Calibri;fill:#ffffff;fill-opacity:1;stroke-width:0.26310816px"
         d="m 108.53793,39.271103 q 0,0.05139 -0.0308,0.0925 -0.0308,0.03597 -0.10792,0.06167 -0.0719,0.02569 -0.19527,0.03597 -0.12334,0.01542 -0.31347,0.01542 -0.19014,0 -0.31347,-0.01542 -0.12333,-0.01028 -0.20042,-0.03597 -0.0719,-0.02569 -0.10277,-0.06167 -0.0308,-0.04111 -0.0308,-0.0925 V 32.51354 q 0,-0.05139 0.0308,-0.0925 0.0308,-0.04111 0.10277,-0.06681 0.0771,-0.03083 0.20042,-0.04625 0.12333,-0.01542 0.31347,-0.01542 0.19013,0 0.31347,0.01542 0.12333,0.01542 0.19527,0.04625 0.0771,0.02569 0.10792,0.06681 0.0308,0.04111 0.0308,0.0925 z" />
      <path
         inkscape:connector-curvature="0"
         id="path911"
         style="font-style:normal;font-variant:normal;font-weight:bold;font-stretch:normal;font-family:Calibri;-inkscape-font-specification:Calibri;fill:#ffffff;fill-opacity:1;stroke-width:0.26310816px"
         d="m 114.06731,36.845575 q 0,0.236386 -0.10791,0.34944 -0.10278,0.113055 -0.28778,0.113055 h -2.79038 q 0,0.292913 0.0668,0.534438 0.072,0.236386 0.22097,0.405968 0.15417,0.164443 0.39055,0.251803 0.24153,0.08736 0.57555,0.08736 0.33917,0 0.59611,-0.04625 0.25694,-0.05139 0.44194,-0.107915 0.19013,-0.06167 0.31347,-0.107916 0.12333,-0.05139 0.20041,-0.05139 0.0463,0 0.0771,0.02056 0.0308,0.01542 0.0514,0.06167 0.0206,0.04625 0.0257,0.13361 0.0103,0.08222 0.0103,0.210692 0,0.113054 -0.005,0.195276 -0.005,0.07708 -0.0154,0.133609 -0.0103,0.05653 -0.0308,0.09764 -0.0206,0.03597 -0.0565,0.07194 -0.0308,0.03597 -0.17986,0.09764 -0.14903,0.06167 -0.38028,0.123332 -0.23124,0.05653 -0.5293,0.09764 -0.29805,0.04625 -0.63721,0.04625 -0.61152,0 -1.07402,-0.154165 -0.45735,-0.154165 -0.76568,-0.467634 -0.30833,-0.313469 -0.4625,-0.79138 -0.14902,-0.477911 -0.14902,-1.120265 0,-0.611521 0.1593,-1.09971 0.1593,-0.493328 0.4625,-0.832491 0.30319,-0.344302 0.73485,-0.524161 0.4368,-0.179859 0.98151,-0.179859 0.57555,0 0.98152,0.169582 0.41111,0.169581 0.67319,0.472772 0.26208,0.298052 0.38541,0.709159 0.12333,0.411106 0.12333,0.894157 z m -1.25387,-0.369996 q 0.0154,-0.544716 -0.22097,-0.853046 -0.23125,-0.313469 -0.71944,-0.313469 -0.24666,0 -0.43166,0.0925 -0.17986,0.0925 -0.30319,0.251803 -0.11819,0.154165 -0.185,0.369996 -0.0617,0.210692 -0.0719,0.452217 z" />
      <path
         inkscape:connector-curvature="0"
         id="path913"
         style="font-style:normal;font-variant:normal;font-weight:bold;font-stretch:normal;font-family:Calibri;-inkscape-font-specification:Calibri;fill:#ffffff;fill-opacity:1;stroke-width:0.26310816px"
         d="m 117.78783,38.818886 q 0,0.226109 -0.0308,0.349441 -0.0257,0.118193 -0.0719,0.169581 -0.0463,0.04625 -0.13875,0.08736 -0.0874,0.03597 -0.21069,0.06167 -0.11819,0.03083 -0.26208,0.04625 -0.13875,0.01542 -0.28264,0.01542 -0.38541,0 -0.66804,-0.09764 -0.28264,-0.09764 -0.46764,-0.298053 -0.185,-0.205553 -0.27236,-0.513883 -0.0874,-0.30833 -0.0874,-0.729714 v -2.348446 h -0.54985 q -0.0976,0 -0.14903,-0.118193 -0.0514,-0.123332 -0.0514,-0.405968 0,-0.149026 0.0103,-0.251803 0.0154,-0.102776 0.0411,-0.159303 0.0257,-0.06167 0.0617,-0.08736 0.0411,-0.02569 0.0925,-0.02569 h 0.54471 v -1.022627 q 0,-0.05139 0.0257,-0.0925 0.0308,-0.04111 0.10277,-0.06681 0.0771,-0.03083 0.20042,-0.04111 0.12847,-0.01542 0.31347,-0.01542 0.19013,0 0.31347,0.01542 0.12847,0.01028 0.20041,0.04111 0.0719,0.02569 0.10278,0.06681 0.0308,0.04111 0.0308,0.0925 v 1.022627 h 0.99693 q 0.0514,0 0.0874,0.02569 0.0411,0.0257 0.0668,0.08736 0.0257,0.05653 0.036,0.159303 0.0154,0.102777 0.0154,0.251803 0,0.282636 -0.0514,0.405968 -0.0514,0.118193 -0.14903,0.118193 h -1.00207 v 2.15317 q 0,0.375135 0.11819,0.565272 0.1182,0.184998 0.42139,0.184998 0.10277,0 0.185,-0.01542 0.0822,-0.02056 0.14388,-0.04111 0.0668,-0.02569 0.10792,-0.04111 0.0463,-0.02056 0.0822,-0.02056 0.0308,0 0.0565,0.02056 0.0308,0.01542 0.0463,0.07194 0.0154,0.05139 0.0257,0.143887 0.0154,0.0925 0.0154,0.236386 z" />
      <path
         inkscape:connector-curvature="0"
         id="path915"
         style="font-style:normal;font-variant:normal;font-weight:bold;font-stretch:normal;font-family:Calibri;-inkscape-font-specification:Calibri;fill:#ffffff;fill-opacity:1;stroke-width:0.26310816px"
         d="m 120.03547,39.271103 q 0,0.05139 -0.0308,0.0925 -0.0308,0.03597 -0.10791,0.06167 -0.072,0.02569 -0.19528,0.03597 -0.12333,0.01542 -0.31347,0.01542 -0.19013,0 -0.31347,-0.01542 -0.12333,-0.01028 -0.20041,-0.03597 -0.0719,-0.02569 -0.10278,-0.06167 -0.0308,-0.04111 -0.0308,-0.0925 v -4.57356 q 0,-0.05139 0.0308,-0.08736 0.0308,-0.04111 0.10278,-0.06681 0.0771,-0.03083 0.20041,-0.04625 0.12334,-0.01542 0.31347,-0.01542 0.19014,0 0.31347,0.01542 0.12333,0.01542 0.19528,0.04625 0.0771,0.02569 0.10791,0.06681 0.0308,0.03597 0.0308,0.08736 z m 0.0976,-6.135765 q 0,0.390552 -0.1593,0.539578 -0.1593,0.149026 -0.59097,0.149026 -0.4368,0 -0.59096,-0.143887 -0.14903,-0.143888 -0.14903,-0.519022 0,-0.390552 0.15417,-0.539578 0.1593,-0.154165 0.5961,-0.154165 0.43166,0 0.58583,0.149026 0.15416,0.143888 0.15416,0.519022 z" />
      <path
         inkscape:connector-curvature="0"
         id="path917"
         style="font-style:normal;font-variant:normal;font-weight:bold;font-stretch:normal;font-family:Calibri;-inkscape-font-specification:Calibri;fill:#ffffff;fill-opacity:1;stroke-width:0.26310816px"
         d="m 125.70874,39.271103 q 0,0.05139 -0.0308,0.0925 -0.0308,0.03597 -0.10277,0.06167 -0.072,0.02569 -0.20042,0.03597 -0.12333,0.01542 -0.30833,0.01542 -0.19013,0 -0.31861,-0.01542 -0.12333,-0.01028 -0.19527,-0.03597 -0.0719,-0.02569 -0.10278,-0.06167 -0.0308,-0.04111 -0.0308,-0.0925 v -2.615665 q 0,-0.334024 -0.0514,-0.524161 -0.0463,-0.190137 -0.13875,-0.323746 -0.0925,-0.138749 -0.24152,-0.210692 -0.14389,-0.07708 -0.33917,-0.07708 -0.24666,0 -0.49846,0.179859 -0.25181,0.179859 -0.52416,0.524161 v 3.047327 q 0,0.05139 -0.0308,0.0925 -0.0308,0.03597 -0.10791,0.06167 -0.072,0.02569 -0.19528,0.03597 -0.12333,0.01542 -0.31347,0.01542 -0.19013,0 -0.31346,-0.01542 -0.12334,-0.01028 -0.20042,-0.03597 -0.0719,-0.02569 -0.10278,-0.06167 -0.0308,-0.04111 -0.0308,-0.0925 v -4.583837 q 0,-0.05139 0.0257,-0.08736 0.0257,-0.04111 0.0925,-0.0668 0.0668,-0.02569 0.16959,-0.03597 0.10791,-0.01542 0.26722,-0.01542 0.16444,0 0.27235,0.01542 0.10792,0.01028 0.16445,0.03597 0.0617,0.02569 0.0874,0.0668 0.0257,0.03597 0.0257,0.08736 v 0.529299 q 0.38027,-0.411106 0.77082,-0.61666 0.39569,-0.205553 0.82222,-0.205553 0.46763,0 0.78624,0.154165 0.32375,0.154165 0.51902,0.421384 0.20042,0.262081 0.28778,0.61666 0.0874,0.354579 0.0874,0.853046 z" />
      <path
         inkscape:connector-curvature="0"
         id="path919"
         style="font-style:normal;font-variant:normal;font-weight:bold;font-stretch:normal;font-family:Calibri;-inkscape-font-specification:Calibri;fill:#ffffff;fill-opacity:1;stroke-width:0.26310816px"
         d="m 134.96891,36.023362 q 0,0.914712 -0.24153,1.567343 -0.23638,0.647493 -0.68346,1.0586 -0.44708,0.411106 -1.08943,0.606382 -0.63722,0.190137 -1.5211,0.190137 h -1.5879 q -0.16958,0 -0.28777,-0.09764 -0.11305,-0.102777 -0.11305,-0.328885 v -5.796602 q 0,-0.226109 0.11305,-0.323747 0.11819,-0.102777 0.28777,-0.102777 h 1.7061 q 0.88901,0 1.50567,0.210693 0.6218,0.205553 1.04319,0.616659 0.42652,0.405968 0.64749,1.007211 0.22097,0.601244 0.22097,1.392624 z m -1.39776,0.04625 q 0,-0.472772 -0.11306,-0.87874 -0.10791,-0.405968 -0.35458,-0.70402 -0.24152,-0.298052 -0.62693,-0.462495 -0.38028,-0.169581 -1.00208,-0.169581 h -0.68346 v 4.522172 h 0.70402 q 0.55499,0 0.93527,-0.143888 0.38027,-0.143887 0.63207,-0.431661 0.25695,-0.292914 0.38028,-0.724576 0.12847,-0.431662 0.12847,-1.007211 z" />
      <path
         inkscape:connector-curvature="0"
         id="path921"
         style="font-style:normal;font-variant:normal;font-weight:bold;font-stretch:normal;font-family:Calibri;-inkscape-font-specification:Calibri;fill:#ffffff;fill-opacity:1;stroke-width:0.26310816px"
         d="m 139.91247,39.28652 q 0,0.07194 -0.0514,0.113054 -0.0514,0.04111 -0.16445,0.05653 -0.10791,0.02056 -0.32374,0.02056 -0.23125,0 -0.33916,-0.02056 -0.10278,-0.01542 -0.14903,-0.05653 -0.0411,-0.04111 -0.0411,-0.113054 v -0.364857 q -0.28264,0.303191 -0.64749,0.472772 -0.35972,0.169582 -0.80166,0.169582 -0.36486,0 -0.67319,-0.09764 -0.30319,-0.0925 -0.5293,-0.277497 -0.22097,-0.190137 -0.3443,-0.467634 -0.12333,-0.277497 -0.12333,-0.647492 0,-0.400829 0.15416,-0.693743 0.15931,-0.298052 0.46764,-0.488189 0.31347,-0.195275 0.77596,-0.287774 0.46249,-0.0925 1.07402,-0.0925 h 0.44707 v -0.277497 q 0,-0.215831 -0.0462,-0.375135 -0.0411,-0.164442 -0.14388,-0.272358 -0.0976,-0.107915 -0.26722,-0.159304 -0.16444,-0.05139 -0.41111,-0.05139 -0.32374,0 -0.58069,0.07194 -0.2518,0.07194 -0.44707,0.159303 -0.19528,0.08736 -0.32889,0.159304 -0.12847,0.07194 -0.21069,0.07194 -0.0565,0 -0.10278,-0.03597 -0.0411,-0.03597 -0.0719,-0.102777 -0.0257,-0.0668 -0.0411,-0.164442 -0.0154,-0.09764 -0.0154,-0.215831 0,-0.159304 0.0257,-0.251803 0.0257,-0.0925 0.0976,-0.164443 0.0719,-0.07708 0.25181,-0.164442 0.17985,-0.0925 0.42138,-0.169582 0.24152,-0.07708 0.52416,-0.123332 0.28777,-0.05139 0.59097,-0.05139 0.53957,0 0.91985,0.107916 0.38541,0.102776 0.63207,0.323746 0.24667,0.215831 0.35972,0.560133 0.11306,0.344301 0.11306,0.817074 z m -1.2693,-1.963034 h -0.49332 q -0.31347,0 -0.53444,0.04625 -0.22097,0.04625 -0.35972,0.138748 -0.13875,0.0925 -0.20555,0.226109 -0.0617,0.128471 -0.0617,0.298052 0,0.287775 0.17986,0.452217 0.185,0.164443 0.50874,0.164443 0.27236,0 0.49847,-0.138749 0.23125,-0.138748 0.46763,-0.405967 z" />
      <path
         inkscape:connector-curvature="0"
         id="path923"
         style="font-style:normal;font-variant:normal;font-weight:bold;font-stretch:normal;font-family:Calibri;-inkscape-font-specification:Calibri;fill:#ffffff;fill-opacity:1;stroke-width:0.26310816px"
         d="m 145.46754,39.276242 q 0,0.05139 -0.0308,0.0925 -0.0257,0.03597 -0.10278,0.06167 -0.0719,0.02056 -0.20041,0.03083 -0.12847,0.01542 -0.33403,0.01542 -0.21069,0 -0.3443,-0.01028 -0.12847,-0.01028 -0.21583,-0.03083 -0.0822,-0.02569 -0.12847,-0.06681 -0.0463,-0.04111 -0.0822,-0.107915 l -1.52623,-2.415251 v 2.425528 q 0,0.05139 -0.0308,0.0925 -0.0308,0.03597 -0.10791,0.06167 -0.072,0.02569 -0.19528,0.03597 -0.12333,0.01542 -0.31347,0.01542 -0.19013,0 -0.31347,-0.01542 -0.12333,-0.01028 -0.20041,-0.03597 -0.0719,-0.02569 -0.10278,-0.06167 -0.0308,-0.04111 -0.0308,-0.0925 V 32.51354 q 0,-0.05139 0.0308,-0.0925 0.0308,-0.04111 0.10278,-0.06681 0.0771,-0.03083 0.20041,-0.04625 0.12334,-0.01542 0.31347,-0.01542 0.19014,0 0.31347,0.01542 0.12333,0.01542 0.19528,0.04625 0.0771,0.02569 0.10791,0.06681 0.0308,0.04111 0.0308,0.0925 v 4.023705 l 1.35665,-1.824285 q 0.0411,-0.06167 0.0925,-0.107916 0.0514,-0.04625 0.13361,-0.07194 0.0874,-0.02569 0.21069,-0.03597 0.12847,-0.01542 0.32374,-0.01542 0.19014,0 0.31861,0.01542 0.13361,0.01028 0.21069,0.03597 0.0822,0.02569 0.11306,0.0668 0.0308,0.03597 0.0308,0.0925 0,0.07708 -0.0411,0.164443 -0.036,0.08736 -0.11305,0.184998 l -1.34124,1.521094 1.55193,2.399834 q 0.0617,0.102777 0.0874,0.17986 0.0308,0.07194 0.0308,0.133609 z" />
      <path
         inkscape:connector-curvature="0"
         id="path925"
         style="font-style:normal;font-variant:normal;font-weight:bold;font-stretch:normal;font-family:Calibri;-inkscape-font-specification:Calibri;fill:#ffffff;fill-opacity:1;stroke-width:0.26310816px"
         d="m 153.27857,34.676988 q 0,0.05653 -0.0154,0.138748 -0.0154,0.08222 -0.0565,0.236387 l -1.22304,4.147037 q -0.0257,0.08736 -0.0668,0.143887 -0.0411,0.05139 -0.12848,0.08222 -0.0822,0.03083 -0.24152,0.04111 -0.15417,0.01028 -0.40597,0.01028 -0.2518,0 -0.41111,-0.01542 -0.1593,-0.01028 -0.2518,-0.04111 -0.0874,-0.03083 -0.12847,-0.08222 -0.0411,-0.05653 -0.0617,-0.138748 l -0.77083,-2.785247 -0.0103,-0.04625 -0.0103,0.04625 -0.70916,2.785247 q -0.0206,0.08736 -0.0617,0.143887 -0.036,0.05139 -0.12847,0.08222 -0.0925,0.03083 -0.2518,0.04111 -0.15931,0.01028 -0.41111,0.01028 -0.25694,0 -0.41624,-0.01542 -0.15417,-0.01028 -0.24667,-0.04111 -0.0874,-0.03083 -0.12847,-0.08222 -0.0411,-0.05653 -0.0617,-0.138748 l -1.21276,-4.147037 q -0.0462,-0.149027 -0.0617,-0.231248 -0.0103,-0.08736 -0.0103,-0.143887 0,-0.05139 0.0257,-0.08736 0.0308,-0.04111 0.10278,-0.06167 0.0771,-0.02569 0.20041,-0.03597 0.12847,-0.01028 0.31861,-0.01028 0.20555,0 0.33402,0.01028 0.12847,0.01028 0.20042,0.03597 0.0719,0.02569 0.0976,0.07194 0.0308,0.04111 0.0463,0.102777 l 0.90957,3.365935 0.0103,0.06167 0.0103,-0.06167 0.85305,-3.365935 q 0.0154,-0.06167 0.0463,-0.102777 0.036,-0.04625 0.10278,-0.07194 0.0668,-0.02569 0.18499,-0.03597 0.12334,-0.01028 0.31347,-0.01028 0.19014,0 0.30833,0.01542 0.1182,0.01028 0.185,0.03597 0.0719,0.02055 0.0976,0.06167 0.0308,0.03597 0.0463,0.08736 l 0.91471,3.391629 0.0154,0.05653 0.0103,-0.06167 0.87361,-3.365935 q 0.0103,-0.06167 0.0411,-0.102777 0.0308,-0.04625 0.10277,-0.07194 0.072,-0.02569 0.19528,-0.03597 0.12333,-0.01028 0.31347,-0.01028 0.19013,0 0.30833,0.01028 0.12333,0.01028 0.19013,0.03597 0.0719,0.02055 0.0976,0.06167 0.0257,0.03597 0.0257,0.08736 z" />
      <path
         inkscape:connector-curvature="0"
         id="path927"
         style="font-style:normal;font-variant:normal;font-weight:bold;font-stretch:normal;font-family:Calibri;-inkscape-font-specification:Calibri;fill:#ffffff;fill-opacity:1;stroke-width:0.26310816px"
         d="m 157.91893,39.28652 q 0,0.07194 -0.0514,0.113054 -0.0514,0.04111 -0.16444,0.05653 -0.10791,0.02056 -0.32375,0.02056 -0.23124,0 -0.33916,-0.02056 -0.10278,-0.01542 -0.14902,-0.05653 -0.0411,-0.04111 -0.0411,-0.113054 v -0.364857 q -0.28263,0.303191 -0.64749,0.472772 -0.35972,0.169582 -0.80166,0.169582 -0.36485,0 -0.67318,-0.09764 -0.30319,-0.0925 -0.5293,-0.277497 -0.22097,-0.190137 -0.3443,-0.467634 -0.12334,-0.277497 -0.12334,-0.647492 0,-0.400829 0.15417,-0.693743 0.1593,-0.298052 0.46763,-0.488189 0.31347,-0.195275 0.77597,-0.287774 0.46249,-0.0925 1.07401,-0.0925 h 0.44708 v -0.277497 q 0,-0.215831 -0.0462,-0.375135 -0.0411,-0.164442 -0.14389,-0.272358 -0.0976,-0.107915 -0.26722,-0.159304 -0.16444,-0.05139 -0.4111,-0.05139 -0.32375,0 -0.58069,0.07194 -0.2518,0.07194 -0.44708,0.159303 -0.19527,0.08736 -0.32888,0.159304 -0.12847,0.07194 -0.2107,0.07194 -0.0565,0 -0.10277,-0.03597 -0.0411,-0.03597 -0.072,-0.102777 -0.0257,-0.0668 -0.0411,-0.164442 -0.0154,-0.09764 -0.0154,-0.215831 0,-0.159304 0.0257,-0.251803 0.0257,-0.0925 0.0976,-0.164443 0.0719,-0.07708 0.2518,-0.164442 0.17986,-0.0925 0.42139,-0.169582 0.24152,-0.07708 0.52416,-0.123332 0.28777,-0.05139 0.59096,-0.05139 0.53958,0 0.91985,0.107916 0.38541,0.102776 0.63208,0.323746 0.24666,0.215831 0.35972,0.560133 0.11305,0.344301 0.11305,0.817074 z m -1.26929,-1.963034 h -0.49333 q -0.31347,0 -0.53444,0.04625 -0.22097,0.04625 -0.35971,0.138748 -0.13875,0.0925 -0.20556,0.226109 -0.0617,0.128471 -0.0617,0.298052 0,0.287775 0.17986,0.452217 0.18499,0.164443 0.50874,0.164443 0.27236,0 0.49847,-0.138749 0.23124,-0.138748 0.46763,-0.405967 z" />
      <path
         inkscape:connector-curvature="0"
         id="path929"
         style="font-style:normal;font-variant:normal;font-weight:bold;font-stretch:normal;font-family:Calibri;-inkscape-font-specification:Calibri;fill:#ffffff;fill-opacity:1;stroke-width:0.26310816px"
         d="m 163.5922,39.271103 q 0,0.05139 -0.0308,0.0925 -0.0308,0.03597 -0.10278,0.06167 -0.0719,0.02569 -0.20041,0.03597 -0.12334,0.01542 -0.30833,0.01542 -0.19014,0 -0.31861,-0.01542 -0.12333,-0.01028 -0.19528,-0.03597 -0.0719,-0.02569 -0.10277,-0.06167 -0.0308,-0.04111 -0.0308,-0.0925 v -2.615665 q 0,-0.334024 -0.0514,-0.524161 -0.0462,-0.190137 -0.13875,-0.323746 -0.0925,-0.138749 -0.24153,-0.210692 -0.14389,-0.07708 -0.33916,-0.07708 -0.24666,0 -0.49847,0.179859 -0.2518,0.179859 -0.52416,0.524161 v 3.047327 q 0,0.05139 -0.0308,0.0925 -0.0308,0.03597 -0.10792,0.06167 -0.0719,0.02569 -0.19527,0.03597 -0.12333,0.01542 -0.31347,0.01542 -0.19014,0 -0.31347,-0.01542 -0.12333,-0.01028 -0.20041,-0.03597 -0.0719,-0.02569 -0.10278,-0.06167 -0.0308,-0.04111 -0.0308,-0.0925 V 32.51354 q 0,-0.05139 0.0308,-0.0925 0.0308,-0.04111 0.10278,-0.06681 0.0771,-0.03083 0.20041,-0.04625 0.12333,-0.01542 0.31347,-0.01542 0.19014,0 0.31347,0.01542 0.12333,0.01542 0.19527,0.04625 0.0771,0.02569 0.10792,0.06681 0.0308,0.04111 0.0308,0.0925 v 2.533444 q 0.33403,-0.328885 0.67833,-0.488189 0.34944,-0.164443 0.72457,-0.164443 0.46764,0 0.78624,0.154165 0.32375,0.154165 0.51903,0.421384 0.20041,0.26722 0.28777,0.626938 0.0874,0.354579 0.0874,0.863323 z" />
    </g>
    <path
       sodipodi:nodetypes="ccccccscccsccccscccsccssccccccccccccccsscccccccscc"
       inkscape:connector-curvature="0"
       id="path840-3"
       d="m 379.41955,-164.952 c 0,-14.2154 12.18184,-49.8471 27.07218,-79.1833 88.80654,-174.9721 193.86079,-249.8191 269.90977,-192.2987 55.90249,42.283 235.0696,2.6486 253.725,-56.1333 13.0318,-41.059 -2.4002,-52.8219 -57.69326,-43.9798 -95.23531,15.2284 -122.21607,-48.933 -80.67195,-191.8393 23.77901,-81.7977 42.83099,-99.8619 93.56766,-88.7184 117.74275,25.8603 160.37545,215.28 85.34225,379.1744 -65.1334,142.2691 -167.0598,200.7934 -299.37303,171.8926 -140.56586,-30.704 -138.86466,-30.7818 -179.5865,8.1702 -20.92842,20.0214 -49.51964,54.9318 -63.53594,77.5778 -29.05228,46.9397 -48.75618,53.1363 -48.75618,15.3318 z m 799.35075,-104.0695 c -78.945,-28.874 -96.4898,-69.288 -94.1949,-216.9722 4.4173,-284.2418 68.7839,-653.9875 113.8482,-653.9875 12.0669,0 16.4732,7.9907 12.2151,22.1702 -23.0941,76.8777 -47.558,344.7114 -43.7371,478.8388 5.6413,198.0462 19.4901,224.1878 115.8077,218.6093 84.5146,-4.8932 91.3311,-18.8709 109.9853,-225.5166 31.7017,-351.18019 87.1776,-423.3338 475.3643,-618.266 83.6171,-41.9896 188.7909,-102.1348 233.7191,-133.656 83.5444,-58.6142 102.0167,-62.4764 102.0167,-21.3306 0,53.6838 -173.2285,176.8831 -481.4325,342.392 -147.2371,79.06837 -194.1809,112.98343 -218.2606,157.68459 -7.2739,13.49739 -17.9625,92.71811 -23.7515,176.03301 -12.0878,173.9681 -42.6639,351.466 -69.4742,403.311 -10.144,19.6144 -31.5212,44.2325 -47.5072,54.7072 -40.7354,26.6909 -133.3886,34.7128 -184.5984,15.9828 z M 392.84316,-490.7013 c -23.9734,-12.1807 -45.5657,-28.491 -47.98281,-36.2392 -2.4167,-7.7511 20.72329,-41.8326 51.42297,-75.7417 l 55.81772,-61.6521 45.65753,24.5886 45.65754,24.5867 45.53514,-53.196 45.53486,-53.1974 49.83643,25.42486 c 27.4103,13.99094 49.83642,31.38484 49.83642,38.66914 0,38.0899 -80.06295,138.2706 -110.50466,138.2706 -9.39429,0 -30.05916,-8.4993 -45.92325,-18.899 -27.12462,-17.7725 -31.39887,-16.2627 -71.72024,25.3393 -49.34195,50.908 -54.42775,51.8986 -113.16765,22.0462 z m 399.48325,-416.85156 -62.19093,-56.48203 62.19093,-55.73231 c 34.20504,-30.6531 68.65366,-55.9883 76.55323,-56.301 15.4594,-0.5983 105.99586,94.2055 105.99586,111.00824 0,9.83132 -62.6633,71.68527 -101.35427,100.05496 -15.10036,11.073 -31.77911,2.3343 -81.19482,-42.54786 z"
       style="fill:#f57215;fill-opacity:1;stroke-width:12.66927242" />
    <path
       sodipodi:nodetypes="cccsccscccccccsscccccssscccccccccsscccccsscccccssccccccccccccsscccccccccsccccccssscccscssccccccccccccssssccccsssccccccccccccccccccsccccscccccc"
       style="fill:#ffffff;fill-opacity:1;stroke-width:10.79535389"
       d="m 2800.4849,-255.3319 c -158.5571,-45.0561 -191.9274,-247.6513 -52.6083,-319.3915 35.1885,-18.1195 74.4925,-26.1866 152.5601,-31.315 57.8381,-3.7993 105.1599,-8.925 105.1599,-11.3861 0,-10.4424 -25.7757,-52.2741 -36.7009,-59.5698 -23.2325,-15.51219 -120.1729,-7.6374 -166.8907,13.5665 -25.8826,11.743 -48.7243,21.3532 -50.7594,21.3532 -2.0349,0 -18.7065,-21.8111 -37.0474,-48.468 l -33.3472,-48.46851 35.5275,-21.92961 c 60.3784,-37.26664 144.413,-56.45118 228.3581,-52.13262 96.5604,4.97283 154.4477,33.05553 187.5279,90.98858 22.6934,39.74176 24.1224,54.77036 24.2895,255.43536 l 0.1791,213.2072 h -70.1699 c -67.6508,0 -70.1697,-1.0204 -70.1697,-26.9875 0,-32.5862 -11.6539,-34.2719 -37.7288,-5.4571 -20.1124,22.2242 -80.8786,43.8131 -118.8039,42.2075 -11.8745,-0.5092 -38.5933,-5.7503 -59.3744,-11.6537 z m 169.6784,-138.4504 c 6.5014,0 35.4333,-65.6721 35.4333,-80.4296 0,-13.3316 -13.7614,-16.7284 -67.7677,-16.7284 -77.0489,0 -115.7532,19.6152 -115.7532,58.6648 0,43.5106 49.1918,63.9293 113.2799,47.0196 17.7731,-4.6923 33.4366,-8.5299 34.8077,-8.5299 z m 1252.7607,140.9394 c -95.2639,-30.4696 -156.5303,-113.712 -145.3026,-197.4223 13.0305,-97.1479 86.8972,-144.5374 242.5077,-155.5832 107.5998,-7.6374 119.2785,-16.6075 76.8581,-59.028 -19.1553,-19.1548 -32.5325,-22.0914 -83.6639,-18.3681 -33.4749,2.4351 -77.398,12.699 -97.607,22.8016 -20.2087,10.0982 -40.2093,18.3669 -44.4456,18.3669 -9.4929,0 -64.5483,-82.00453 -64.5483,-96.14204 0,-5.63567 27.9328,-23.90578 62.0733,-40.60492 55.4688,-27.13296 73.6392,-30.37427 170.7762,-30.47238 100.5558,-0.0934 112.0625,2.11666 153.5328,29.53255 76.877,50.83089 82.388,70.72417 86.7387,313.11209 l 3.8276,213.2072 h -76.5436 c -74.565,0 -76.5437,-0.6362 -76.5437,-27.1405 v -27.142 l -40.8413,27.0275 c -45.0264,29.7961 -121.0552,42.4919 -166.8178,27.8556 z m 136.9671,-134.6279 c 38.8879,-16.2489 59.8968,-44.718 59.8968,-81.1689 0,-20.2107 -6.4658,-22.3006 -68.9741,-22.3006 -84.8217,0 -121.9862,22.8668 -110.6396,68.0745 5.0503,20.1226 17.4674,31.5139 42.1099,38.6324 19.2211,5.5466 36.3183,10.532 37.9935,11.0674 1.6734,0.5092 19.501,-5.9035 39.6135,-14.3048 z m -2261.104,-248.642 v -382.6705 l 72.8686,-59.1838 72.8687,-59.1847 2.898,247.53801 c 1.5939,136.14622 6.4518,247.53529 10.7959,247.53239 4.344,0 43.4392,-38.8669 86.8792,-86.36338 l 78.9819,-86.35621 h 91.0449 c 56.5712,0 91.045,4.3099 91.045,11.37353 0,6.24778 -43.8938,57.4457 -97.542,113.76036 -60.4294,63.4335 -94.594,107.3689 -89.7939,115.4742 4.2611,7.1913 52.8335,82.3102 107.9379,166.9183 l 100.19,153.8338 -94.0599,-0.2536 -94.06,-0.2556 -68.2734,-103.4289 -68.2732,-103.4274 -26.1861,24.6006 c -23.0959,21.6975 -26.1861,33.9324 -26.1861,103.6838 v 79.0832 h -75.5673 -75.5675 z m 1219.8748,166.7627 v -215.9066 h -32.386 c -32.0589,0 -32.3862,-0.638 -32.3862,-59.37492 0,-58.77419 0.3323,-59.3748 32.3862,-59.3748 28.1188,0 32.3938,-3.91439 32.4463,-29.68672 0.1623,-80.51508 51.8546,-159.07795 122.0902,-185.55796 62.6726,-23.628 149.0429,-9.2825 205.8941,34.21172 19.7606,15.11681 19.485,17.1099 -9.1229,65.92473 -32.5495,55.54086 -34.5013,56.56216 -64.596,33.80025 -43.8073,-33.13483 -92.396,-7.00006 -92.396,49.69352 0,31.44377 0.3565,31.61446 64.7721,31.61446 h 64.7722 v 59.3748 59.37492 h -64.7722 -64.7721 v 215.9066 215.9066 h -80.9652 -80.965 z m 410.2234,0 v -215.9066 h -32.386 c -32.0589,0 -32.3861,-0.638 -32.3861,-59.37492 0,-58.77419 0.3318,-59.3748 32.3861,-59.3748 28.4108,0 32.386,-3.77412 32.386,-30.77433 0,-75.25027 49.5217,-152.74737 115.7033,-181.06345 64.4692,-27.5857 152.7536,-14.7779 212.341,30.80482 19.7626,15.11812 19.4911,17.09963 -9.0081,65.72997 -29.2971,49.9927 -29.4782,50.09475 -60.3235,34.14407 -17.016,-8.79766 -38.1193,-15.99919 -46.896,-15.99919 -25.8704,0 -49.8862,31.55345 -49.8862,65.54365 0,31.44377 0.3563,31.61446 64.7719,31.61446 h 64.7723 v 59.3748 59.37492 h -64.7723 -64.7719 v 215.9066 215.9066 h -80.9651 -80.9652 z m 982.3771,-167.3274 v -383.2354 h 80.9649 80.9653 v 129.24081 129.24061 l 50.1867,-26.68527 c 106.6799,-56.72157 233.1095,-19.42781 282.9134,83.45262 21.1332,43.65513 23.1464,65.35883 23.1464,249.51803 v 201.7026 h -74.479 -74.4788 l -3.7868,-181.3107 c -4.185,-200.3346 -13.2511,-231.54 -70.6001,-243.0052 -39.2877,-7.8545 -101.6916,22.14 -119.1629,57.275 -8.9624,18.024 -13.4731,83.4617 -13.5794,197.0142 l -0.1679,170.0267 h -80.9655 -80.965 z"
       id="path928"
       inkscape:connector-curvature="0" />
  </g>
</svg>
