<?xml version="1.0" encoding="UTF-8" standalone="no"?>
<svg
   xmlns:dc="http://purl.org/dc/elements/1.1/"
   xmlns:cc="http://creativecommons.org/ns#"
   xmlns:rdf="http://www.w3.org/1999/02/22-rdf-syntax-ns#"
   xmlns:svg="http://www.w3.org/2000/svg"
   xmlns="http://www.w3.org/2000/svg"
   xmlns:sodipodi="http://sodipodi.sourceforge.net/DTD/sodipodi-0.dtd"
   xmlns:inkscape="http://www.inkscape.org/namespaces/inkscape"
   sodipodi:docname="logo-kaffah.svg"
   inkscape:version="0.92.5 (2060ec1f9f, 2020-04-08)"
   id="svg8"
   version="1.1"
   viewBox="0 0 167.94982 92.604173"
   height="350"
   width="634.771"
   inkscape:export-filename="/home/bandithijo/dex/buletin-dakwah-kaffah/assets/images/icons/logo-kaffah.png"
   inkscape:export-xdpi="96"
   inkscape:export-ydpi="96">
  <defs
     id="defs2" />
  <sodipodi:namedview
     inkscape:window-maximized="0"
     inkscape:window-y="16"
     inkscape:window-x="0"
     inkscape:window-height="752"
     inkscape:window-width="1024"
     inkscape:object-nodes="false"
     inkscape:snap-others="true"
     inkscape:document-rotation="0"
     inkscape:showpageshadow="false"
     inkscape:snap-page="true"
     units="px"
     inkscape:snap-global="true"
     showgrid="false"
     inkscape:current-layer="layer1"
     inkscape:document-units="mm"
     inkscape:cy="75.622936"
     inkscape:cx="322.35435"
     inkscape:zoom="0.80501473"
     inkscape:pageshadow="2"
     inkscape:pageopacity="0.0"
     borderopacity="1.0"
     bordercolor="#666666"
     pagecolor="#ffffff"
     id="base"
     inkscape:snap-bbox="true" />
  <metadata
     id="metadata5">
    <rdf:RDF>
      <cc:Work
         rdf:about="">
        <dc:format>image/svg+xml</dc:format>
        <dc:type
           rdf:resource="http://purl.org/dc/dcmitype/StillImage" />
        <dc:title />
        <dc:creator>
          <cc:Agent>
            <dc:title>Rizqi Nur Assyaufi</dc:title>
          </cc:Agent>
        </dc:creator>
        <cc:license
           rdf:resource="http://creativecommons.org/licenses/by-nc-sa/4.0/" />
      </cc:Work>
      <cc:License
         rdf:about="http://creativecommons.org/licenses/by-nc-sa/4.0/">
        <cc:permits
           rdf:resource="http://creativecommons.org/ns#Reproduction" />
        <cc:permits
           rdf:resource="http://creativecommons.org/ns#Distribution" />
        <cc:requires
           rdf:resource="http://creativecommons.org/ns#Notice" />
        <cc:requires
           rdf:resource="http://creativecommons.org/ns#Attribution" />
        <cc:prohibits
           rdf:resource="http://creativecommons.org/ns#CommercialUse" />
        <cc:permits
           rdf:resource="http://creativecommons.org/ns#DerivativeWorks" />
        <cc:requires
           rdf:resource="http://creativecommons.org/ns#ShareAlike" />
      </cc:License>
    </rdf:RDF>
  </metadata>
  <g
     transform="translate(0,-204.39583)"
     id="layer1"
     inkscape:groupmode="layer"
     inkscape:label="Layer 1">
    <g
       id="g882">
      <path
         style="fill:#f57215;fill-opacity:1;stroke-width:0.57009774"
         d="m 14.733285,262.06242 c 0,-0.63967 0.548169,-2.24304 1.218207,-3.56313 3.996161,-7.87347 8.723438,-11.24147 12.145525,-8.65314 2.515524,1.90267 10.577768,0.11918 11.417231,-2.52591 0.586415,-1.8476 -0.108004,-2.37691 -2.596107,-1.97903 -4.28544,0.68526 -5.499534,-2.2019 -3.630111,-8.63247 1.070021,-3.68077 1.927327,-4.49363 4.210401,-3.99219 5.298237,1.16368 7.216648,9.68727 3.840264,17.06227 -2.930897,6.40188 -7.517431,9.03539 -13.471317,7.7349 -6.325248,-1.38164 -6.248695,-1.38514 -8.08112,0.36764 -0.941745,0.90093 -2.228303,2.47184 -2.859017,3.49089 -1.30731,2.11221 -2.193956,2.39104 -2.193956,0.6899 z m 35.969556,-4.68297 c -3.55241,-1.29929 -4.341893,-3.11785 -4.238633,-9.76341 0.198774,-12.79044 3.095175,-29.42843 5.123,-29.42843 0.542992,0 0.741266,0.35957 0.549657,0.99763 -1.039197,3.45938 -2.140032,15.51148 -1.968099,21.547 0.253847,8.91177 0.877022,10.08811 5.211169,9.83708 3.803025,-0.22018 4.109754,-0.84916 4.949166,-10.14789 1.426528,-15.80257 3.922858,-19.04937 21.39066,-27.82102 3.762644,-1.88947 8.495301,-4.59591 10.517002,-6.01431 3.759367,-2.63755 4.590593,-2.81135 4.590593,-0.95985 0,2.41569 -7.795013,7.95947 -21.663719,15.40711 -6.625448,3.55796 -8.737839,5.08408 -9.821391,7.09557 -0.327314,0.60736 -0.808288,4.17217 -1.06878,7.92121 -0.543933,7.82829 -1.919812,15.81543 -3.12623,18.14837 -0.456464,0.88262 -1.418412,1.9904 -2.137751,2.46175 -1.833034,1.20104 -6.002283,1.56202 -8.306644,0.71919 z M 15.337328,247.4042 c -1.078764,-0.5481 -2.050386,-1.28204 -2.15915,-1.6307 -0.108746,-0.34879 0.932513,-1.88241 2.313952,-3.40826 l 2.511713,-2.77425 2.054521,1.10644 2.054519,1.10637 2.049005,-2.39374 2.048999,-2.3938 2.242567,1.14408 c 1.233418,0.62957 2.242562,1.41227 2.242562,1.74005 0,1.71399 -3.602712,6.22197 -4.972543,6.22197 -0.422724,0 -1.352613,-0.38246 -2.066471,-0.85043 -1.220571,-0.79974 -1.412904,-0.73179 -3.227303,1.14023 -2.220311,2.29078 -2.449167,2.33536 -5.092371,0.99204 z m 17.976132,-18.75767 -2.798495,-2.54161 2.798495,-2.50786 c 1.539176,-1.37935 3.08931,-2.51939 3.444776,-2.53346 0.695651,-0.0269 4.769646,4.2391 4.769646,4.9952 0,0.44239 -2.819751,3.22572 -4.560783,4.50232 -0.679488,0.49826 -1.430012,0.10504 -3.653639,-1.91459 z"
         id="path840-3"
         inkscape:connector-curvature="0"
         sodipodi:nodetypes="ccccccscccsccccscccsccssccccccccccccccsscccccccscc" />
      <g
         inkscape:export-ydpi="96"
         inkscape:export-xdpi="96"
         transform="matrix(1.0009796,0,0,1.0009796,-7.8895614e-5,-0.8205958)"
         id="text836"
         style="font-style:normal;font-weight:normal;font-size:25.64711571px;line-height:1.25;font-family:sans-serif;letter-spacing:0px;word-spacing:0px;fill:#000000;fill-opacity:1;stroke:none;stroke-width:0.64117789"
         aria-label="kaffah">
        <path
           sodipodi:nodetypes="ccccccccccccc"
           inkscape:connector-curvature="0"
           id="path838"
           style="font-style:normal;font-variant:normal;font-weight:bold;font-stretch:normal;font-size:54.71384811px;font-family:Montserrat;-inkscape-font-specification:'Montserrat Bold';stroke-width:0.64117789"
           d="M 8.2876137,297.05243 H 0.08053645 v -41.65601 l 8.20707725,-6.87917 v 28.78348 l 9.1372123,-9.73906 h 10.340918 l -11.216339,11.92761 11.654049,17.56315 h -9.739065 l -7.495797,-11.27105 -2.6809783,2.7904 z" />
        <path
           inkscape:connector-curvature="0"
           id="path840"
           style="font-style:normal;font-variant:normal;font-weight:bold;font-stretch:normal;font-size:54.71384811px;font-family:Montserrat;-inkscape-font-specification:'Montserrat Bold';stroke-width:0.64117789"
           d="m 56.873372,297.05243 h -7.714653 v -3.5564 q -3.173403,3.99411 -7.878794,3.99411 -4.650677,0 -7.82408,-2.68098 -3.173404,-2.73569 -3.173404,-7.22223 0,-4.54125 3.282831,-6.78451 3.282831,-2.24327 8.973071,-2.24327 h 6.127951 v -0.16414 q 0,-4.70539 -4.97896,-4.70539 -2.13384,0 -4.541249,0.87542 -2.352696,0.82071 -3.994111,2.07912 l -3.665828,-5.30724 q 5.799668,-4.21297 13.240751,-4.21297 5.361958,0 8.754216,2.68098 3.392259,2.68098 3.392259,8.48065 z m -8.261791,-11.21634 v -1.42256 h -5.143102 q -4.924246,0 -4.924246,3.06398 0,1.5867 1.14899,2.46212 1.203705,0.82071 3.392259,0.82071 2.188554,0 3.829969,-1.31314 1.69613,-1.36784 1.69613,-3.61111 z" />
        <path
           inkscape:connector-curvature="0"
           id="path842"
           style="font-style:normal;font-variant:normal;font-weight:bold;font-stretch:normal;font-size:54.71384811px;font-family:Montserrat;-inkscape-font-specification:'Montserrat Bold';stroke-width:0.64117789"
           d="m 73.943995,265.92025 v 1.9697 h 7.1128 v 5.90909 h -7.1128 v 23.25339 h -8.261792 v -23.25339 h -3.446972 v -5.90909 h 3.446972 v -1.80556 q 0,-4.81482 2.899834,-7.60522 2.954548,-2.84512 7.276942,-2.84512 4.377108,0 7.933508,3.28283 l -2.954548,5.5261 q -1.805557,-2.07913 -3.994111,-2.07913 -1.258418,0 -2.079126,0.93013 -0.820707,0.87543 -0.820707,2.62627 z" />
        <path
           inkscape:connector-curvature="0"
           id="path844"
           style="font-style:normal;font-variant:normal;font-weight:bold;font-stretch:normal;font-size:54.71384811px;font-family:Montserrat;-inkscape-font-specification:'Montserrat Bold';stroke-width:0.64117789"
           d="m 95.938883,265.92025 v 1.9697 h 7.112797 v 5.90909 h -7.112797 v 23.25339 h -8.261791 v -23.25339 h -3.446973 v -5.90909 h 3.446973 v -1.80556 q 0,-4.81482 2.899834,-7.60522 2.954548,-2.84512 7.276942,-2.84512 4.377112,0 7.933512,3.28283 l -2.95455,5.5261 q -1.80556,-2.07913 -3.994113,-2.07913 -1.258419,0 -2.079126,0.93013 -0.820708,0.87543 -0.820708,2.62627 z" />
        <path
           inkscape:connector-curvature="0"
           id="path846"
           style="font-style:normal;font-variant:normal;font-weight:bold;font-stretch:normal;font-size:54.71384811px;font-family:Montserrat;-inkscape-font-specification:'Montserrat Bold';stroke-width:0.64117789"
           d="m 132.81591,297.05243 h -7.71466 v -3.5564 q -3.1734,3.99411 -7.87879,3.99411 -4.65068,0 -7.82408,-2.68098 -3.17341,-2.73569 -3.17341,-7.22223 0,-4.54125 3.28284,-6.78451 3.28283,-2.24327 8.97307,-2.24327 h 6.12795 v -0.16414 q 0,-4.70539 -4.97896,-4.70539 -2.13384,0 -4.54125,0.87542 -2.3527,0.82071 -3.99411,2.07912 l -3.66583,-5.30724 q 5.79967,-4.21297 13.24075,-4.21297 5.36196,0 8.75422,2.68098 3.39226,2.68098 3.39226,8.48065 z m -8.2618,-11.21634 v -1.42256 h -5.1431 q -4.92424,0 -4.92424,3.06398 0,1.5867 1.14899,2.46212 1.2037,0.82071 3.39226,0.82071 2.18855,0 3.82996,-1.31314 1.69613,-1.36784 1.69613,-3.61111 z" />
        <path
           inkscape:connector-curvature="0"
           id="path848"
           style="font-style:normal;font-variant:normal;font-weight:bold;font-stretch:normal;font-size:54.71384811px;font-family:Montserrat;-inkscape-font-specification:'Montserrat Bold';stroke-width:0.64117789"
           d="m 148.51877,281.18541 v 15.86702 h -8.20708 v -40.59768 h 8.20708 v 14.44446 q 3.72054,-3.77526 8.3165,-3.77526 4.65068,0 7.82408,3.28284 3.17341,3.28283 3.17341,8.75421 v 17.89143 h -8.20708 v -16.08587 q 0,-6.78452 -4.97896,-6.78452 -2.46212,0 -4.32239,1.80556 -1.80556,1.75084 -1.80556,5.19781 z" />
      </g>
      <g
         id="text869"
         style="font-style:normal;font-weight:normal;font-size:11.80771351px;line-height:1.25;font-family:sans-serif;letter-spacing:0px;word-spacing:0px;fill:#000000;fill-opacity:1;stroke:none;stroke-width:0.29519284"
         aria-label="Buletin Dakwah">
        <path
           id="path833"
           style="font-style:normal;font-variant:normal;font-weight:bold;font-stretch:normal;font-family:Montserrat;-inkscape-font-specification:'Montserrat Bold';stroke-width:0.29519284"
           d="m 79.701339,245.6302 h -3.61316 v -8.25359 h 3.211698 q 0.838348,0 1.440541,0.20073 0.614001,0.20073 0.921002,0.54316 0.554962,0.63761 0.554962,1.44054 0,0.96823 -0.625808,1.44054 -0.212539,0.16531 -0.295193,0.21254 -0.08265,0.0354 -0.295193,0.12988 0.767501,0.16531 1.216194,0.69666 0.460501,0.51954 0.460501,1.29885 0,0.86196 -0.590385,1.52319 -0.684848,0.7675 -2.385159,0.7675 z m -1.771157,-4.91201 h 0.873771 q 0.767502,0 1.133541,-0.1653 0.377847,-0.16531 0.377847,-0.70847 0,-0.55496 -0.342424,-0.73207 -0.342424,-0.17712 -1.157156,-0.17712 h -0.885579 z m 0,3.3534 h 1.263426 q 0.791117,0 1.180771,-0.18893 0.401462,-0.20073 0.401462,-0.7675 0,-0.57858 -0.425077,-0.75569 -0.41327,-0.18893 -1.334272,-0.18893 h -1.08631 z" />
        <path
           id="path835"
           style="font-style:normal;font-variant:normal;font-weight:bold;font-stretch:normal;font-family:Montserrat;-inkscape-font-specification:'Montserrat Bold';stroke-width:0.29519284"
           d="m 88.084794,242.70189 v -3.42424 h 1.782965 v 6.35255 h -1.782965 v -0.83834 q -0.661232,0.9328 -1.712118,0.9328 -1.039079,0 -1.747542,-0.64942 -0.708463,-0.66123 -0.708463,-1.94827 v -3.84932 h 1.782965 v 3.45966 q 0,1.46416 1.074502,1.46416 0.531347,0 0.921002,-0.37785 0.389654,-0.38965 0.389654,-1.12173 z" />
        <path
           id="path837"
           style="font-style:normal;font-variant:normal;font-weight:bold;font-stretch:normal;font-family:Montserrat;-inkscape-font-specification:'Montserrat Bold';stroke-width:0.29519284"
           d="m 93.315604,245.6302 h -1.771157 v -8.76132 h 1.771157 z" />
        <path
           id="path839"
           style="font-style:normal;font-variant:normal;font-weight:bold;font-stretch:normal;font-family:Montserrat;-inkscape-font-specification:'Montserrat Bold';stroke-width:0.29519284"
           d="m 100.49469,244.7092 q -1.0745,1.01546 -2.526849,1.01546 -1.440541,0 -2.385158,-0.88557 -0.944617,-0.89739 -0.944617,-2.39697 0,-1.49958 0.956425,-2.38516 0.968232,-0.88558 2.278888,-0.88558 1.310657,0 2.219851,0.79112 0.921,0.79112 0.921,2.17262 v 0.94462 h -4.628622 q 0.08265,0.51954 0.543154,0.85015 0.460501,0.33062 1.039079,0.33062 0.93281,0 1.535003,-0.62581 z m -1.275231,-2.89289 q -0.05904,-0.56677 -0.425078,-0.87377 -0.366039,-0.307 -0.897386,-0.307 -0.519539,0 -0.956425,0.31881 -0.436885,0.31881 -0.507732,0.86196 z" />
        <path
           id="path841"
           style="font-style:normal;font-variant:normal;font-weight:bold;font-stretch:normal;font-family:Montserrat;-inkscape-font-specification:'Montserrat Bold';stroke-width:0.29519284"
           d="m 104.33217,240.55289 v 2.84566 q 0,0.36603 0.18892,0.57857 0.18893,0.20073 0.4487,0.20073 0.49592,0 0.83834,-0.44869 l 0.66124,1.23981 q -0.82654,0.75569 -1.74755,0.75569 -0.90919,0 -1.54681,-0.60219 -0.6258,-0.60219 -0.6258,-1.64127 v -2.92831 h -0.74389 v -1.27524 h 0.74389 v -1.90104 h 1.78296 v 1.90104 h 1.535 v 1.27524 z" />
        <path
           id="path843"
           style="font-style:normal;font-variant:normal;font-weight:bold;font-stretch:normal;font-family:Montserrat;-inkscape-font-specification:'Montserrat Bold';stroke-width:0.29519284"
           d="m 109.18513,245.6302 h -1.77116 v -6.35255 h 1.77116 z m -1.62947,-7.15547 q -0.29519,-0.307 -0.29519,-0.74389 0,-0.43688 0.29519,-0.73208 0.307,-0.307 0.74389,-0.307 0.43688,0 0.73208,0.307 0.307,0.2952 0.307,0.73208 0,0.43689 -0.307,0.74389 -0.2952,0.29519 -0.73208,0.29519 -0.43689,0 -0.74389,-0.29519 z" />
        <path
           id="path845"
           style="font-style:normal;font-variant:normal;font-weight:bold;font-stretch:normal;font-family:Montserrat;-inkscape-font-specification:'Montserrat Bold';stroke-width:0.29519284"
           d="m 112.63298,242.08789 v 3.54231 h -1.77116 v -6.35255 h 1.77116 v 0.70847 q 0.80292,-0.81474 1.80658,-0.81474 1.00365,0 1.67669,0.70847 0.68485,0.70846 0.68485,1.88923 v 3.86112 h -1.77116 v -3.58954 q 0,-1.46416 -1.0745,-1.46416 -0.53135,0 -0.93281,0.38966 -0.38965,0.37784 -0.38965,1.12173 z" />
        <path
           id="path847"
           style="font-style:normal;font-variant:normal;font-weight:bold;font-stretch:normal;font-family:Montserrat;-inkscape-font-specification:'Montserrat Bold';stroke-width:0.29519284"
           d="m 124.6178,237.37661 q 2.20804,0 3.38882,1.08631 1.18077,1.0745 1.18077,2.99916 0,1.92466 -1.15716,3.04639 -1.14535,1.12173 -3.50689,1.12173 h -2.82204 v -8.25359 z m 0.0945,6.62413 q 1.26343,0 1.93647,-0.63762 0.68485,-0.63761 0.68485,-1.85381 0,-1.21619 -0.68485,-1.86562 -0.67304,-0.66123 -2.07816,-0.66123 h -1.02727 v 5.01828 z" />
        <path
           id="path849"
           style="font-style:normal;font-variant:normal;font-weight:bold;font-stretch:normal;font-family:Montserrat;-inkscape-font-specification:'Montserrat Bold';stroke-width:0.29519284"
           d="m 135.91775,245.6302 h -1.66488 v -0.7675 q -0.68485,0.86196 -1.70031,0.86196 -1.00366,0 -1.68851,-0.57857 -0.68485,-0.59039 -0.68485,-1.55862 0,-0.98004 0.70847,-1.46416 0.70846,-0.48411 1.93646,-0.48411 h 1.32247 v -0.0354 q 0,-1.01546 -1.07451,-1.01546 -0.4605,0 -0.98004,0.18892 -0.50773,0.17712 -0.86196,0.4487 l -0.79112,-1.14535 q 1.25162,-0.9092 2.85747,-0.9092 1.15716,0 1.88924,0.57858 0.73207,0.57858 0.73207,1.8302 z m -1.78296,-2.42058 v -0.307 h -1.10993 q -1.06269,0 -1.06269,0.66123 0,0.34243 0.24796,0.53135 0.25977,0.17712 0.73208,0.17712 0.47231,0 0.82654,-0.28339 0.36604,-0.29519 0.36604,-0.77931 z" />
        <path
           id="path851"
           style="font-style:normal;font-variant:normal;font-weight:bold;font-stretch:normal;font-family:Montserrat;-inkscape-font-specification:'Montserrat Bold';stroke-width:0.29519284"
           d="m 139.30656,245.6302 h -1.77115 v -8.76132 h 1.77115 v 4.49874 l 1.97189,-2.10177 h 2.23166 l -2.42058,2.57408 2.51504,3.79027 h -2.10177 l -1.61766,-2.43239 -0.57858,0.6022 z" />
        <path
           id="path853"
           style="font-style:normal;font-variant:normal;font-weight:bold;font-stretch:normal;font-family:Montserrat;-inkscape-font-specification:'Montserrat Bold';stroke-width:0.29519284"
           d="m 147.86715,245.6302 h -1.8302 l -2.16081,-6.35255 h 1.8302 l 1.23981,3.83751 1.23981,-3.83751 h 1.71212 l 1.23981,3.83751 1.2398,-3.83751 h 1.84201 l -2.16081,6.35255 h -1.84201 l -1.16896,-3.45966 z" />
        <path
           id="path855"
           style="font-style:normal;font-variant:normal;font-weight:bold;font-stretch:normal;font-family:Montserrat;-inkscape-font-specification:'Montserrat Bold';stroke-width:0.29519284"
           d="m 160.5368,245.6302 h -1.66488 v -0.7675 q -0.68485,0.86196 -1.70032,0.86196 -1.00365,0 -1.6885,-0.57857 -0.68485,-0.59039 -0.68485,-1.55862 0,-0.98004 0.70847,-1.46416 0.70846,-0.48411 1.93646,-0.48411 h 1.32247 v -0.0354 q 0,-1.01546 -1.07451,-1.01546 -0.4605,0 -0.98004,0.18892 -0.50773,0.17712 -0.86196,0.4487 l -0.79112,-1.14535 q 1.25162,-0.9092 2.85747,-0.9092 1.15716,0 1.88923,0.57858 0.73208,0.57858 0.73208,1.8302 z m -1.78296,-2.42058 v -0.307 h -1.10993 q -1.06269,0 -1.06269,0.66123 0,0.34243 0.24796,0.53135 0.25977,0.17712 0.73208,0.17712 0.47231,0 0.82654,-0.28339 0.36604,-0.29519 0.36604,-0.77931 z" />
        <path
           id="path857"
           style="font-style:normal;font-variant:normal;font-weight:bold;font-stretch:normal;font-family:Montserrat;-inkscape-font-specification:'Montserrat Bold';stroke-width:0.29519284"
           d="m 163.92561,242.20597 v 3.42423 h -1.77115 v -8.76132 h 1.77115 v 3.11724 q 0.80293,-0.81474 1.79478,-0.81474 1.00365,0 1.6885,0.70847 0.68485,0.70846 0.68485,1.88923 v 3.86112 h -1.77116 v -3.47146 q 0,-1.46416 -1.0745,-1.46416 -0.53135,0 -0.93281,0.38965 -0.38966,0.37785 -0.38966,1.12174 z" />
      </g>
    </g>
  </g>
</svg>
