<?xml version="1.0" encoding="UTF-8" standalone="no"?>
<!-- Created with Inkscape (http://www.inkscape.org/) -->

<svg
   xmlns:dc="http://purl.org/dc/elements/1.1/"
   xmlns:cc="http://creativecommons.org/ns#"
   xmlns:rdf="http://www.w3.org/1999/02/22-rdf-syntax-ns#"
   xmlns:svg="http://www.w3.org/2000/svg"
   xmlns="http://www.w3.org/2000/svg"
   xmlns:sodipodi="http://sodipodi.sourceforge.net/DTD/sodipodi-0.dtd"
   xmlns:inkscape="http://www.inkscape.org/namespaces/inkscape"
   width="200"
   height="200"
   viewBox="0 0 52.916665 52.916668"
   version="1.1"
   id="svg844"
   inkscape:version="0.92.4 (5da689c313, 2019-01-14)"
   sodipodi:docname="logo-kaffah-arabic.svg"
   inkscape:export-filename="/home/bandithijo/dex/buletin-dakwah-kaffah/assets/images/icons/logo-kaffah-arabic.png"
   inkscape:export-xdpi="96"
   inkscape:export-ydpi="96">
  <defs
     id="defs838" />
  <sodipodi:namedview
     id="base"
     pagecolor="#ffffff"
     bordercolor="#666666"
     borderopacity="1.0"
     inkscape:pageopacity="0.0"
     inkscape:pageshadow="2"
     inkscape:zoom="1.1925"
     inkscape:cx="84.701643"
     inkscape:cy="99.789993"
     inkscape:document-units="mm"
     inkscape:current-layer="layer1"
     showgrid="false"
     units="px" />
  <metadata
     id="metadata841">
    <rdf:RDF>
      <cc:Work
         rdf:about="">
        <dc:format>image/svg+xml</dc:format>
        <dc:type
           rdf:resource="http://purl.org/dc/dcmitype/StillImage" />
        <dc:title />
      </cc:Work>
    </rdf:RDF>
  </metadata>
  <g
     inkscape:label="Layer 1"
     inkscape:groupmode="layer"
     id="layer1"
     transform="translate(0,-244.08332)">
    <path
       sodipodi:nodetypes="ccccccscccsccccscccsccssccccccccccccccsscccccccscc"
       inkscape:connector-curvature="0"
       id="path840-3"
       d="m 2.0208646,287.70463 c 0,-0.38822 0.3326876,-1.36132 0.7393383,-2.16248 2.4252989,-4.77848 5.2943168,-6.82254 7.3712051,-5.25168 1.52669,1.15476 6.419723,0.0723 6.929197,-1.53299 0.3559,-1.12131 -0.06555,-1.44256 -1.575594,-1.20107 -2.600863,0.41589 -3.337706,-1.33636 -2.203141,-5.23911 0.649403,-2.23388 1.169709,-2.72722 2.555324,-2.42289 3.215535,0.70624 4.379833,5.87928 2.330681,10.35522 -1.778781,3.88533 -4.562381,5.48363 -8.175837,4.69436 -3.8388358,-0.83854 -3.7923765,-0.84065 -4.9044882,0.22313 -0.571551,0.54676 -1.352373,1.50017 -1.7351579,2.11863 -0.7934155,1.28191 -1.3315273,1.45114 -1.3315273,0.41871 z m 21.8301784,-2.84212 c -2.155985,-0.78857 -2.635122,-1.89226 -2.572457,-5.92548 0.120638,-7.76262 1.878483,-17.86034 3.109186,-17.86034 0.329546,0 0.44988,0.21822 0.333589,0.60547 -0.630696,2.09951 -1.298795,9.41402 -1.194453,13.07703 0.154067,5.40861 0.532271,6.12254 3.162696,5.97019 2.308083,-0.13362 2.494238,-0.51535 3.00369,-6.15883 0.865763,-9.59068 2.38081,-11.56119 12.982139,-16.88477 2.283579,-1.14674 5.155864,-2.7893 6.382842,-3.65014 2.28159,-1.60075 2.786067,-1.70622 2.786067,-0.58253 0,1.46609 -4.730851,4.83064 -13.147869,9.35068 -4.021031,2.15936 -5.303057,3.08556 -5.960671,4.30636 -0.19865,0.36861 -0.490557,2.53212 -0.648652,4.80744 -0.330116,4.75104 -1.165146,9.5985 -1.89733,11.01438 -0.277032,0.53566 -0.860844,1.20798 -1.297415,1.49405 -1.112483,0.72892 -3.64283,0.94799 -5.041362,0.43649 z M 2.3874628,278.80845 C 1.7327532,278.4758 1.143069,278.03036 1.077059,277.81875 1.01106,277.60707 1.643008,276.67633 2.4814129,275.75027 l 1.5243769,-1.68372 1.2469027,0.6715 1.2469027,0.67147 1.2435559,-1.45278 1.2435515,-1.45281 1.3610284,0.69435 c 0.748572,0.3821 1.361028,0.85712 1.361028,1.05604 0,1.04024 -2.1865115,3.77616 -3.0178714,3.77616 -0.2565543,0 -0.8209099,-0.23211 -1.2541556,-0.51611 -0.7407727,-0.48539 -0.8575013,-0.44415 -1.9586721,0.69199 -1.3475231,1.3903 -1.4864179,1.41735 -3.0905971,0.60209 z m 10.9098412,-11.38418 -1.698427,-1.54252 1.698427,-1.52203 c 0.934136,-0.83713 1.874926,-1.52904 2.09066,-1.53759 0.422196,-0.0163 2.89473,2.57275 2.89473,3.03164 0,0.26849 -1.711324,1.95772 -2.76797,2.73249 -0.412386,0.30241 -0.867884,0.0638 -2.21742,-1.16199 z"
       style="fill:#f57215;fill-opacity:1;stroke-width:0.34599635" />
  </g>
</svg>
