<?xml version="1.0" encoding="UTF-8" standalone="no"?>
<!-- Created with Inkscape (http://www.inkscape.org/) -->

<svg
   xmlns:dc="http://purl.org/dc/elements/1.1/"
   xmlns:cc="http://creativecommons.org/ns#"
   xmlns:rdf="http://www.w3.org/1999/02/22-rdf-syntax-ns#"
   xmlns:svg="http://www.w3.org/2000/svg"
   xmlns="http://www.w3.org/2000/svg"
   xmlns:sodipodi="http://sodipodi.sourceforge.net/DTD/sodipodi-0.dtd"
   xmlns:inkscape="http://www.inkscape.org/namespaces/inkscape"
   width="768"
   height="768"
   viewBox="0 0 203.19999 203.20001"
   version="1.1"
   id="svg844"
   inkscape:version="0.92.4 (5da689c313, 2019-01-14)"
   sodipodi:docname="logo-kaffah-arabic-banner.svg"
   inkscape:export-filename="/home/bandithijo/dex/buletin-dakwah-kaffah/assets/images/icons/logo-kaffah-arabic.png"
   inkscape:export-xdpi="96"
   inkscape:export-ydpi="96">
  <defs
     id="defs838" />
  <sodipodi:namedview
     id="base"
     pagecolor="#ffffff"
     bordercolor="#666666"
     borderopacity="1.0"
     inkscape:pageopacity="0.0"
     inkscape:pageshadow="2"
     inkscape:zoom="0.64453125"
     inkscape:cx="393.30909"
     inkscape:cy="384"
     inkscape:document-units="mm"
     inkscape:current-layer="layer1"
     showgrid="false"
     units="px" />
  <metadata
     id="metadata841">
    <rdf:RDF>
      <cc:Work
         rdf:about="">
        <dc:format>image/svg+xml</dc:format>
        <dc:type
           rdf:resource="http://purl.org/dc/dcmitype/StillImage" />
        <dc:title></dc:title>
      </cc:Work>
    </rdf:RDF>
  </metadata>
  <g
     inkscape:label="Layer 1"
     inkscape:groupmode="layer"
     id="layer1"
     transform="translate(0,-93.799983)">
    <path
       sodipodi:nodetypes="ccccccscccsccccscccsccssccccccccccccccsscccccccscc"
       inkscape:connector-curvature="0"
       id="path840-3"
       d="m 57.668602,161.27619 c 0,-0.69792 0.598076,-2.44727 1.329112,-3.88751 4.359977,-8.59031 9.517637,-12.26493 13.251255,-9.44098 2.744542,2.07592 11.54079,0.12985 12.456668,-2.75588 0.639802,-2.01579 -0.117947,-2.5933 -2.832448,-2.15917 -4.675602,0.74764 -6.000224,-2.40236 -3.9606,-9.41837 1.167431,-4.01588 2.102794,-4.90275 4.593715,-4.35567 5.780595,1.26963 7.87365,10.56923 4.189879,18.61567 -3.197725,6.98469 -8.201822,9.85793 -14.697759,8.43906 -6.901091,-1.50743 -6.817571,-1.51122 -8.816823,0.40114 -1.02748,0.98292 -2.431168,2.69686 -3.119303,3.80866 -1.426327,2.30452 -2.393696,2.60875 -2.393696,0.75273 z m 39.244253,-5.10933 c -3.875838,-1.4176 -4.737173,-3.40171 -4.624529,-10.65227 0.216875,-13.9549 3.376973,-32.10764 5.58941,-32.10764 0.592417,0 0.808754,0.3923 0.599698,1.08848 -1.133813,3.77428 -2.334861,16.92362 -2.147288,23.50863 0.276972,9.7231 0.956882,11.00655 5.685604,10.73267 4.14925,-0.24022 4.48392,-0.92647 5.39976,-11.07178 1.55638,-17.24122 4.27999,-20.78363 23.33807,-30.35386 4.10521,-2.06149 9.26872,-5.01435 11.47447,-6.56189 4.10163,-2.877678 5.00854,-3.067281 5.00854,-1.047217 0,2.635607 -8.50468,8.684097 -23.63601,16.809797 -7.22863,3.88188 -9.53335,5.54692 -10.71553,7.74155 -0.35712,0.66268 -0.88189,4.55203 -1.16608,8.64237 -0.59346,8.54098 -2.0946,17.25529 -3.41085,19.80064 -0.49804,0.96295 -1.54755,2.17159 -2.33238,2.68586 -1.99991,1.3104 -6.548737,1.70421 -9.062885,0.78466 z m -38.585217,-10.8834 c -1.176974,-0.59801 -2.237053,-1.39879 -2.35572,-1.7792 -0.118641,-0.38052 1.017411,-2.05373 2.524614,-3.71852 l 2.740383,-3.02683 2.241565,1.20715 2.241565,1.20712 2.235553,-2.6117 2.235537,-2.6117 2.446732,1.24823 c 1.345708,0.68691 2.446732,1.54085 2.446732,1.89845 0,1.87005 -3.930722,6.78843 -5.425263,6.78843 -0.461199,0 -1.475752,-0.41725 -2.254591,-0.92781 -1.331695,-0.87259 -1.541539,-0.79845 -3.521121,1.24398 -2.422452,2.49936 -2.672141,2.548 -5.555986,1.0824 z m 19.61269,-20.46541 -3.05328,-2.77302 3.05328,-2.73616 c 1.67931,-1.5049 3.370574,-2.74876 3.758394,-2.76412 0.758991,-0.0295 5.203875,4.62505 5.203875,5.44999 0,0.48267 -3.076453,3.51942 -4.975999,4.91222 -0.741356,0.54365 -1.560193,0.11466 -3.98627,-2.08891 z"
       style="fill:#f57215;fill-opacity:1;stroke-width:0.62199986" />
    <path
       style="fill:none;fill-rule:evenodd;stroke:#000000;stroke-width:1.32291663;stroke-linecap:butt;stroke-linejoin:miter;stroke-miterlimit:4;stroke-dasharray:none;stroke-opacity:0"
       d="M 1.2315151,170.59009 H 200.32646"
       id="path964"
       inkscape:connector-curvature="0" />
  </g>
</svg>
