<?xml version="1.0" encoding="UTF-8" standalone="no"?>
<svg
   xmlns:dc="http://purl.org/dc/elements/1.1/"
   xmlns:cc="http://creativecommons.org/ns#"
   xmlns:rdf="http://www.w3.org/1999/02/22-rdf-syntax-ns#"
   xmlns:svg="http://www.w3.org/2000/svg"
   xmlns="http://www.w3.org/2000/svg"
   xmlns:sodipodi="http://sodipodi.sourceforge.net/DTD/sodipodi-0.dtd"
   xmlns:inkscape="http://www.inkscape.org/namespaces/inkscape"
   width="167"
   height="50"
   viewBox="0 0 167 50"
   version="1.1"
   id="svg4"
   sodipodi:docname="logo-kaffah-fanspage.svg"
   inkscape:version="0.92.4 (5da689c313, 2019-01-14)">
  <metadata
     id="metadata10">
    <rdf:RDF>
      <cc:Work
         rdf:about="">
        <dc:format>image/svg+xml</dc:format>
        <dc:type
           rdf:resource="http://purl.org/dc/dcmitype/StillImage" />
        <dc:title />
      </cc:Work>
    </rdf:RDF>
  </metadata>
  <defs
     id="defs8" />
  <sodipodi:namedview
     pagecolor="#ffffff"
     bordercolor="#666666"
     borderopacity="1"
     objecttolerance="10"
     gridtolerance="10"
     guidetolerance="10"
     inkscape:pageopacity="0"
     inkscape:pageshadow="2"
     inkscape:window-width="640"
     inkscape:window-height="480"
     id="namedview6"
     showgrid="false"
     inkscape:zoom="2.8562874"
     inkscape:cx="83.5"
     inkscape:cy="25"
     inkscape:current-layer="svg4" />
  <rect
     style="opacity:1;fill:#333333;fill-opacity:1;fill-rule:nonzero;stroke:none;stroke-width:1.59097898;stroke-linecap:round;stroke-linejoin:round;stroke-miterlimit:4;stroke-dasharray:none;stroke-dashoffset:0;stroke-opacity:1;paint-order:markers stroke fill"
     id="rect817"
     width="166.99998"
     height="49.999996"
     x="1.0034602e-05"
     y="2.1596973e-06"
     rx="8.8642941"
     ry="9.762249" />
  <g
     aria-label="Bulet in Dakwah"
     style="font-style:normal;font-variant:normal;font-weight:normal;font-stretch:normal;font-size:10.52432728px;line-height:6.57770395px;font-family:Impact;-inkscape-font-specification:Impact;letter-spacing:0px;word-spacing:0px;fill:#ffffff;fill-opacity:1;stroke:none;stroke-width:0.26310816px;stroke-linecap:butt;stroke-linejoin:miter;stroke-opacity:1"
     id="text878"
     transform="matrix(1.0939246,0,0,1.1448697,-40.219256,-32.285916)">
    <path
       d="m 100.58302,37.451957 q 0,0.354579 -0.0976,0.642354 -0.0976,0.287775 -0.27236,0.508744 -0.16958,0.22097 -0.411104,0.380274 -0.236386,0.159304 -0.524161,0.26208 -0.287774,0.102777 -0.61666,0.154165 -0.323746,0.04625 -0.724575,0.04625 h -1.767758 q -0.169581,0 -0.287775,-0.09764 -0.113054,-0.102777 -0.113054,-0.328885 v -5.796602 q 0,-0.226109 0.113054,-0.323747 0.118194,-0.102777 0.287775,-0.102777 h 1.67012 q 0.611521,0 1.032905,0.102777 0.426523,0.102777 0.714298,0.313469 0.292913,0.205553 0.447075,0.524161 0.15417,0.318607 0.15417,0.750269 0,0.241525 -0.0617,0.457356 -0.0617,0.210692 -0.179857,0.385412 -0.118193,0.174721 -0.292913,0.30833 -0.169582,0.13361 -0.390551,0.215831 0.282635,0.05139 0.519022,0.179859 0.241529,0.128471 0.416249,0.334024 0.17986,0.200415 0.28263,0.472773 0.10278,0.272358 0.10278,0.611521 z m -1.747204,-2.800663 q 0,-0.200415 -0.06167,-0.359719 -0.06167,-0.159303 -0.184998,-0.26208 -0.123332,-0.107915 -0.313469,-0.164443 -0.184998,-0.05653 -0.498467,-0.05653 h -0.683464 v 1.726648 h 0.755408 q 0.292913,0 0.467634,-0.06681 0.17472,-0.07194 0.287774,-0.190137 0.118193,-0.123332 0.17472,-0.282636 0.05653,-0.164442 0.05653,-0.344301 z m 0.344301,2.846912 q 0,-0.231247 -0.07708,-0.411106 -0.07708,-0.184998 -0.226109,-0.30833 -0.149026,-0.123332 -0.380273,-0.190137 -0.231248,-0.06681 -0.601244,-0.06681 h -0.801657 v 1.891091 h 0.976378 q 0.282635,0 0.472772,-0.05653 0.195276,-0.06167 0.334024,-0.17472 0.143888,-0.118193 0.22097,-0.287774 0.08222,-0.174721 0.08222,-0.395691 z"
       style="font-style:normal;font-variant:normal;font-weight:bold;font-stretch:normal;font-family:Calibri;-inkscape-font-specification:Calibri;fill:#ffffff;fill-opacity:1;stroke-width:0.26310816px"
       id="path905"
       inkscape:connector-curvature="0" />
    <path
       d="m 105.93768,39.271103 q 0,0.05139 -0.0257,0.0925 -0.0257,0.03597 -0.0925,0.06167 -0.0617,0.02569 -0.16958,0.03597 -0.10278,0.01542 -0.26208,0.01542 -0.16959,0 -0.2775,-0.01542 -0.10278,-0.01028 -0.16444,-0.03597 -0.0617,-0.02569 -0.0874,-0.06167 -0.0257,-0.04111 -0.0257,-0.0925 v -0.529299 q -0.38027,0.411106 -0.77596,0.61666 -0.39055,0.205553 -0.81194,0.205553 -0.47277,0 -0.79652,-0.154165 -0.3186,-0.154165 -0.51902,-0.421384 -0.19527,-0.26722 -0.28263,-0.61666 -0.0822,-0.35458 -0.0822,-0.87874 v -2.805802 q 0,-0.05139 0.0257,-0.08736 0.0308,-0.04111 0.10278,-0.0668 0.0771,-0.02569 0.20041,-0.03597 0.12847,-0.01542 0.31347,-0.01542 0.19014,0 0.31347,0.01542 0.12333,0.01028 0.19527,0.03597 0.0771,0.02569 0.10792,0.0668 0.0308,0.03597 0.0308,0.08736 v 2.589971 q 0,0.359718 0.0463,0.549855 0.0462,0.190136 0.13875,0.328885 0.0976,0.13361 0.24153,0.210692 0.14902,0.07194 0.3443,0.07194 0.24666,0 0.49332,-0.179859 0.25181,-0.17986 0.53444,-0.524161 v -3.047327 q 0,-0.05139 0.0257,-0.08736 0.0308,-0.04111 0.10277,-0.0668 0.0771,-0.02569 0.20042,-0.03597 0.12333,-0.01542 0.31347,-0.01542 0.19013,0 0.31347,0.01542 0.12333,0.01028 0.19527,0.03597 0.072,0.02569 0.10278,0.0668 0.0308,0.03597 0.0308,0.08736 z"
       style="font-style:normal;font-variant:normal;font-weight:bold;font-stretch:normal;font-family:Calibri;-inkscape-font-specification:Calibri;fill:#ffffff;fill-opacity:1;stroke-width:0.26310816px"
       id="path907"
       inkscape:connector-curvature="0" />
    <path
       d="m 108.53793,39.271103 q 0,0.05139 -0.0308,0.0925 -0.0308,0.03597 -0.10792,0.06167 -0.0719,0.02569 -0.19527,0.03597 -0.12334,0.01542 -0.31347,0.01542 -0.19014,0 -0.31347,-0.01542 -0.12333,-0.01028 -0.20042,-0.03597 -0.0719,-0.02569 -0.10277,-0.06167 -0.0308,-0.04111 -0.0308,-0.0925 V 32.51354 q 0,-0.05139 0.0308,-0.0925 0.0308,-0.04111 0.10277,-0.06681 0.0771,-0.03083 0.20042,-0.04625 0.12333,-0.01542 0.31347,-0.01542 0.19013,0 0.31347,0.01542 0.12333,0.01542 0.19527,0.04625 0.0771,0.02569 0.10792,0.06681 0.0308,0.04111 0.0308,0.0925 z"
       style="font-style:normal;font-variant:normal;font-weight:bold;font-stretch:normal;font-family:Calibri;-inkscape-font-specification:Calibri;fill:#ffffff;fill-opacity:1;stroke-width:0.26310816px"
       id="path909"
       inkscape:connector-curvature="0" />
    <path
       d="m 114.06731,36.845575 q 0,0.236386 -0.10791,0.34944 -0.10278,0.113055 -0.28778,0.113055 h -2.79038 q 0,0.292913 0.0668,0.534438 0.072,0.236386 0.22097,0.405968 0.15417,0.164443 0.39055,0.251803 0.24153,0.08736 0.57555,0.08736 0.33917,0 0.59611,-0.04625 0.25694,-0.05139 0.44194,-0.107915 0.19013,-0.06167 0.31347,-0.107916 0.12333,-0.05139 0.20041,-0.05139 0.0463,0 0.0771,0.02056 0.0308,0.01542 0.0514,0.06167 0.0206,0.04625 0.0257,0.13361 0.0103,0.08222 0.0103,0.210692 0,0.113054 -0.005,0.195276 -0.005,0.07708 -0.0154,0.133609 -0.0103,0.05653 -0.0308,0.09764 -0.0206,0.03597 -0.0565,0.07194 -0.0308,0.03597 -0.17986,0.09764 -0.14903,0.06167 -0.38028,0.123332 -0.23124,0.05653 -0.5293,0.09764 -0.29805,0.04625 -0.63721,0.04625 -0.61152,0 -1.07402,-0.154165 -0.45735,-0.154165 -0.76568,-0.467634 -0.30833,-0.313469 -0.4625,-0.79138 -0.14902,-0.477911 -0.14902,-1.120265 0,-0.611521 0.1593,-1.09971 0.1593,-0.493328 0.4625,-0.832491 0.30319,-0.344302 0.73485,-0.524161 0.4368,-0.179859 0.98151,-0.179859 0.57555,0 0.98152,0.169582 0.41111,0.169581 0.67319,0.472772 0.26208,0.298052 0.38541,0.709159 0.12333,0.411106 0.12333,0.894157 z m -1.25387,-0.369996 q 0.0154,-0.544716 -0.22097,-0.853046 -0.23125,-0.313469 -0.71944,-0.313469 -0.24666,0 -0.43166,0.0925 -0.17986,0.0925 -0.30319,0.251803 -0.11819,0.154165 -0.185,0.369996 -0.0617,0.210692 -0.0719,0.452217 z"
       style="font-style:normal;font-variant:normal;font-weight:bold;font-stretch:normal;font-family:Calibri;-inkscape-font-specification:Calibri;fill:#ffffff;fill-opacity:1;stroke-width:0.26310816px"
       id="path911"
       inkscape:connector-curvature="0" />
    <path
       d="m 117.78783,38.818886 q 0,0.226109 -0.0308,0.349441 -0.0257,0.118193 -0.0719,0.169581 -0.0463,0.04625 -0.13875,0.08736 -0.0874,0.03597 -0.21069,0.06167 -0.11819,0.03083 -0.26208,0.04625 -0.13875,0.01542 -0.28264,0.01542 -0.38541,0 -0.66804,-0.09764 -0.28264,-0.09764 -0.46764,-0.298053 -0.185,-0.205553 -0.27236,-0.513883 -0.0874,-0.30833 -0.0874,-0.729714 v -2.348446 h -0.54985 q -0.0976,0 -0.14903,-0.118193 -0.0514,-0.123332 -0.0514,-0.405968 0,-0.149026 0.0103,-0.251803 0.0154,-0.102776 0.0411,-0.159303 0.0257,-0.06167 0.0617,-0.08736 0.0411,-0.02569 0.0925,-0.02569 h 0.54471 v -1.022627 q 0,-0.05139 0.0257,-0.0925 0.0308,-0.04111 0.10277,-0.06681 0.0771,-0.03083 0.20042,-0.04111 0.12847,-0.01542 0.31347,-0.01542 0.19013,0 0.31347,0.01542 0.12847,0.01028 0.20041,0.04111 0.0719,0.02569 0.10278,0.06681 0.0308,0.04111 0.0308,0.0925 v 1.022627 h 0.99693 q 0.0514,0 0.0874,0.02569 0.0411,0.0257 0.0668,0.08736 0.0257,0.05653 0.036,0.159303 0.0154,0.102777 0.0154,0.251803 0,0.282636 -0.0514,0.405968 -0.0514,0.118193 -0.14903,0.118193 h -1.00207 v 2.15317 q 0,0.375135 0.11819,0.565272 0.1182,0.184998 0.42139,0.184998 0.10277,0 0.185,-0.01542 0.0822,-0.02056 0.14388,-0.04111 0.0668,-0.02569 0.10792,-0.04111 0.0463,-0.02056 0.0822,-0.02056 0.0308,0 0.0565,0.02056 0.0308,0.01542 0.0463,0.07194 0.0154,0.05139 0.0257,0.143887 0.0154,0.0925 0.0154,0.236386 z"
       style="font-style:normal;font-variant:normal;font-weight:bold;font-stretch:normal;font-family:Calibri;-inkscape-font-specification:Calibri;fill:#ffffff;fill-opacity:1;stroke-width:0.26310816px"
       id="path913"
       inkscape:connector-curvature="0" />
    <path
       d="m 120.03547,39.271103 q 0,0.05139 -0.0308,0.0925 -0.0308,0.03597 -0.10791,0.06167 -0.072,0.02569 -0.19528,0.03597 -0.12333,0.01542 -0.31347,0.01542 -0.19013,0 -0.31347,-0.01542 -0.12333,-0.01028 -0.20041,-0.03597 -0.0719,-0.02569 -0.10278,-0.06167 -0.0308,-0.04111 -0.0308,-0.0925 v -4.57356 q 0,-0.05139 0.0308,-0.08736 0.0308,-0.04111 0.10278,-0.06681 0.0771,-0.03083 0.20041,-0.04625 0.12334,-0.01542 0.31347,-0.01542 0.19014,0 0.31347,0.01542 0.12333,0.01542 0.19528,0.04625 0.0771,0.02569 0.10791,0.06681 0.0308,0.03597 0.0308,0.08736 z m 0.0976,-6.135765 q 0,0.390552 -0.1593,0.539578 -0.1593,0.149026 -0.59097,0.149026 -0.4368,0 -0.59096,-0.143887 -0.14903,-0.143888 -0.14903,-0.519022 0,-0.390552 0.15417,-0.539578 0.1593,-0.154165 0.5961,-0.154165 0.43166,0 0.58583,0.149026 0.15416,0.143888 0.15416,0.519022 z"
       style="font-style:normal;font-variant:normal;font-weight:bold;font-stretch:normal;font-family:Calibri;-inkscape-font-specification:Calibri;fill:#ffffff;fill-opacity:1;stroke-width:0.26310816px"
       id="path915"
       inkscape:connector-curvature="0" />
    <path
       d="m 125.70874,39.271103 q 0,0.05139 -0.0308,0.0925 -0.0308,0.03597 -0.10277,0.06167 -0.072,0.02569 -0.20042,0.03597 -0.12333,0.01542 -0.30833,0.01542 -0.19013,0 -0.31861,-0.01542 -0.12333,-0.01028 -0.19527,-0.03597 -0.0719,-0.02569 -0.10278,-0.06167 -0.0308,-0.04111 -0.0308,-0.0925 v -2.615665 q 0,-0.334024 -0.0514,-0.524161 -0.0463,-0.190137 -0.13875,-0.323746 -0.0925,-0.138749 -0.24152,-0.210692 -0.14389,-0.07708 -0.33917,-0.07708 -0.24666,0 -0.49846,0.179859 -0.25181,0.179859 -0.52416,0.524161 v 3.047327 q 0,0.05139 -0.0308,0.0925 -0.0308,0.03597 -0.10791,0.06167 -0.072,0.02569 -0.19528,0.03597 -0.12333,0.01542 -0.31347,0.01542 -0.19013,0 -0.31346,-0.01542 -0.12334,-0.01028 -0.20042,-0.03597 -0.0719,-0.02569 -0.10278,-0.06167 -0.0308,-0.04111 -0.0308,-0.0925 v -4.583837 q 0,-0.05139 0.0257,-0.08736 0.0257,-0.04111 0.0925,-0.0668 0.0668,-0.02569 0.16959,-0.03597 0.10791,-0.01542 0.26722,-0.01542 0.16444,0 0.27235,0.01542 0.10792,0.01028 0.16445,0.03597 0.0617,0.02569 0.0874,0.0668 0.0257,0.03597 0.0257,0.08736 v 0.529299 q 0.38027,-0.411106 0.77082,-0.61666 0.39569,-0.205553 0.82222,-0.205553 0.46763,0 0.78624,0.154165 0.32375,0.154165 0.51902,0.421384 0.20042,0.262081 0.28778,0.61666 0.0874,0.354579 0.0874,0.853046 z"
       style="font-style:normal;font-variant:normal;font-weight:bold;font-stretch:normal;font-family:Calibri;-inkscape-font-specification:Calibri;fill:#ffffff;fill-opacity:1;stroke-width:0.26310816px"
       id="path917"
       inkscape:connector-curvature="0" />
    <path
       d="m 134.96891,36.023362 q 0,0.914712 -0.24153,1.567343 -0.23638,0.647493 -0.68346,1.0586 -0.44708,0.411106 -1.08943,0.606382 -0.63722,0.190137 -1.5211,0.190137 h -1.5879 q -0.16958,0 -0.28777,-0.09764 -0.11305,-0.102777 -0.11305,-0.328885 v -5.796602 q 0,-0.226109 0.11305,-0.323747 0.11819,-0.102777 0.28777,-0.102777 h 1.7061 q 0.88901,0 1.50567,0.210693 0.6218,0.205553 1.04319,0.616659 0.42652,0.405968 0.64749,1.007211 0.22097,0.601244 0.22097,1.392624 z m -1.39776,0.04625 q 0,-0.472772 -0.11306,-0.87874 -0.10791,-0.405968 -0.35458,-0.70402 -0.24152,-0.298052 -0.62693,-0.462495 -0.38028,-0.169581 -1.00208,-0.169581 h -0.68346 v 4.522172 h 0.70402 q 0.55499,0 0.93527,-0.143888 0.38027,-0.143887 0.63207,-0.431661 0.25695,-0.292914 0.38028,-0.724576 0.12847,-0.431662 0.12847,-1.007211 z"
       style="font-style:normal;font-variant:normal;font-weight:bold;font-stretch:normal;font-family:Calibri;-inkscape-font-specification:Calibri;fill:#ffffff;fill-opacity:1;stroke-width:0.26310816px"
       id="path919"
       inkscape:connector-curvature="0" />
    <path
       d="m 139.91247,39.28652 q 0,0.07194 -0.0514,0.113054 -0.0514,0.04111 -0.16445,0.05653 -0.10791,0.02056 -0.32374,0.02056 -0.23125,0 -0.33916,-0.02056 -0.10278,-0.01542 -0.14903,-0.05653 -0.0411,-0.04111 -0.0411,-0.113054 v -0.364857 q -0.28264,0.303191 -0.64749,0.472772 -0.35972,0.169582 -0.80166,0.169582 -0.36486,0 -0.67319,-0.09764 -0.30319,-0.0925 -0.5293,-0.277497 -0.22097,-0.190137 -0.3443,-0.467634 -0.12333,-0.277497 -0.12333,-0.647492 0,-0.400829 0.15416,-0.693743 0.15931,-0.298052 0.46764,-0.488189 0.31347,-0.195275 0.77596,-0.287774 0.46249,-0.0925 1.07402,-0.0925 h 0.44707 v -0.277497 q 0,-0.215831 -0.0462,-0.375135 -0.0411,-0.164442 -0.14388,-0.272358 -0.0976,-0.107915 -0.26722,-0.159304 -0.16444,-0.05139 -0.41111,-0.05139 -0.32374,0 -0.58069,0.07194 -0.2518,0.07194 -0.44707,0.159303 -0.19528,0.08736 -0.32889,0.159304 -0.12847,0.07194 -0.21069,0.07194 -0.0565,0 -0.10278,-0.03597 -0.0411,-0.03597 -0.0719,-0.102777 -0.0257,-0.0668 -0.0411,-0.164442 -0.0154,-0.09764 -0.0154,-0.215831 0,-0.159304 0.0257,-0.251803 0.0257,-0.0925 0.0976,-0.164443 0.0719,-0.07708 0.25181,-0.164442 0.17985,-0.0925 0.42138,-0.169582 0.24152,-0.07708 0.52416,-0.123332 0.28777,-0.05139 0.59097,-0.05139 0.53957,0 0.91985,0.107916 0.38541,0.102776 0.63207,0.323746 0.24667,0.215831 0.35972,0.560133 0.11306,0.344301 0.11306,0.817074 z m -1.2693,-1.963034 h -0.49332 q -0.31347,0 -0.53444,0.04625 -0.22097,0.04625 -0.35972,0.138748 -0.13875,0.0925 -0.20555,0.226109 -0.0617,0.128471 -0.0617,0.298052 0,0.287775 0.17986,0.452217 0.185,0.164443 0.50874,0.164443 0.27236,0 0.49847,-0.138749 0.23125,-0.138748 0.46763,-0.405967 z"
       style="font-style:normal;font-variant:normal;font-weight:bold;font-stretch:normal;font-family:Calibri;-inkscape-font-specification:Calibri;fill:#ffffff;fill-opacity:1;stroke-width:0.26310816px"
       id="path921"
       inkscape:connector-curvature="0" />
    <path
       d="m 145.46754,39.276242 q 0,0.05139 -0.0308,0.0925 -0.0257,0.03597 -0.10278,0.06167 -0.0719,0.02056 -0.20041,0.03083 -0.12847,0.01542 -0.33403,0.01542 -0.21069,0 -0.3443,-0.01028 -0.12847,-0.01028 -0.21583,-0.03083 -0.0822,-0.02569 -0.12847,-0.06681 -0.0463,-0.04111 -0.0822,-0.107915 l -1.52623,-2.415251 v 2.425528 q 0,0.05139 -0.0308,0.0925 -0.0308,0.03597 -0.10791,0.06167 -0.072,0.02569 -0.19528,0.03597 -0.12333,0.01542 -0.31347,0.01542 -0.19013,0 -0.31347,-0.01542 -0.12333,-0.01028 -0.20041,-0.03597 -0.0719,-0.02569 -0.10278,-0.06167 -0.0308,-0.04111 -0.0308,-0.0925 V 32.51354 q 0,-0.05139 0.0308,-0.0925 0.0308,-0.04111 0.10278,-0.06681 0.0771,-0.03083 0.20041,-0.04625 0.12334,-0.01542 0.31347,-0.01542 0.19014,0 0.31347,0.01542 0.12333,0.01542 0.19528,0.04625 0.0771,0.02569 0.10791,0.06681 0.0308,0.04111 0.0308,0.0925 v 4.023705 l 1.35665,-1.824285 q 0.0411,-0.06167 0.0925,-0.107916 0.0514,-0.04625 0.13361,-0.07194 0.0874,-0.02569 0.21069,-0.03597 0.12847,-0.01542 0.32374,-0.01542 0.19014,0 0.31861,0.01542 0.13361,0.01028 0.21069,0.03597 0.0822,0.02569 0.11306,0.0668 0.0308,0.03597 0.0308,0.0925 0,0.07708 -0.0411,0.164443 -0.036,0.08736 -0.11305,0.184998 l -1.34124,1.521094 1.55193,2.399834 q 0.0617,0.102777 0.0874,0.17986 0.0308,0.07194 0.0308,0.133609 z"
       style="font-style:normal;font-variant:normal;font-weight:bold;font-stretch:normal;font-family:Calibri;-inkscape-font-specification:Calibri;fill:#ffffff;fill-opacity:1;stroke-width:0.26310816px"
       id="path923"
       inkscape:connector-curvature="0" />
    <path
       d="m 153.27857,34.676988 q 0,0.05653 -0.0154,0.138748 -0.0154,0.08222 -0.0565,0.236387 l -1.22304,4.147037 q -0.0257,0.08736 -0.0668,0.143887 -0.0411,0.05139 -0.12848,0.08222 -0.0822,0.03083 -0.24152,0.04111 -0.15417,0.01028 -0.40597,0.01028 -0.2518,0 -0.41111,-0.01542 -0.1593,-0.01028 -0.2518,-0.04111 -0.0874,-0.03083 -0.12847,-0.08222 -0.0411,-0.05653 -0.0617,-0.138748 l -0.77083,-2.785247 -0.0103,-0.04625 -0.0103,0.04625 -0.70916,2.785247 q -0.0206,0.08736 -0.0617,0.143887 -0.036,0.05139 -0.12847,0.08222 -0.0925,0.03083 -0.2518,0.04111 -0.15931,0.01028 -0.41111,0.01028 -0.25694,0 -0.41624,-0.01542 -0.15417,-0.01028 -0.24667,-0.04111 -0.0874,-0.03083 -0.12847,-0.08222 -0.0411,-0.05653 -0.0617,-0.138748 l -1.21276,-4.147037 q -0.0462,-0.149027 -0.0617,-0.231248 -0.0103,-0.08736 -0.0103,-0.143887 0,-0.05139 0.0257,-0.08736 0.0308,-0.04111 0.10278,-0.06167 0.0771,-0.02569 0.20041,-0.03597 0.12847,-0.01028 0.31861,-0.01028 0.20555,0 0.33402,0.01028 0.12847,0.01028 0.20042,0.03597 0.0719,0.02569 0.0976,0.07194 0.0308,0.04111 0.0463,0.102777 l 0.90957,3.365935 0.0103,0.06167 0.0103,-0.06167 0.85305,-3.365935 q 0.0154,-0.06167 0.0463,-0.102777 0.036,-0.04625 0.10278,-0.07194 0.0668,-0.02569 0.18499,-0.03597 0.12334,-0.01028 0.31347,-0.01028 0.19014,0 0.30833,0.01542 0.1182,0.01028 0.185,0.03597 0.0719,0.02055 0.0976,0.06167 0.0308,0.03597 0.0463,0.08736 l 0.91471,3.391629 0.0154,0.05653 0.0103,-0.06167 0.87361,-3.365935 q 0.0103,-0.06167 0.0411,-0.102777 0.0308,-0.04625 0.10277,-0.07194 0.072,-0.02569 0.19528,-0.03597 0.12333,-0.01028 0.31347,-0.01028 0.19013,0 0.30833,0.01028 0.12333,0.01028 0.19013,0.03597 0.0719,0.02055 0.0976,0.06167 0.0257,0.03597 0.0257,0.08736 z"
       style="font-style:normal;font-variant:normal;font-weight:bold;font-stretch:normal;font-family:Calibri;-inkscape-font-specification:Calibri;fill:#ffffff;fill-opacity:1;stroke-width:0.26310816px"
       id="path925"
       inkscape:connector-curvature="0" />
    <path
       d="m 157.91893,39.28652 q 0,0.07194 -0.0514,0.113054 -0.0514,0.04111 -0.16444,0.05653 -0.10791,0.02056 -0.32375,0.02056 -0.23124,0 -0.33916,-0.02056 -0.10278,-0.01542 -0.14902,-0.05653 -0.0411,-0.04111 -0.0411,-0.113054 v -0.364857 q -0.28263,0.303191 -0.64749,0.472772 -0.35972,0.169582 -0.80166,0.169582 -0.36485,0 -0.67318,-0.09764 -0.30319,-0.0925 -0.5293,-0.277497 -0.22097,-0.190137 -0.3443,-0.467634 -0.12334,-0.277497 -0.12334,-0.647492 0,-0.400829 0.15417,-0.693743 0.1593,-0.298052 0.46763,-0.488189 0.31347,-0.195275 0.77597,-0.287774 0.46249,-0.0925 1.07401,-0.0925 h 0.44708 v -0.277497 q 0,-0.215831 -0.0462,-0.375135 -0.0411,-0.164442 -0.14389,-0.272358 -0.0976,-0.107915 -0.26722,-0.159304 -0.16444,-0.05139 -0.4111,-0.05139 -0.32375,0 -0.58069,0.07194 -0.2518,0.07194 -0.44708,0.159303 -0.19527,0.08736 -0.32888,0.159304 -0.12847,0.07194 -0.2107,0.07194 -0.0565,0 -0.10277,-0.03597 -0.0411,-0.03597 -0.072,-0.102777 -0.0257,-0.0668 -0.0411,-0.164442 -0.0154,-0.09764 -0.0154,-0.215831 0,-0.159304 0.0257,-0.251803 0.0257,-0.0925 0.0976,-0.164443 0.0719,-0.07708 0.2518,-0.164442 0.17986,-0.0925 0.42139,-0.169582 0.24152,-0.07708 0.52416,-0.123332 0.28777,-0.05139 0.59096,-0.05139 0.53958,0 0.91985,0.107916 0.38541,0.102776 0.63208,0.323746 0.24666,0.215831 0.35972,0.560133 0.11305,0.344301 0.11305,0.817074 z m -1.26929,-1.963034 h -0.49333 q -0.31347,0 -0.53444,0.04625 -0.22097,0.04625 -0.35971,0.138748 -0.13875,0.0925 -0.20556,0.226109 -0.0617,0.128471 -0.0617,0.298052 0,0.287775 0.17986,0.452217 0.18499,0.164443 0.50874,0.164443 0.27236,0 0.49847,-0.138749 0.23124,-0.138748 0.46763,-0.405967 z"
       style="font-style:normal;font-variant:normal;font-weight:bold;font-stretch:normal;font-family:Calibri;-inkscape-font-specification:Calibri;fill:#ffffff;fill-opacity:1;stroke-width:0.26310816px"
       id="path927"
       inkscape:connector-curvature="0" />
    <path
       d="m 163.5922,39.271103 q 0,0.05139 -0.0308,0.0925 -0.0308,0.03597 -0.10278,0.06167 -0.0719,0.02569 -0.20041,0.03597 -0.12334,0.01542 -0.30833,0.01542 -0.19014,0 -0.31861,-0.01542 -0.12333,-0.01028 -0.19528,-0.03597 -0.0719,-0.02569 -0.10277,-0.06167 -0.0308,-0.04111 -0.0308,-0.0925 v -2.615665 q 0,-0.334024 -0.0514,-0.524161 -0.0462,-0.190137 -0.13875,-0.323746 -0.0925,-0.138749 -0.24153,-0.210692 -0.14389,-0.07708 -0.33916,-0.07708 -0.24666,0 -0.49847,0.179859 -0.2518,0.179859 -0.52416,0.524161 v 3.047327 q 0,0.05139 -0.0308,0.0925 -0.0308,0.03597 -0.10792,0.06167 -0.0719,0.02569 -0.19527,0.03597 -0.12333,0.01542 -0.31347,0.01542 -0.19014,0 -0.31347,-0.01542 -0.12333,-0.01028 -0.20041,-0.03597 -0.0719,-0.02569 -0.10278,-0.06167 -0.0308,-0.04111 -0.0308,-0.0925 V 32.51354 q 0,-0.05139 0.0308,-0.0925 0.0308,-0.04111 0.10278,-0.06681 0.0771,-0.03083 0.20041,-0.04625 0.12333,-0.01542 0.31347,-0.01542 0.19014,0 0.31347,0.01542 0.12333,0.01542 0.19527,0.04625 0.0771,0.02569 0.10792,0.06681 0.0308,0.04111 0.0308,0.0925 v 2.533444 q 0.33403,-0.328885 0.67833,-0.488189 0.34944,-0.164443 0.72457,-0.164443 0.46764,0 0.78624,0.154165 0.32375,0.154165 0.51903,0.421384 0.20041,0.26722 0.28777,0.626938 0.0874,0.354579 0.0874,0.863323 z"
       style="font-style:normal;font-variant:normal;font-weight:bold;font-stretch:normal;font-family:Calibri;-inkscape-font-specification:Calibri;fill:#ffffff;fill-opacity:1;stroke-width:0.26310816px"
       id="path929"
       inkscape:connector-curvature="0" />
  </g>
  <path
     style="fill:#f57215;fill-opacity:1;stroke-width:0.39336777"
     d="m 6.4565395,44.990289 c 0,-0.451534 0.3697223,-1.583329 0.8216484,-2.515156 2.6953041,-5.557766 5.8837301,-7.935185 8.1918381,-6.108123 1.696656,1.343065 7.134429,0.08413 7.700627,-1.783003 0.395518,-1.304186 -0.07284,-1.67782 -1.751007,-1.396962 -2.890419,0.483711 -3.709293,-1.554294 -2.448417,-6.09353 0.7217,-2.598201 1.299932,-3.171987 2.839805,-2.818028 3.573526,0.82142 4.867441,6.838095 2.590161,12.043992 -1.976816,4.518996 -5.070312,6.377946 -9.086056,5.459949 -4.266214,-0.975274 -4.214582,-0.977744 -5.450501,0.259516 -0.635184,0.635954 -1.502936,1.744839 -1.9283345,2.46416 -0.881745,1.49098 -1.479764,1.687806 -1.479764,0.486995 z M 30.717063,41.684655 C 28.32106,40.767509 27.78857,39.483809 27.85822,34.792809 c 0.134067,-9.028578 2.087611,-20.773078 3.455326,-20.773078 0.366234,0 0.499966,0.253814 0.370732,0.704208 -0.700913,2.441922 -1.443399,10.949318 -1.327434,15.209704 0.171216,6.290685 0.591531,7.121039 3.514797,6.943845 2.565042,-0.155427 2.771925,-0.59941 3.338085,-7.163247 0.962156,-11.154791 2.645865,-13.446658 14.427442,-19.638431 2.537803,-1.3337461 5.729857,-3.2441816 7.093441,-4.2454124 2.535597,-1.8618052 3.096236,-1.9844831 3.096236,-0.6775392 0,1.7051974 -5.257534,5.6184656 -14.611614,10.8756446 -4.468688,2.511506 -5.893445,3.588775 -6.62427,5.008651 -0.220766,0.428727 -0.545168,2.945072 -0.720866,5.591463 -0.366868,5.525875 -1.294861,11.163869 -2.108561,12.81066 -0.307874,0.623027 -0.956678,1.404989 -1.441858,1.737704 -1.23633,0.847803 -4.048381,1.102608 -5.602613,0.507674 z M 6.8639499,34.643278 C 6.1363504,34.256374 5.4810179,33.738298 5.407658,33.492187 5.3343104,33.245982 6.0366157,32.163428 6.9683597,31.086348 l 1.6940833,-1.9583 1.38572,0.781025 1.385719,0.780965 1.382004,-1.689702 1.381996,-1.689748 1.51255,0.807588 c 0.83191,0.444404 1.51255,0.996899 1.51255,1.228276 0,1.209877 -2.429933,4.391989 -3.353848,4.391989 -0.28512,0 -0.912305,-0.26997 -1.393784,-0.600303 -0.82324,-0.56452 -0.952965,-0.516563 -2.17673,0.804871 -1.497541,1.617028 -1.651897,1.648493 -3.4346701,0.700269 z M 18.98838,21.402521 17.100868,19.608441 18.98838,17.838175 c 1.038133,-0.973657 2.083659,-1.778397 2.323412,-1.788329 0.469198,-0.01901 3.217005,2.992317 3.217005,3.526035 0,0.312279 -1.901849,2.276991 -3.076131,3.178118 -0.4583,0.351719 -0.964505,0.07415 -2.464286,-1.351478 z"
     id="path840-3"
     inkscape:connector-curvature="0"
     sodipodi:nodetypes="ccccccscccsccccscccsccssccccccccccccccsscccccccscc" />
  <path
     inkscape:connector-curvature="0"
     id="path928"
     d="m 79.187362,43.462608 c -5.328716,-1.584743 -6.450209,-8.71056 -1.768035,-11.233854 1.182597,-0.637312 2.503509,-0.921052 5.127168,-1.101431 1.943797,-0.133633 3.534167,-0.313918 3.534167,-0.400481 0,-0.367287 -0.866259,-1.83862 -1.233426,-2.09523 -0.780788,-0.545605 -4.038717,-0.268627 -5.608787,0.47717 -0.869851,0.413033 -1.637504,0.75105 -1.7059,0.75105 -0.06838,0 -0.628678,-0.767155 -1.245071,-1.70475 l -1.120717,-1.704766 1.193991,-0.771323 c 2.02917,-1.310769 4.853366,-1.98554 7.674555,-1.833644 3.245159,0.174909 5.190607,1.162651 6.302352,3.200311 0.762669,1.397824 0.810695,1.92642 0.816311,8.984345 l 0.0061,7.499067 h -2.358239 c -2.273576,0 -2.358229,-0.03589 -2.358229,-0.949222 0,-1.146143 -0.39166,-1.205434 -1.267974,-0.19194 -0.675927,0.781685 -2.71813,1.541023 -3.992707,1.48455 -0.399073,-0.01792 -1.297025,-0.202253 -1.995428,-0.40989 z m 5.702475,-4.869671 c 0.218494,0 1.190825,-2.309863 1.190825,-2.828924 0,-0.46891 -0.462486,-0.588384 -2.277505,-0.588384 -2.589424,0 -3.890182,0.68992 -3.890182,2.063398 0,1.530386 1.653216,2.248565 3.80706,1.653805 0.597309,-0.165041 1.123722,-0.300019 1.169802,-0.300019 z m 42.102193,4.957216 c -3.20157,-1.071698 -5.26059,-3.999555 -4.88325,-6.943872 0.43792,-3.41695 2.92041,-5.083766 8.1501,-5.472277 3.61616,-0.268628 4.00864,-0.584129 2.583,-2.076173 -0.64376,-0.673725 -1.09334,-0.777014 -2.81175,-0.646056 -1.12498,0.08565 -2.60115,0.446659 -3.28032,0.801995 -0.67916,0.355181 -1.35134,0.646012 -1.49371,0.646012 -0.31904,0 -2.16931,-2.884318 -2.16931,-3.381572 0,-0.198223 0.93876,-0.840832 2.08614,-1.428184 1.86417,-0.954339 2.47483,-1.068344 5.73937,-1.071796 3.37943,-0.0032 3.76614,0.07445 5.15986,1.03874 2.58363,1.787856 2.76885,2.487558 2.91508,11.012989 l 0.12863,7.499069 h -2.57245 c -2.50595,0 -2.57245,-0.02238 -2.57245,-0.954605 v -0.954656 l -1.37258,0.950629 c -1.5132,1.04801 -4.06836,1.494555 -5.60633,0.979757 z m 4.60313,-4.735224 c 1.30694,-0.571518 2.013,-1.572852 2.013,-2.854928 0,-0.710863 -0.2173,-0.784372 -2.31806,-0.784372 -2.85064,0 -4.09964,0.804287 -3.71831,2.394363 0.16972,0.707765 0.58703,1.108429 1.41519,1.358805 0.64598,0.195087 1.22057,0.370437 1.27689,0.38927 0.0562,0.01791 0.65537,-0.207643 1.33129,-0.503138 z M 55.605023,30.069523 V 16.609979 l 2.448936,-2.081652 2.448937,-2.081685 0.09741,8.706574 c 0.05358,4.788627 0.216831,8.706478 0.362826,8.706378 0.145989,0 1.459883,-1.367055 2.919795,-3.037632 l 2.654387,-3.037379 h 3.059795 c 1.901219,0 3.059798,0.151591 3.059798,0.400038 0,0.219749 -1.475161,2.020518 -3.278145,4.001255 -2.030883,2.231127 -3.179072,3.776452 -3.017752,4.061537 0.143205,0.252937 1.775603,2.89507 3.627526,5.870963 l 3.367141,5.410747 -3.161124,-0.009 -3.161124,-0.009 -2.294502,-3.637872 -2.294495,-3.637818 -0.88005,0.865271 c -0.776196,0.763158 -0.880051,1.193493 -0.880051,3.646837 v 2.781566 h -2.53963 -2.539639 z m 40.996994,5.865492 v -7.594013 h -1.088413 c -1.077422,0 -1.088421,-0.02244 -1.088421,-2.088375 0,-2.067245 0.01114,-2.088371 1.088421,-2.088371 0.945005,0 1.088675,-0.13768 1.09044,-1.044161 0.0055,-2.831931 1.742709,-5.595198 4.103146,-6.526569 2.10627,-0.831061 5.00897,-0.32649 6.91959,1.203316 0.66411,0.5317 0.65484,0.601802 -0.3066,2.318751 -1.0939,1.953521 -1.15949,1.989441 -2.1709,1.188844 -1.47226,-1.165442 -3.10521,-0.246211 -3.10521,1.747853 0,1.105961 0.012,1.111966 2.17684,1.111966 h 2.17681 v 2.088371 2.088375 h -2.17681 -2.17684 v 7.594013 7.594013 h -2.721029 -2.72104 z m 13.786593,0 v -7.594013 h -1.08841 c -1.07742,0 -1.08842,-0.02244 -1.08842,-2.088375 0,-2.067245 0.011,-2.088371 1.08842,-2.088371 0.95483,0 1.08841,-0.132745 1.08841,-1.082416 0,-2.646754 1.6643,-5.372533 3.88852,-6.368486 2.16664,-0.970261 5.13367,-0.519778 7.13625,1.083488 0.66417,0.531746 0.65504,0.601441 -0.30275,2.311899 -0.98459,1.758377 -0.99068,1.761967 -2.02732,1.200938 -0.57186,-0.309437 -1.28109,-0.562735 -1.57606,-0.562735 -0.86943,0 -1.67654,1.109821 -1.67654,2.305346 0,1.105961 0.0121,1.111966 2.17683,1.111966 h 2.17682 v 2.088371 2.088375 h -2.17682 -2.17683 v 7.594013 7.594013 h -2.72105 -2.72104 z m 33.0153,-5.885353 V 16.570248 h 2.72101 2.72106 v 4.545745 4.545739 l 1.68664,-0.938593 c 3.58526,-1.995051 7.83424,-0.683328 9.50803,2.935252 0.71024,1.535467 0.7779,2.298845 0.7779,8.776216 v 7.094421 h -2.50305 -2.50307 l -0.12725,-6.377182 c -0.14065,-7.046305 -0.44535,-8.143883 -2.37271,-8.547143 -1.32035,-0.276265 -3.4176,0.778722 -4.00476,2.014514 -0.30122,0.633953 -0.4528,2.935571 -0.45637,6.929516 l -0.005,5.980295 h -2.72105 -2.72103 z"
     style="fill:#ffffff;fill-opacity:1;stroke-width:0.37115732"
     sodipodi:nodetypes="cccsccscccccccsscccccssscccccccccsscccccsscccccssccccccccccccsscccccccccsccccccssscccscssccccccccccccssssccccsssccccccccccccccccccsccccscccccc" />
</svg>
