<?xml version="1.0" encoding="UTF-8" standalone="no"?>
<!-- Created with Inkscape (http://www.inkscape.org/) -->

<svg
   xmlns:dc="http://purl.org/dc/elements/1.1/"
   xmlns:cc="http://creativecommons.org/ns#"
   xmlns:rdf="http://www.w3.org/1999/02/22-rdf-syntax-ns#"
   xmlns:svg="http://www.w3.org/2000/svg"
   xmlns="http://www.w3.org/2000/svg"
   xmlns:sodipodi="http://sodipodi.sourceforge.net/DTD/sodipodi-0.dtd"
   xmlns:inkscape="http://www.inkscape.org/namespaces/inkscape"
   width="793.70081"
   height="400"
   viewBox="0 0 210 105.83334"
   version="1.1"
   id="svg8"
   inkscape:version="0.92.4 (5da689c313, 2019-01-14)"
   sodipodi:docname="logo-kaffah.svg">
  <defs
     id="defs2" />
  <sodipodi:namedview
     id="base"
     pagecolor="#ffffff"
     bordercolor="#666666"
     borderopacity="1.0"
     inkscape:pageopacity="0.0"
     inkscape:pageshadow="2"
     inkscape:zoom="0.60854165"
     inkscape:cx="396.8504"
     inkscape:cy="200"
     inkscape:document-units="mm"
     inkscape:current-layer="layer1"
     showgrid="false"
     inkscape:snap-global="false"
     units="px" />
  <metadata
     id="metadata5">
    <rdf:RDF>
      <cc:Work
         rdf:about="">
        <dc:format>image/svg+xml</dc:format>
        <dc:type
           rdf:resource="http://purl.org/dc/dcmitype/StillImage" />
        <dc:title></dc:title>
      </cc:Work>
    </rdf:RDF>
  </metadata>
  <g
     inkscape:label="Layer 1"
     inkscape:groupmode="layer"
     id="layer1"
     transform="translate(0,-191.16666)">
    <g
       id="g948"
       transform="matrix(1.353445,0,0,1.353445,-24.560464,170.04834)"
       inkscape:export-xdpi="96"
       inkscape:export-ydpi="96">
      <path
         sodipodi:nodetypes="sscccccccsccccssssssccccsscccsscscscccccccssccccccsccccc"
         inkscape:connector-curvature="0"
         id="path844-3"
         d="m 32.253931,65.424955 c 0,-1.32251 2.60841,-5.87482 4.39969,-7.67853 2.11855,-2.13325 3.5846,-2.49754 5.70261,-1.41701 1.7591,0.89742 2.92803,0.94521 5.3715,0.21958 2.02024,-0.59995 3.53906,-1.95336 3.33183,-2.96895 -0.11355,-0.55652 -0.42629,-0.64897 -1.87887,-0.55545 -2.64789,0.17046 -3.49897,-0.54646 -3.4828,-2.93384 0.007,-1.04356 0.37461,-2.95918 0.81676,-4.25692 0.69741,-2.04695 0.93295,-2.37443 1.77806,-2.47206 1.5053,-0.17389 3.07259,0.85473 4.18452,2.74634 0.88005,1.49713 1.01234,2.10182 1.01208,4.62627 -2.3e-4,2.39267 -0.17205,3.27062 -0.97576,4.98601 -1.34143,2.86309 -2.66861,4.50517 -4.51643,5.58807 -1.37383,0.80512 -1.89345,0.90144 -4.20848,0.78014 -1.45263,-0.0761 -3.4151,-0.36754 -4.36105,-0.64763 -1.60199,-0.47434 -1.78866,-0.45882 -2.72252,0.22625 -0.55144,0.40453 -1.54628,1.54051 -2.21076,2.5244 -1.33893,1.98254 -2.24038,2.47879 -2.24038,1.23333 z m 26.04752,-3.89297 c -1.91451,-1.18706 -2.21044,-2.49375 -1.98806,-8.77837 0.33624,-9.50227 2.23836,-20.02682 3.66789,-20.29467 0.57578,-0.10788 0.64524,0.0249 0.44029,0.84141 -0.87203,3.47449 -1.42864,9.02868 -1.45611,14.53 -0.0274,5.48273 0.0502,6.33301 0.69519,7.62307 0.72379,1.44758 0.73254,1.45201 2.86485,1.45201 3.14381,0 3.36149,-0.40966 4.0513,-7.62453 1.13493,-11.87053 2.63222,-13.97438 14.12042,-19.84075 3.18474,-1.62627 7.32211,-3.99533 9.19417,-5.26459 1.87206,-1.26925 3.55433,-2.214658 3.73839,-2.100908 0.76347,0.471848 0.24631,1.825088 -1.24275,3.251858 -2.08517,1.99794 -6.56376,4.90028 -12.57971,8.15225 -6.55269,3.54211 -8.21597,4.61451 -9.11475,5.87672 -0.62888,0.88319 -0.83994,2.06258 -1.24324,6.94735 -0.86635,10.49309 -2.07945,14.59618 -4.57238,15.46522 -1.76777,0.61624 -5.41187,0.48542 -6.5755,-0.23607 z m -25.43715,-7.06902 c -1.0385,-0.44954 -1.69489,-0.96466 -1.68783,-1.32459 0.006,-0.32394 0.80715,-1.48562 1.77954,-2.58152 l 1.76799,-1.99255 1.54946,0.87084 1.54946,0.87085 1.42782,-1.69157 c 0.78529,-0.93037 1.67739,-1.69157 1.98244,-1.69157 0.94312,0 2.99985,1.47623 2.99985,2.15316 0,0.89601 -2.02757,3.6019 -3.04702,4.06639 -0.65564,0.29873 -1.11845,0.24397 -2.06204,-0.24397 l -1.21666,-0.62916 -1.10243,1.25576 c -1.48052,1.68644 -1.95211,1.79869 -3.94058,0.93793 z m 13.45599,-14.05014 c -0.94834,-0.98287 -1.72426,-1.86884 -1.72426,-1.96881 0,-0.33488 3.80676,-3.84753 4.17827,-3.85547 0.2017,-0.004 1.0593,0.66438 1.90576,1.48596 2.10376,2.04192 2.03658,2.82608 -0.39972,4.66551 -1.06631,0.80507 -2.00558,1.46289 -2.08726,1.46181 -0.0817,-10e-4 -0.92444,-0.80613 -1.87279,-1.789 z"
         style="fill:#f57215;fill-opacity:1;stroke-width:0.36300299" />
      <path
         sodipodi:nodetypes="cccccccccccccccsssccscsccccccscssscccccccccccccscsccccsscscscccccccccccccccsccccsscccccccccccssccccccsccccccscscccssccccccccccccccccsccsscsscccccccccccc"
         inkscape:connector-curvature="0"
         id="path844-7"
         d="m 21.659577,90.083758 v -1.08901 h 0.01788 l 0.0198,-14.42937 0.0198,-14.42937 2.97494,-2.43003 2.97493,-2.43001 0.18151,10.02303 0.1815,10.02304 3.14356,-3.33993 3.14356,-3.33992 4.05757,0.10295 4.05757,0.10294 -4.0543,4.28977 c -2.41952,2.56003 -3.97714,4.49082 -3.86295,4.7884 0.10524,0.27426 1.99703,3.19999 4.20398,6.50164 2.20695,3.30165 4.01263,6.08824 4.01263,6.19243 0,0.10419 -1.69287,0.18944 -3.76194,0.18944 h -3.76194 l -2.64021,-3.99303 c -1.45211,-2.19617 -2.75276,-3.99303 -2.89034,-3.99303 -0.13757,0 -0.60531,0.37806 -1.03941,0.84015 -0.69212,0.73672 -0.78928,1.25065 -0.78928,4.17453 v 3.33439 h -6.004893 -0.18405 z m 27.246963,0.37751 c -3.51382,-1.21283 -5.43552,-4.32384 -4.93972,-7.99682 0.54014,-4.00151 3.84336,-5.81181 10.60474,-5.81181 3.03691,0 3.08777,-0.0146 2.84822,-0.81675 -0.749,-2.50823 -3.74473,-3.00366 -7.5627,-1.25072 -1.17213,0.53816 -2.17775,0.97847 -2.23472,0.97847 -0.22265,0 -2.71271,-3.65203 -2.71271,-3.97858 0,-0.58686 2.96935,-2.12447 5.24906,-2.7181 5.83577,-1.51963 11.30857,-0.007 12.93542,3.57524 0.59607,1.31251 0.67668,2.48287 0.68371,9.92774 l 0.008,8.43982 h -2.90403 -2.90402 v -1.10748 -1.10748 l -1.17976,0.89033 c -1.24798,0.94182 -3.47951,1.69013 -4.99129,1.67376 -0.49913,-0.005 -1.80421,-0.31933 -2.90017,-0.69762 z m 6.48391,-5.25412 c 1.30896,-0.67689 1.72223,-1.21761 2.02973,-2.65571 l 0.25226,-1.17976 h -2.55278 c -2.99783,0 -4.33264,0.50495 -4.64713,1.75796 -0.17621,0.70208 -0.005,1.09882 0.75495,1.75278 1.12343,0.96634 2.68648,1.08826 4.16297,0.32473 z m 49.78154,5.25412 c -3.51381,-1.21283 -5.435507,-4.32384 -4.93971,-7.99682 0.53795,-3.98526 3.84732,-5.81181 10.52993,-5.81181 3.00301,0 3.01652,-0.004 2.848,-0.88578 -0.46309,-2.42247 -4.1045,-2.9588 -7.7289,-1.13837 l -1.96151,0.98521 -0.99079,-1.20479 c -0.54493,-0.66263 -1.19948,-1.58988 -1.45455,-2.06054 -0.40998,-0.75651 -0.36831,-0.93304 0.35934,-1.52225 2.39488,-1.93926 9.49096,-3.15826 12.62431,-2.16867 2.36485,0.74687 4.14218,2.11194 4.88767,3.75392 0.6132,1.3506 0.69042,2.45317 0.69751,9.95857 l 0.008,8.43982 h -2.90402 -2.90403 v -1.10748 -1.10748 l -1.17976,0.89033 c -1.24797,0.94182 -3.4795,1.69013 -4.99129,1.67376 -0.49913,-0.005 -1.80421,-0.31933 -2.90017,-0.69762 z m 6.57683,-5.30217 c 0.97352,-0.50342 2.13139,-2.3574 2.13139,-3.41275 0,-0.51626 -4.81404,-0.48121 -5.96549,0.0434 -1.60491,0.73124 -1.66642,2.74574 -0.10682,3.49846 1.17875,0.56891 2.68659,0.5195 3.94092,-0.12914 z m 27.9046,-1.10078 c 0,-5.71327 -0.11225,-7.35101 -0.56997,-8.31558 -1.30272,-2.74527 -5.03628,-2.43321 -6.72313,0.56193 -0.36366,0.64571 -0.53836,2.77443 -0.6318,7.69879 l -0.12917,6.8063 h -3.05152 -3.05152 v -15.24612 -15.24613 h 3.08552 3.08553 v 5.32682 5.32682 l 0.82171,-0.77196 c 2.7746,-2.60661 8.05728,-2.50456 10.91838,0.21091 2.34873,2.22918 2.57491,3.16472 2.71601,11.23384 l 0.12855,7.35081 h 0.009 v 1.08901 1.08901 h -6.60752 z m -69.69656,-1.96063 v -8.71207 h -1.27051 -1.27051 v -2.35952 -2.35952 h 1.23645 c 1.2168,0 1.24054,-0.0303 1.49457,-1.90577 0.54497,-4.02353 2.60502,-6.2606 6.39858,-6.94838 2.3756,-0.4307 7.18699,1.27083 7.20104,2.54663 0.003,0.30826 -1.48336,3.3101 -2.00762,4.0535 -0.0409,0.058 -0.6686,-0.24508 -1.39483,-0.67357 -2.15652,-1.27238 -3.85312,-0.29257 -3.85312,2.22521 0,0.63207 0.27254,0.70238 2.72252,0.70238 h 2.72253 v 2.35952 2.35952 h -2.72253 -2.72252 v 8.71207 8.71207 h -3.26703 -3.26702 z m 16.33513,0 v -8.71207 h -1.27051 -1.27051 v -2.35952 -2.35952 h 1.27051 c 1.14352,0 1.27071,-0.0998 1.27254,-0.99826 0.0126,-6.21585 6.33735,-9.84079 11.89364,-6.81668 1.04415,0.56829 1.89845,1.16703 1.89845,1.33053 0,0.58983 -1.97388,4.30639 -2.28714,4.30639 -0.17648,0 -0.73621,-0.3267 -1.24384,-0.72601 -0.50763,-0.3993 -1.22764,-0.726 -1.60002,-0.726 -1.02668,0 -2.12906,1.31568 -2.12906,2.54102 v 1.08901 h 2.72252 2.72252 v 2.35952 2.35952 h -2.72252 -2.72252 v 8.71207 8.71207 h -3.26703 -3.26703 z"
         style="fill:#000000;stroke-width:0.36300299" />
      <g
         transform="translate(-17.857595,13.561031)"
         id="text878"
         style="font-style:normal;font-variant:normal;font-weight:normal;font-stretch:normal;font-size:10.52432728px;line-height:6.57770395px;font-family:Impact;-inkscape-font-specification:Impact;letter-spacing:0px;word-spacing:0px;fill:#000000;fill-opacity:1;stroke:none;stroke-width:0.26310816px;stroke-linecap:butt;stroke-linejoin:miter;stroke-opacity:1"
         aria-label="Bulet in Dakwah">
        <path
           inkscape:connector-curvature="0"
           id="path905"
           style="font-style:normal;font-variant:normal;font-weight:bold;font-stretch:normal;font-family:Calibri;-inkscape-font-specification:Calibri;stroke-width:0.26310816px"
           d="m 100.58302,37.451957 q 0,0.354579 -0.0976,0.642354 -0.0976,0.287775 -0.27236,0.508744 -0.16958,0.22097 -0.411104,0.380274 -0.236386,0.159304 -0.524161,0.26208 -0.287774,0.102777 -0.61666,0.154165 -0.323746,0.04625 -0.724575,0.04625 h -1.767758 q -0.169581,0 -0.287775,-0.09764 -0.113054,-0.102777 -0.113054,-0.328885 v -5.796602 q 0,-0.226109 0.113054,-0.323747 0.118194,-0.102777 0.287775,-0.102777 h 1.67012 q 0.611521,0 1.032905,0.102777 0.426523,0.102777 0.714298,0.313469 0.292913,0.205553 0.447075,0.524161 0.15417,0.318607 0.15417,0.750269 0,0.241525 -0.0617,0.457356 -0.0617,0.210692 -0.179857,0.385412 -0.118193,0.174721 -0.292913,0.30833 -0.169582,0.13361 -0.390551,0.215831 0.282635,0.05139 0.519022,0.179859 0.241529,0.128471 0.416249,0.334024 0.17986,0.200415 0.28263,0.472773 0.10278,0.272358 0.10278,0.611521 z m -1.747204,-2.800663 q 0,-0.200415 -0.06167,-0.359719 -0.06167,-0.159303 -0.184998,-0.26208 -0.123332,-0.107915 -0.313469,-0.164443 -0.184998,-0.05653 -0.498467,-0.05653 h -0.683464 v 1.726648 h 0.755408 q 0.292913,0 0.467634,-0.06681 0.17472,-0.07194 0.287774,-0.190137 0.118193,-0.123332 0.17472,-0.282636 0.05653,-0.164442 0.05653,-0.344301 z m 0.344301,2.846912 q 0,-0.231247 -0.07708,-0.411106 -0.07708,-0.184998 -0.226109,-0.30833 -0.149026,-0.123332 -0.380273,-0.190137 -0.231248,-0.06681 -0.601244,-0.06681 h -0.801657 v 1.891091 h 0.976378 q 0.282635,0 0.472772,-0.05653 0.195276,-0.06167 0.334024,-0.17472 0.143888,-0.118193 0.22097,-0.287774 0.08222,-0.174721 0.08222,-0.395691 z" />
        <path
           inkscape:connector-curvature="0"
           id="path907"
           style="font-style:normal;font-variant:normal;font-weight:bold;font-stretch:normal;font-family:Calibri;-inkscape-font-specification:Calibri;stroke-width:0.26310816px"
           d="m 105.93768,39.271103 q 0,0.05139 -0.0257,0.0925 -0.0257,0.03597 -0.0925,0.06167 -0.0617,0.02569 -0.16958,0.03597 -0.10278,0.01542 -0.26208,0.01542 -0.16959,0 -0.2775,-0.01542 -0.10278,-0.01028 -0.16444,-0.03597 -0.0617,-0.02569 -0.0874,-0.06167 -0.0257,-0.04111 -0.0257,-0.0925 v -0.529299 q -0.38027,0.411106 -0.77596,0.61666 -0.39055,0.205553 -0.81194,0.205553 -0.47277,0 -0.79652,-0.154165 -0.3186,-0.154165 -0.51902,-0.421384 -0.19527,-0.26722 -0.28263,-0.61666 -0.0822,-0.35458 -0.0822,-0.87874 v -2.805802 q 0,-0.05139 0.0257,-0.08736 0.0308,-0.04111 0.10278,-0.0668 0.0771,-0.02569 0.20041,-0.03597 0.12847,-0.01542 0.31347,-0.01542 0.19014,0 0.31347,0.01542 0.12333,0.01028 0.19527,0.03597 0.0771,0.02569 0.10792,0.0668 0.0308,0.03597 0.0308,0.08736 v 2.589971 q 0,0.359718 0.0463,0.549855 0.0462,0.190136 0.13875,0.328885 0.0976,0.13361 0.24153,0.210692 0.14902,0.07194 0.3443,0.07194 0.24666,0 0.49332,-0.179859 0.25181,-0.17986 0.53444,-0.524161 v -3.047327 q 0,-0.05139 0.0257,-0.08736 0.0308,-0.04111 0.10277,-0.0668 0.0771,-0.02569 0.20042,-0.03597 0.12333,-0.01542 0.31347,-0.01542 0.19013,0 0.31347,0.01542 0.12333,0.01028 0.19527,0.03597 0.072,0.02569 0.10278,0.0668 0.0308,0.03597 0.0308,0.08736 z" />
        <path
           inkscape:connector-curvature="0"
           id="path909"
           style="font-style:normal;font-variant:normal;font-weight:bold;font-stretch:normal;font-family:Calibri;-inkscape-font-specification:Calibri;stroke-width:0.26310816px"
           d="m 108.53793,39.271103 q 0,0.05139 -0.0308,0.0925 -0.0308,0.03597 -0.10792,0.06167 -0.0719,0.02569 -0.19527,0.03597 -0.12334,0.01542 -0.31347,0.01542 -0.19014,0 -0.31347,-0.01542 -0.12333,-0.01028 -0.20042,-0.03597 -0.0719,-0.02569 -0.10277,-0.06167 -0.0308,-0.04111 -0.0308,-0.0925 V 32.51354 q 0,-0.05139 0.0308,-0.0925 0.0308,-0.04111 0.10277,-0.06681 0.0771,-0.03083 0.20042,-0.04625 0.12333,-0.01542 0.31347,-0.01542 0.19013,0 0.31347,0.01542 0.12333,0.01542 0.19527,0.04625 0.0771,0.02569 0.10792,0.06681 0.0308,0.04111 0.0308,0.0925 z" />
        <path
           inkscape:connector-curvature="0"
           id="path911"
           style="font-style:normal;font-variant:normal;font-weight:bold;font-stretch:normal;font-family:Calibri;-inkscape-font-specification:Calibri;stroke-width:0.26310816px"
           d="m 114.06731,36.845575 q 0,0.236386 -0.10791,0.34944 -0.10278,0.113055 -0.28778,0.113055 h -2.79038 q 0,0.292913 0.0668,0.534438 0.072,0.236386 0.22097,0.405968 0.15417,0.164443 0.39055,0.251803 0.24153,0.08736 0.57555,0.08736 0.33917,0 0.59611,-0.04625 0.25694,-0.05139 0.44194,-0.107915 0.19013,-0.06167 0.31347,-0.107916 0.12333,-0.05139 0.20041,-0.05139 0.0463,0 0.0771,0.02056 0.0308,0.01542 0.0514,0.06167 0.0206,0.04625 0.0257,0.13361 0.0103,0.08222 0.0103,0.210692 0,0.113054 -0.005,0.195276 -0.005,0.07708 -0.0154,0.133609 -0.0103,0.05653 -0.0308,0.09764 -0.0206,0.03597 -0.0565,0.07194 -0.0308,0.03597 -0.17986,0.09764 -0.14903,0.06167 -0.38028,0.123332 -0.23124,0.05653 -0.5293,0.09764 -0.29805,0.04625 -0.63721,0.04625 -0.61152,0 -1.07402,-0.154165 -0.45735,-0.154165 -0.76568,-0.467634 -0.30833,-0.313469 -0.4625,-0.79138 -0.14902,-0.477911 -0.14902,-1.120265 0,-0.611521 0.1593,-1.09971 0.1593,-0.493328 0.4625,-0.832491 0.30319,-0.344302 0.73485,-0.524161 0.4368,-0.179859 0.98151,-0.179859 0.57555,0 0.98152,0.169582 0.41111,0.169581 0.67319,0.472772 0.26208,0.298052 0.38541,0.709159 0.12333,0.411106 0.12333,0.894157 z m -1.25387,-0.369996 q 0.0154,-0.544716 -0.22097,-0.853046 -0.23125,-0.313469 -0.71944,-0.313469 -0.24666,0 -0.43166,0.0925 -0.17986,0.0925 -0.30319,0.251803 -0.11819,0.154165 -0.185,0.369996 -0.0617,0.210692 -0.0719,0.452217 z" />
        <path
           inkscape:connector-curvature="0"
           id="path913"
           style="font-style:normal;font-variant:normal;font-weight:bold;font-stretch:normal;font-family:Calibri;-inkscape-font-specification:Calibri;stroke-width:0.26310816px"
           d="m 117.78783,38.818886 q 0,0.226109 -0.0308,0.349441 -0.0257,0.118193 -0.0719,0.169581 -0.0463,0.04625 -0.13875,0.08736 -0.0874,0.03597 -0.21069,0.06167 -0.11819,0.03083 -0.26208,0.04625 -0.13875,0.01542 -0.28264,0.01542 -0.38541,0 -0.66804,-0.09764 -0.28264,-0.09764 -0.46764,-0.298053 -0.185,-0.205553 -0.27236,-0.513883 -0.0874,-0.30833 -0.0874,-0.729714 v -2.348446 h -0.54985 q -0.0976,0 -0.14903,-0.118193 -0.0514,-0.123332 -0.0514,-0.405968 0,-0.149026 0.0103,-0.251803 0.0154,-0.102776 0.0411,-0.159303 0.0257,-0.06167 0.0617,-0.08736 0.0411,-0.02569 0.0925,-0.02569 h 0.54471 v -1.022627 q 0,-0.05139 0.0257,-0.0925 0.0308,-0.04111 0.10277,-0.06681 0.0771,-0.03083 0.20042,-0.04111 0.12847,-0.01542 0.31347,-0.01542 0.19013,0 0.31347,0.01542 0.12847,0.01028 0.20041,0.04111 0.0719,0.02569 0.10278,0.06681 0.0308,0.04111 0.0308,0.0925 v 1.022627 h 0.99693 q 0.0514,0 0.0874,0.02569 0.0411,0.0257 0.0668,0.08736 0.0257,0.05653 0.036,0.159303 0.0154,0.102777 0.0154,0.251803 0,0.282636 -0.0514,0.405968 -0.0514,0.118193 -0.14903,0.118193 h -1.00207 v 2.15317 q 0,0.375135 0.11819,0.565272 0.1182,0.184998 0.42139,0.184998 0.10277,0 0.185,-0.01542 0.0822,-0.02056 0.14388,-0.04111 0.0668,-0.02569 0.10792,-0.04111 0.0463,-0.02056 0.0822,-0.02056 0.0308,0 0.0565,0.02056 0.0308,0.01542 0.0463,0.07194 0.0154,0.05139 0.0257,0.143887 0.0154,0.0925 0.0154,0.236386 z" />
        <path
           inkscape:connector-curvature="0"
           id="path915"
           style="font-style:normal;font-variant:normal;font-weight:bold;font-stretch:normal;font-family:Calibri;-inkscape-font-specification:Calibri;stroke-width:0.26310816px"
           d="m 120.03547,39.271103 q 0,0.05139 -0.0308,0.0925 -0.0308,0.03597 -0.10791,0.06167 -0.072,0.02569 -0.19528,0.03597 -0.12333,0.01542 -0.31347,0.01542 -0.19013,0 -0.31347,-0.01542 -0.12333,-0.01028 -0.20041,-0.03597 -0.0719,-0.02569 -0.10278,-0.06167 -0.0308,-0.04111 -0.0308,-0.0925 v -4.57356 q 0,-0.05139 0.0308,-0.08736 0.0308,-0.04111 0.10278,-0.06681 0.0771,-0.03083 0.20041,-0.04625 0.12334,-0.01542 0.31347,-0.01542 0.19014,0 0.31347,0.01542 0.12333,0.01542 0.19528,0.04625 0.0771,0.02569 0.10791,0.06681 0.0308,0.03597 0.0308,0.08736 z m 0.0976,-6.135765 q 0,0.390552 -0.1593,0.539578 -0.1593,0.149026 -0.59097,0.149026 -0.4368,0 -0.59096,-0.143887 -0.14903,-0.143888 -0.14903,-0.519022 0,-0.390552 0.15417,-0.539578 0.1593,-0.154165 0.5961,-0.154165 0.43166,0 0.58583,0.149026 0.15416,0.143888 0.15416,0.519022 z" />
        <path
           inkscape:connector-curvature="0"
           id="path917"
           style="font-style:normal;font-variant:normal;font-weight:bold;font-stretch:normal;font-family:Calibri;-inkscape-font-specification:Calibri;stroke-width:0.26310816px"
           d="m 125.70874,39.271103 q 0,0.05139 -0.0308,0.0925 -0.0308,0.03597 -0.10277,0.06167 -0.072,0.02569 -0.20042,0.03597 -0.12333,0.01542 -0.30833,0.01542 -0.19013,0 -0.31861,-0.01542 -0.12333,-0.01028 -0.19527,-0.03597 -0.0719,-0.02569 -0.10278,-0.06167 -0.0308,-0.04111 -0.0308,-0.0925 v -2.615665 q 0,-0.334024 -0.0514,-0.524161 -0.0463,-0.190137 -0.13875,-0.323746 -0.0925,-0.138749 -0.24152,-0.210692 -0.14389,-0.07708 -0.33917,-0.07708 -0.24666,0 -0.49846,0.179859 -0.25181,0.179859 -0.52416,0.524161 v 3.047327 q 0,0.05139 -0.0308,0.0925 -0.0308,0.03597 -0.10791,0.06167 -0.072,0.02569 -0.19528,0.03597 -0.12333,0.01542 -0.31347,0.01542 -0.19013,0 -0.31346,-0.01542 -0.12334,-0.01028 -0.20042,-0.03597 -0.0719,-0.02569 -0.10278,-0.06167 -0.0308,-0.04111 -0.0308,-0.0925 v -4.583837 q 0,-0.05139 0.0257,-0.08736 0.0257,-0.04111 0.0925,-0.0668 0.0668,-0.02569 0.16959,-0.03597 0.10791,-0.01542 0.26722,-0.01542 0.16444,0 0.27235,0.01542 0.10792,0.01028 0.16445,0.03597 0.0617,0.02569 0.0874,0.0668 0.0257,0.03597 0.0257,0.08736 v 0.529299 q 0.38027,-0.411106 0.77082,-0.61666 0.39569,-0.205553 0.82222,-0.205553 0.46763,0 0.78624,0.154165 0.32375,0.154165 0.51902,0.421384 0.20042,0.262081 0.28778,0.61666 0.0874,0.354579 0.0874,0.853046 z" />
        <path
           inkscape:connector-curvature="0"
           id="path919"
           style="font-style:normal;font-variant:normal;font-weight:bold;font-stretch:normal;font-family:Calibri;-inkscape-font-specification:Calibri;stroke-width:0.26310816px"
           d="m 134.96891,36.023362 q 0,0.914712 -0.24153,1.567343 -0.23638,0.647493 -0.68346,1.0586 -0.44708,0.411106 -1.08943,0.606382 -0.63722,0.190137 -1.5211,0.190137 h -1.5879 q -0.16958,0 -0.28777,-0.09764 -0.11305,-0.102777 -0.11305,-0.328885 v -5.796602 q 0,-0.226109 0.11305,-0.323747 0.11819,-0.102777 0.28777,-0.102777 h 1.7061 q 0.88901,0 1.50567,0.210693 0.6218,0.205553 1.04319,0.616659 0.42652,0.405968 0.64749,1.007211 0.22097,0.601244 0.22097,1.392624 z m -1.39776,0.04625 q 0,-0.472772 -0.11306,-0.87874 -0.10791,-0.405968 -0.35458,-0.70402 -0.24152,-0.298052 -0.62693,-0.462495 -0.38028,-0.169581 -1.00208,-0.169581 h -0.68346 v 4.522172 h 0.70402 q 0.55499,0 0.93527,-0.143888 0.38027,-0.143887 0.63207,-0.431661 0.25695,-0.292914 0.38028,-0.724576 0.12847,-0.431662 0.12847,-1.007211 z" />
        <path
           inkscape:connector-curvature="0"
           id="path921"
           style="font-style:normal;font-variant:normal;font-weight:bold;font-stretch:normal;font-family:Calibri;-inkscape-font-specification:Calibri;stroke-width:0.26310816px"
           d="m 139.91247,39.28652 q 0,0.07194 -0.0514,0.113054 -0.0514,0.04111 -0.16445,0.05653 -0.10791,0.02056 -0.32374,0.02056 -0.23125,0 -0.33916,-0.02056 -0.10278,-0.01542 -0.14903,-0.05653 -0.0411,-0.04111 -0.0411,-0.113054 v -0.364857 q -0.28264,0.303191 -0.64749,0.472772 -0.35972,0.169582 -0.80166,0.169582 -0.36486,0 -0.67319,-0.09764 -0.30319,-0.0925 -0.5293,-0.277497 -0.22097,-0.190137 -0.3443,-0.467634 -0.12333,-0.277497 -0.12333,-0.647492 0,-0.400829 0.15416,-0.693743 0.15931,-0.298052 0.46764,-0.488189 0.31347,-0.195275 0.77596,-0.287774 0.46249,-0.0925 1.07402,-0.0925 h 0.44707 v -0.277497 q 0,-0.215831 -0.0462,-0.375135 -0.0411,-0.164442 -0.14388,-0.272358 -0.0976,-0.107915 -0.26722,-0.159304 -0.16444,-0.05139 -0.41111,-0.05139 -0.32374,0 -0.58069,0.07194 -0.2518,0.07194 -0.44707,0.159303 -0.19528,0.08736 -0.32889,0.159304 -0.12847,0.07194 -0.21069,0.07194 -0.0565,0 -0.10278,-0.03597 -0.0411,-0.03597 -0.0719,-0.102777 -0.0257,-0.0668 -0.0411,-0.164442 -0.0154,-0.09764 -0.0154,-0.215831 0,-0.159304 0.0257,-0.251803 0.0257,-0.0925 0.0976,-0.164443 0.0719,-0.07708 0.25181,-0.164442 0.17985,-0.0925 0.42138,-0.169582 0.24152,-0.07708 0.52416,-0.123332 0.28777,-0.05139 0.59097,-0.05139 0.53957,0 0.91985,0.107916 0.38541,0.102776 0.63207,0.323746 0.24667,0.215831 0.35972,0.560133 0.11306,0.344301 0.11306,0.817074 z m -1.2693,-1.963034 h -0.49332 q -0.31347,0 -0.53444,0.04625 -0.22097,0.04625 -0.35972,0.138748 -0.13875,0.0925 -0.20555,0.226109 -0.0617,0.128471 -0.0617,0.298052 0,0.287775 0.17986,0.452217 0.185,0.164443 0.50874,0.164443 0.27236,0 0.49847,-0.138749 0.23125,-0.138748 0.46763,-0.405967 z" />
        <path
           inkscape:connector-curvature="0"
           id="path923"
           style="font-style:normal;font-variant:normal;font-weight:bold;font-stretch:normal;font-family:Calibri;-inkscape-font-specification:Calibri;stroke-width:0.26310816px"
           d="m 145.46754,39.276242 q 0,0.05139 -0.0308,0.0925 -0.0257,0.03597 -0.10278,0.06167 -0.0719,0.02056 -0.20041,0.03083 -0.12847,0.01542 -0.33403,0.01542 -0.21069,0 -0.3443,-0.01028 -0.12847,-0.01028 -0.21583,-0.03083 -0.0822,-0.02569 -0.12847,-0.06681 -0.0463,-0.04111 -0.0822,-0.107915 l -1.52623,-2.415251 v 2.425528 q 0,0.05139 -0.0308,0.0925 -0.0308,0.03597 -0.10791,0.06167 -0.072,0.02569 -0.19528,0.03597 -0.12333,0.01542 -0.31347,0.01542 -0.19013,0 -0.31347,-0.01542 -0.12333,-0.01028 -0.20041,-0.03597 -0.0719,-0.02569 -0.10278,-0.06167 -0.0308,-0.04111 -0.0308,-0.0925 V 32.51354 q 0,-0.05139 0.0308,-0.0925 0.0308,-0.04111 0.10278,-0.06681 0.0771,-0.03083 0.20041,-0.04625 0.12334,-0.01542 0.31347,-0.01542 0.19014,0 0.31347,0.01542 0.12333,0.01542 0.19528,0.04625 0.0771,0.02569 0.10791,0.06681 0.0308,0.04111 0.0308,0.0925 v 4.023705 l 1.35665,-1.824285 q 0.0411,-0.06167 0.0925,-0.107916 0.0514,-0.04625 0.13361,-0.07194 0.0874,-0.02569 0.21069,-0.03597 0.12847,-0.01542 0.32374,-0.01542 0.19014,0 0.31861,0.01542 0.13361,0.01028 0.21069,0.03597 0.0822,0.02569 0.11306,0.0668 0.0308,0.03597 0.0308,0.0925 0,0.07708 -0.0411,0.164443 -0.036,0.08736 -0.11305,0.184998 l -1.34124,1.521094 1.55193,2.399834 q 0.0617,0.102777 0.0874,0.17986 0.0308,0.07194 0.0308,0.133609 z" />
        <path
           inkscape:connector-curvature="0"
           id="path925"
           style="font-style:normal;font-variant:normal;font-weight:bold;font-stretch:normal;font-family:Calibri;-inkscape-font-specification:Calibri;stroke-width:0.26310816px"
           d="m 153.27857,34.676988 q 0,0.05653 -0.0154,0.138748 -0.0154,0.08222 -0.0565,0.236387 l -1.22304,4.147037 q -0.0257,0.08736 -0.0668,0.143887 -0.0411,0.05139 -0.12848,0.08222 -0.0822,0.03083 -0.24152,0.04111 -0.15417,0.01028 -0.40597,0.01028 -0.2518,0 -0.41111,-0.01542 -0.1593,-0.01028 -0.2518,-0.04111 -0.0874,-0.03083 -0.12847,-0.08222 -0.0411,-0.05653 -0.0617,-0.138748 l -0.77083,-2.785247 -0.0103,-0.04625 -0.0103,0.04625 -0.70916,2.785247 q -0.0206,0.08736 -0.0617,0.143887 -0.036,0.05139 -0.12847,0.08222 -0.0925,0.03083 -0.2518,0.04111 -0.15931,0.01028 -0.41111,0.01028 -0.25694,0 -0.41624,-0.01542 -0.15417,-0.01028 -0.24667,-0.04111 -0.0874,-0.03083 -0.12847,-0.08222 -0.0411,-0.05653 -0.0617,-0.138748 l -1.21276,-4.147037 q -0.0462,-0.149027 -0.0617,-0.231248 -0.0103,-0.08736 -0.0103,-0.143887 0,-0.05139 0.0257,-0.08736 0.0308,-0.04111 0.10278,-0.06167 0.0771,-0.02569 0.20041,-0.03597 0.12847,-0.01028 0.31861,-0.01028 0.20555,0 0.33402,0.01028 0.12847,0.01028 0.20042,0.03597 0.0719,0.02569 0.0976,0.07194 0.0308,0.04111 0.0463,0.102777 l 0.90957,3.365935 0.0103,0.06167 0.0103,-0.06167 0.85305,-3.365935 q 0.0154,-0.06167 0.0463,-0.102777 0.036,-0.04625 0.10278,-0.07194 0.0668,-0.02569 0.18499,-0.03597 0.12334,-0.01028 0.31347,-0.01028 0.19014,0 0.30833,0.01542 0.1182,0.01028 0.185,0.03597 0.0719,0.02055 0.0976,0.06167 0.0308,0.03597 0.0463,0.08736 l 0.91471,3.391629 0.0154,0.05653 0.0103,-0.06167 0.87361,-3.365935 q 0.0103,-0.06167 0.0411,-0.102777 0.0308,-0.04625 0.10277,-0.07194 0.072,-0.02569 0.19528,-0.03597 0.12333,-0.01028 0.31347,-0.01028 0.19013,0 0.30833,0.01028 0.12333,0.01028 0.19013,0.03597 0.0719,0.02055 0.0976,0.06167 0.0257,0.03597 0.0257,0.08736 z" />
        <path
           inkscape:connector-curvature="0"
           id="path927"
           style="font-style:normal;font-variant:normal;font-weight:bold;font-stretch:normal;font-family:Calibri;-inkscape-font-specification:Calibri;stroke-width:0.26310816px"
           d="m 157.91893,39.28652 q 0,0.07194 -0.0514,0.113054 -0.0514,0.04111 -0.16444,0.05653 -0.10791,0.02056 -0.32375,0.02056 -0.23124,0 -0.33916,-0.02056 -0.10278,-0.01542 -0.14902,-0.05653 -0.0411,-0.04111 -0.0411,-0.113054 v -0.364857 q -0.28263,0.303191 -0.64749,0.472772 -0.35972,0.169582 -0.80166,0.169582 -0.36485,0 -0.67318,-0.09764 -0.30319,-0.0925 -0.5293,-0.277497 -0.22097,-0.190137 -0.3443,-0.467634 -0.12334,-0.277497 -0.12334,-0.647492 0,-0.400829 0.15417,-0.693743 0.1593,-0.298052 0.46763,-0.488189 0.31347,-0.195275 0.77597,-0.287774 0.46249,-0.0925 1.07401,-0.0925 h 0.44708 v -0.277497 q 0,-0.215831 -0.0462,-0.375135 -0.0411,-0.164442 -0.14389,-0.272358 -0.0976,-0.107915 -0.26722,-0.159304 -0.16444,-0.05139 -0.4111,-0.05139 -0.32375,0 -0.58069,0.07194 -0.2518,0.07194 -0.44708,0.159303 -0.19527,0.08736 -0.32888,0.159304 -0.12847,0.07194 -0.2107,0.07194 -0.0565,0 -0.10277,-0.03597 -0.0411,-0.03597 -0.072,-0.102777 -0.0257,-0.0668 -0.0411,-0.164442 -0.0154,-0.09764 -0.0154,-0.215831 0,-0.159304 0.0257,-0.251803 0.0257,-0.0925 0.0976,-0.164443 0.0719,-0.07708 0.2518,-0.164442 0.17986,-0.0925 0.42139,-0.169582 0.24152,-0.07708 0.52416,-0.123332 0.28777,-0.05139 0.59096,-0.05139 0.53958,0 0.91985,0.107916 0.38541,0.102776 0.63208,0.323746 0.24666,0.215831 0.35972,0.560133 0.11305,0.344301 0.11305,0.817074 z m -1.26929,-1.963034 h -0.49333 q -0.31347,0 -0.53444,0.04625 -0.22097,0.04625 -0.35971,0.138748 -0.13875,0.0925 -0.20556,0.226109 -0.0617,0.128471 -0.0617,0.298052 0,0.287775 0.17986,0.452217 0.18499,0.164443 0.50874,0.164443 0.27236,0 0.49847,-0.138749 0.23124,-0.138748 0.46763,-0.405967 z" />
        <path
           inkscape:connector-curvature="0"
           id="path929"
           style="font-style:normal;font-variant:normal;font-weight:bold;font-stretch:normal;font-family:Calibri;-inkscape-font-specification:Calibri;stroke-width:0.26310816px"
           d="m 163.5922,39.271103 q 0,0.05139 -0.0308,0.0925 -0.0308,0.03597 -0.10278,0.06167 -0.0719,0.02569 -0.20041,0.03597 -0.12334,0.01542 -0.30833,0.01542 -0.19014,0 -0.31861,-0.01542 -0.12333,-0.01028 -0.19528,-0.03597 -0.0719,-0.02569 -0.10277,-0.06167 -0.0308,-0.04111 -0.0308,-0.0925 v -2.615665 q 0,-0.334024 -0.0514,-0.524161 -0.0462,-0.190137 -0.13875,-0.323746 -0.0925,-0.138749 -0.24153,-0.210692 -0.14389,-0.07708 -0.33916,-0.07708 -0.24666,0 -0.49847,0.179859 -0.2518,0.179859 -0.52416,0.524161 v 3.047327 q 0,0.05139 -0.0308,0.0925 -0.0308,0.03597 -0.10792,0.06167 -0.0719,0.02569 -0.19527,0.03597 -0.12333,0.01542 -0.31347,0.01542 -0.19014,0 -0.31347,-0.01542 -0.12333,-0.01028 -0.20041,-0.03597 -0.0719,-0.02569 -0.10278,-0.06167 -0.0308,-0.04111 -0.0308,-0.0925 V 32.51354 q 0,-0.05139 0.0308,-0.0925 0.0308,-0.04111 0.10278,-0.06681 0.0771,-0.03083 0.20041,-0.04625 0.12333,-0.01542 0.31347,-0.01542 0.19014,0 0.31347,0.01542 0.12333,0.01542 0.19527,0.04625 0.0771,0.02569 0.10792,0.06681 0.0308,0.04111 0.0308,0.0925 v 2.533444 q 0.33403,-0.328885 0.67833,-0.488189 0.34944,-0.164443 0.72457,-0.164443 0.46764,0 0.78624,0.154165 0.32375,0.154165 0.51903,0.421384 0.20041,0.26722 0.28777,0.626938 0.0874,0.354579 0.0874,0.863323 z" />
      </g>
    </g>
  </g>
</svg>
