<?xml version="1.0" encoding="UTF-8" standalone="no"?>
<!-- Created with Inkscape (http://www.inkscape.org/) -->

<svg
   xmlns:dc="http://purl.org/dc/elements/1.1/"
   xmlns:cc="http://creativecommons.org/ns#"
   xmlns:rdf="http://www.w3.org/1999/02/22-rdf-syntax-ns#"
   xmlns:svg="http://www.w3.org/2000/svg"
   xmlns="http://www.w3.org/2000/svg"
   xmlns:sodipodi="http://sodipodi.sourceforge.net/DTD/sodipodi-0.dtd"
   xmlns:inkscape="http://www.inkscape.org/namespaces/inkscape"
   width="793.70081"
   height="400"
   viewBox="0 0 210 105.83334"
   version="1.1"
   id="svg8"
   inkscape:version="0.92.4 (5da689c313, 2019-01-14)"
   sodipodi:docname="logo-kaffah.svg">
  <defs
     id="defs2" />
  <sodipodi:namedview
     id="base"
     pagecolor="#ffffff"
     bordercolor="#666666"
     borderopacity="1.0"
     inkscape:pageopacity="0.0"
     inkscape:pageshadow="2"
     inkscape:zoom="0.43030393"
     inkscape:cx="274.72939"
     inkscape:cy="-132.21183"
     inkscape:document-units="mm"
     inkscape:current-layer="layer1"
     showgrid="false"
     inkscape:snap-global="false"
     units="px" />
  <metadata
     id="metadata5">
    <rdf:RDF>
      <cc:Work
         rdf:about="">
        <dc:format>image/svg+xml</dc:format>
        <dc:type
           rdf:resource="http://purl.org/dc/dcmitype/StillImage" />
        <dc:title />
      </cc:Work>
    </rdf:RDF>
  </metadata>
  <g
     inkscape:label="Layer 1"
     inkscape:groupmode="layer"
     id="layer1"
     transform="translate(0,-191.16666)">
    <g
       id="g953"
       inkscape:export-xdpi="96"
       inkscape:export-ydpi="96">
      <g
         transform="matrix(1.353445,0,0,1.353445,-48.729737,188.40245)"
         id="text878"
         style="font-style:normal;font-variant:normal;font-weight:normal;font-stretch:normal;font-size:10.52432728px;line-height:6.57770395px;font-family:Impact;-inkscape-font-specification:Impact;letter-spacing:0px;word-spacing:0px;fill:#000000;fill-opacity:1;stroke:none;stroke-width:0.26310816px;stroke-linecap:butt;stroke-linejoin:miter;stroke-opacity:1"
         aria-label="Bulet in Dakwah">
        <path
           inkscape:connector-curvature="0"
           id="path905"
           style="font-style:normal;font-variant:normal;font-weight:bold;font-stretch:normal;font-family:Calibri;-inkscape-font-specification:Calibri;stroke-width:0.26310816px"
           d="m 100.58302,37.451957 q 0,0.354579 -0.0976,0.642354 -0.0976,0.287775 -0.27236,0.508744 -0.16958,0.22097 -0.411104,0.380274 -0.236386,0.159304 -0.524161,0.26208 -0.287774,0.102777 -0.61666,0.154165 -0.323746,0.04625 -0.724575,0.04625 h -1.767758 q -0.169581,0 -0.287775,-0.09764 -0.113054,-0.102777 -0.113054,-0.328885 v -5.796602 q 0,-0.226109 0.113054,-0.323747 0.118194,-0.102777 0.287775,-0.102777 h 1.67012 q 0.611521,0 1.032905,0.102777 0.426523,0.102777 0.714298,0.313469 0.292913,0.205553 0.447075,0.524161 0.15417,0.318607 0.15417,0.750269 0,0.241525 -0.0617,0.457356 -0.0617,0.210692 -0.179857,0.385412 -0.118193,0.174721 -0.292913,0.30833 -0.169582,0.13361 -0.390551,0.215831 0.282635,0.05139 0.519022,0.179859 0.241529,0.128471 0.416249,0.334024 0.17986,0.200415 0.28263,0.472773 0.10278,0.272358 0.10278,0.611521 z m -1.747204,-2.800663 q 0,-0.200415 -0.06167,-0.359719 -0.06167,-0.159303 -0.184998,-0.26208 -0.123332,-0.107915 -0.313469,-0.164443 -0.184998,-0.05653 -0.498467,-0.05653 h -0.683464 v 1.726648 h 0.755408 q 0.292913,0 0.467634,-0.06681 0.17472,-0.07194 0.287774,-0.190137 0.118193,-0.123332 0.17472,-0.282636 0.05653,-0.164442 0.05653,-0.344301 z m 0.344301,2.846912 q 0,-0.231247 -0.07708,-0.411106 -0.07708,-0.184998 -0.226109,-0.30833 -0.149026,-0.123332 -0.380273,-0.190137 -0.231248,-0.06681 -0.601244,-0.06681 h -0.801657 v 1.891091 h 0.976378 q 0.282635,0 0.472772,-0.05653 0.195276,-0.06167 0.334024,-0.17472 0.143888,-0.118193 0.22097,-0.287774 0.08222,-0.174721 0.08222,-0.395691 z" />
        <path
           inkscape:connector-curvature="0"
           id="path907"
           style="font-style:normal;font-variant:normal;font-weight:bold;font-stretch:normal;font-family:Calibri;-inkscape-font-specification:Calibri;stroke-width:0.26310816px"
           d="m 105.93768,39.271103 q 0,0.05139 -0.0257,0.0925 -0.0257,0.03597 -0.0925,0.06167 -0.0617,0.02569 -0.16958,0.03597 -0.10278,0.01542 -0.26208,0.01542 -0.16959,0 -0.2775,-0.01542 -0.10278,-0.01028 -0.16444,-0.03597 -0.0617,-0.02569 -0.0874,-0.06167 -0.0257,-0.04111 -0.0257,-0.0925 v -0.529299 q -0.38027,0.411106 -0.77596,0.61666 -0.39055,0.205553 -0.81194,0.205553 -0.47277,0 -0.79652,-0.154165 -0.3186,-0.154165 -0.51902,-0.421384 -0.19527,-0.26722 -0.28263,-0.61666 -0.0822,-0.35458 -0.0822,-0.87874 v -2.805802 q 0,-0.05139 0.0257,-0.08736 0.0308,-0.04111 0.10278,-0.0668 0.0771,-0.02569 0.20041,-0.03597 0.12847,-0.01542 0.31347,-0.01542 0.19014,0 0.31347,0.01542 0.12333,0.01028 0.19527,0.03597 0.0771,0.02569 0.10792,0.0668 0.0308,0.03597 0.0308,0.08736 v 2.589971 q 0,0.359718 0.0463,0.549855 0.0462,0.190136 0.13875,0.328885 0.0976,0.13361 0.24153,0.210692 0.14902,0.07194 0.3443,0.07194 0.24666,0 0.49332,-0.179859 0.25181,-0.17986 0.53444,-0.524161 v -3.047327 q 0,-0.05139 0.0257,-0.08736 0.0308,-0.04111 0.10277,-0.0668 0.0771,-0.02569 0.20042,-0.03597 0.12333,-0.01542 0.31347,-0.01542 0.19013,0 0.31347,0.01542 0.12333,0.01028 0.19527,0.03597 0.072,0.02569 0.10278,0.0668 0.0308,0.03597 0.0308,0.08736 z" />
        <path
           inkscape:connector-curvature="0"
           id="path909"
           style="font-style:normal;font-variant:normal;font-weight:bold;font-stretch:normal;font-family:Calibri;-inkscape-font-specification:Calibri;stroke-width:0.26310816px"
           d="m 108.53793,39.271103 q 0,0.05139 -0.0308,0.0925 -0.0308,0.03597 -0.10792,0.06167 -0.0719,0.02569 -0.19527,0.03597 -0.12334,0.01542 -0.31347,0.01542 -0.19014,0 -0.31347,-0.01542 -0.12333,-0.01028 -0.20042,-0.03597 -0.0719,-0.02569 -0.10277,-0.06167 -0.0308,-0.04111 -0.0308,-0.0925 V 32.51354 q 0,-0.05139 0.0308,-0.0925 0.0308,-0.04111 0.10277,-0.06681 0.0771,-0.03083 0.20042,-0.04625 0.12333,-0.01542 0.31347,-0.01542 0.19013,0 0.31347,0.01542 0.12333,0.01542 0.19527,0.04625 0.0771,0.02569 0.10792,0.06681 0.0308,0.04111 0.0308,0.0925 z" />
        <path
           inkscape:connector-curvature="0"
           id="path911"
           style="font-style:normal;font-variant:normal;font-weight:bold;font-stretch:normal;font-family:Calibri;-inkscape-font-specification:Calibri;stroke-width:0.26310816px"
           d="m 114.06731,36.845575 q 0,0.236386 -0.10791,0.34944 -0.10278,0.113055 -0.28778,0.113055 h -2.79038 q 0,0.292913 0.0668,0.534438 0.072,0.236386 0.22097,0.405968 0.15417,0.164443 0.39055,0.251803 0.24153,0.08736 0.57555,0.08736 0.33917,0 0.59611,-0.04625 0.25694,-0.05139 0.44194,-0.107915 0.19013,-0.06167 0.31347,-0.107916 0.12333,-0.05139 0.20041,-0.05139 0.0463,0 0.0771,0.02056 0.0308,0.01542 0.0514,0.06167 0.0206,0.04625 0.0257,0.13361 0.0103,0.08222 0.0103,0.210692 0,0.113054 -0.005,0.195276 -0.005,0.07708 -0.0154,0.133609 -0.0103,0.05653 -0.0308,0.09764 -0.0206,0.03597 -0.0565,0.07194 -0.0308,0.03597 -0.17986,0.09764 -0.14903,0.06167 -0.38028,0.123332 -0.23124,0.05653 -0.5293,0.09764 -0.29805,0.04625 -0.63721,0.04625 -0.61152,0 -1.07402,-0.154165 -0.45735,-0.154165 -0.76568,-0.467634 -0.30833,-0.313469 -0.4625,-0.79138 -0.14902,-0.477911 -0.14902,-1.120265 0,-0.611521 0.1593,-1.09971 0.1593,-0.493328 0.4625,-0.832491 0.30319,-0.344302 0.73485,-0.524161 0.4368,-0.179859 0.98151,-0.179859 0.57555,0 0.98152,0.169582 0.41111,0.169581 0.67319,0.472772 0.26208,0.298052 0.38541,0.709159 0.12333,0.411106 0.12333,0.894157 z m -1.25387,-0.369996 q 0.0154,-0.544716 -0.22097,-0.853046 -0.23125,-0.313469 -0.71944,-0.313469 -0.24666,0 -0.43166,0.0925 -0.17986,0.0925 -0.30319,0.251803 -0.11819,0.154165 -0.185,0.369996 -0.0617,0.210692 -0.0719,0.452217 z" />
        <path
           inkscape:connector-curvature="0"
           id="path913"
           style="font-style:normal;font-variant:normal;font-weight:bold;font-stretch:normal;font-family:Calibri;-inkscape-font-specification:Calibri;stroke-width:0.26310816px"
           d="m 117.78783,38.818886 q 0,0.226109 -0.0308,0.349441 -0.0257,0.118193 -0.0719,0.169581 -0.0463,0.04625 -0.13875,0.08736 -0.0874,0.03597 -0.21069,0.06167 -0.11819,0.03083 -0.26208,0.04625 -0.13875,0.01542 -0.28264,0.01542 -0.38541,0 -0.66804,-0.09764 -0.28264,-0.09764 -0.46764,-0.298053 -0.185,-0.205553 -0.27236,-0.513883 -0.0874,-0.30833 -0.0874,-0.729714 v -2.348446 h -0.54985 q -0.0976,0 -0.14903,-0.118193 -0.0514,-0.123332 -0.0514,-0.405968 0,-0.149026 0.0103,-0.251803 0.0154,-0.102776 0.0411,-0.159303 0.0257,-0.06167 0.0617,-0.08736 0.0411,-0.02569 0.0925,-0.02569 h 0.54471 v -1.022627 q 0,-0.05139 0.0257,-0.0925 0.0308,-0.04111 0.10277,-0.06681 0.0771,-0.03083 0.20042,-0.04111 0.12847,-0.01542 0.31347,-0.01542 0.19013,0 0.31347,0.01542 0.12847,0.01028 0.20041,0.04111 0.0719,0.02569 0.10278,0.06681 0.0308,0.04111 0.0308,0.0925 v 1.022627 h 0.99693 q 0.0514,0 0.0874,0.02569 0.0411,0.0257 0.0668,0.08736 0.0257,0.05653 0.036,0.159303 0.0154,0.102777 0.0154,0.251803 0,0.282636 -0.0514,0.405968 -0.0514,0.118193 -0.14903,0.118193 h -1.00207 v 2.15317 q 0,0.375135 0.11819,0.565272 0.1182,0.184998 0.42139,0.184998 0.10277,0 0.185,-0.01542 0.0822,-0.02056 0.14388,-0.04111 0.0668,-0.02569 0.10792,-0.04111 0.0463,-0.02056 0.0822,-0.02056 0.0308,0 0.0565,0.02056 0.0308,0.01542 0.0463,0.07194 0.0154,0.05139 0.0257,0.143887 0.0154,0.0925 0.0154,0.236386 z" />
        <path
           inkscape:connector-curvature="0"
           id="path915"
           style="font-style:normal;font-variant:normal;font-weight:bold;font-stretch:normal;font-family:Calibri;-inkscape-font-specification:Calibri;stroke-width:0.26310816px"
           d="m 120.03547,39.271103 q 0,0.05139 -0.0308,0.0925 -0.0308,0.03597 -0.10791,0.06167 -0.072,0.02569 -0.19528,0.03597 -0.12333,0.01542 -0.31347,0.01542 -0.19013,0 -0.31347,-0.01542 -0.12333,-0.01028 -0.20041,-0.03597 -0.0719,-0.02569 -0.10278,-0.06167 -0.0308,-0.04111 -0.0308,-0.0925 v -4.57356 q 0,-0.05139 0.0308,-0.08736 0.0308,-0.04111 0.10278,-0.06681 0.0771,-0.03083 0.20041,-0.04625 0.12334,-0.01542 0.31347,-0.01542 0.19014,0 0.31347,0.01542 0.12333,0.01542 0.19528,0.04625 0.0771,0.02569 0.10791,0.06681 0.0308,0.03597 0.0308,0.08736 z m 0.0976,-6.135765 q 0,0.390552 -0.1593,0.539578 -0.1593,0.149026 -0.59097,0.149026 -0.4368,0 -0.59096,-0.143887 -0.14903,-0.143888 -0.14903,-0.519022 0,-0.390552 0.15417,-0.539578 0.1593,-0.154165 0.5961,-0.154165 0.43166,0 0.58583,0.149026 0.15416,0.143888 0.15416,0.519022 z" />
        <path
           inkscape:connector-curvature="0"
           id="path917"
           style="font-style:normal;font-variant:normal;font-weight:bold;font-stretch:normal;font-family:Calibri;-inkscape-font-specification:Calibri;stroke-width:0.26310816px"
           d="m 125.70874,39.271103 q 0,0.05139 -0.0308,0.0925 -0.0308,0.03597 -0.10277,0.06167 -0.072,0.02569 -0.20042,0.03597 -0.12333,0.01542 -0.30833,0.01542 -0.19013,0 -0.31861,-0.01542 -0.12333,-0.01028 -0.19527,-0.03597 -0.0719,-0.02569 -0.10278,-0.06167 -0.0308,-0.04111 -0.0308,-0.0925 v -2.615665 q 0,-0.334024 -0.0514,-0.524161 -0.0463,-0.190137 -0.13875,-0.323746 -0.0925,-0.138749 -0.24152,-0.210692 -0.14389,-0.07708 -0.33917,-0.07708 -0.24666,0 -0.49846,0.179859 -0.25181,0.179859 -0.52416,0.524161 v 3.047327 q 0,0.05139 -0.0308,0.0925 -0.0308,0.03597 -0.10791,0.06167 -0.072,0.02569 -0.19528,0.03597 -0.12333,0.01542 -0.31347,0.01542 -0.19013,0 -0.31346,-0.01542 -0.12334,-0.01028 -0.20042,-0.03597 -0.0719,-0.02569 -0.10278,-0.06167 -0.0308,-0.04111 -0.0308,-0.0925 v -4.583837 q 0,-0.05139 0.0257,-0.08736 0.0257,-0.04111 0.0925,-0.0668 0.0668,-0.02569 0.16959,-0.03597 0.10791,-0.01542 0.26722,-0.01542 0.16444,0 0.27235,0.01542 0.10792,0.01028 0.16445,0.03597 0.0617,0.02569 0.0874,0.0668 0.0257,0.03597 0.0257,0.08736 v 0.529299 q 0.38027,-0.411106 0.77082,-0.61666 0.39569,-0.205553 0.82222,-0.205553 0.46763,0 0.78624,0.154165 0.32375,0.154165 0.51902,0.421384 0.20042,0.262081 0.28778,0.61666 0.0874,0.354579 0.0874,0.853046 z" />
        <path
           inkscape:connector-curvature="0"
           id="path919"
           style="font-style:normal;font-variant:normal;font-weight:bold;font-stretch:normal;font-family:Calibri;-inkscape-font-specification:Calibri;stroke-width:0.26310816px"
           d="m 134.96891,36.023362 q 0,0.914712 -0.24153,1.567343 -0.23638,0.647493 -0.68346,1.0586 -0.44708,0.411106 -1.08943,0.606382 -0.63722,0.190137 -1.5211,0.190137 h -1.5879 q -0.16958,0 -0.28777,-0.09764 -0.11305,-0.102777 -0.11305,-0.328885 v -5.796602 q 0,-0.226109 0.11305,-0.323747 0.11819,-0.102777 0.28777,-0.102777 h 1.7061 q 0.88901,0 1.50567,0.210693 0.6218,0.205553 1.04319,0.616659 0.42652,0.405968 0.64749,1.007211 0.22097,0.601244 0.22097,1.392624 z m -1.39776,0.04625 q 0,-0.472772 -0.11306,-0.87874 -0.10791,-0.405968 -0.35458,-0.70402 -0.24152,-0.298052 -0.62693,-0.462495 -0.38028,-0.169581 -1.00208,-0.169581 h -0.68346 v 4.522172 h 0.70402 q 0.55499,0 0.93527,-0.143888 0.38027,-0.143887 0.63207,-0.431661 0.25695,-0.292914 0.38028,-0.724576 0.12847,-0.431662 0.12847,-1.007211 z" />
        <path
           inkscape:connector-curvature="0"
           id="path921"
           style="font-style:normal;font-variant:normal;font-weight:bold;font-stretch:normal;font-family:Calibri;-inkscape-font-specification:Calibri;stroke-width:0.26310816px"
           d="m 139.91247,39.28652 q 0,0.07194 -0.0514,0.113054 -0.0514,0.04111 -0.16445,0.05653 -0.10791,0.02056 -0.32374,0.02056 -0.23125,0 -0.33916,-0.02056 -0.10278,-0.01542 -0.14903,-0.05653 -0.0411,-0.04111 -0.0411,-0.113054 v -0.364857 q -0.28264,0.303191 -0.64749,0.472772 -0.35972,0.169582 -0.80166,0.169582 -0.36486,0 -0.67319,-0.09764 -0.30319,-0.0925 -0.5293,-0.277497 -0.22097,-0.190137 -0.3443,-0.467634 -0.12333,-0.277497 -0.12333,-0.647492 0,-0.400829 0.15416,-0.693743 0.15931,-0.298052 0.46764,-0.488189 0.31347,-0.195275 0.77596,-0.287774 0.46249,-0.0925 1.07402,-0.0925 h 0.44707 v -0.277497 q 0,-0.215831 -0.0462,-0.375135 -0.0411,-0.164442 -0.14388,-0.272358 -0.0976,-0.107915 -0.26722,-0.159304 -0.16444,-0.05139 -0.41111,-0.05139 -0.32374,0 -0.58069,0.07194 -0.2518,0.07194 -0.44707,0.159303 -0.19528,0.08736 -0.32889,0.159304 -0.12847,0.07194 -0.21069,0.07194 -0.0565,0 -0.10278,-0.03597 -0.0411,-0.03597 -0.0719,-0.102777 -0.0257,-0.0668 -0.0411,-0.164442 -0.0154,-0.09764 -0.0154,-0.215831 0,-0.159304 0.0257,-0.251803 0.0257,-0.0925 0.0976,-0.164443 0.0719,-0.07708 0.25181,-0.164442 0.17985,-0.0925 0.42138,-0.169582 0.24152,-0.07708 0.52416,-0.123332 0.28777,-0.05139 0.59097,-0.05139 0.53957,0 0.91985,0.107916 0.38541,0.102776 0.63207,0.323746 0.24667,0.215831 0.35972,0.560133 0.11306,0.344301 0.11306,0.817074 z m -1.2693,-1.963034 h -0.49332 q -0.31347,0 -0.53444,0.04625 -0.22097,0.04625 -0.35972,0.138748 -0.13875,0.0925 -0.20555,0.226109 -0.0617,0.128471 -0.0617,0.298052 0,0.287775 0.17986,0.452217 0.185,0.164443 0.50874,0.164443 0.27236,0 0.49847,-0.138749 0.23125,-0.138748 0.46763,-0.405967 z" />
        <path
           inkscape:connector-curvature="0"
           id="path923"
           style="font-style:normal;font-variant:normal;font-weight:bold;font-stretch:normal;font-family:Calibri;-inkscape-font-specification:Calibri;stroke-width:0.26310816px"
           d="m 145.46754,39.276242 q 0,0.05139 -0.0308,0.0925 -0.0257,0.03597 -0.10278,0.06167 -0.0719,0.02056 -0.20041,0.03083 -0.12847,0.01542 -0.33403,0.01542 -0.21069,0 -0.3443,-0.01028 -0.12847,-0.01028 -0.21583,-0.03083 -0.0822,-0.02569 -0.12847,-0.06681 -0.0463,-0.04111 -0.0822,-0.107915 l -1.52623,-2.415251 v 2.425528 q 0,0.05139 -0.0308,0.0925 -0.0308,0.03597 -0.10791,0.06167 -0.072,0.02569 -0.19528,0.03597 -0.12333,0.01542 -0.31347,0.01542 -0.19013,0 -0.31347,-0.01542 -0.12333,-0.01028 -0.20041,-0.03597 -0.0719,-0.02569 -0.10278,-0.06167 -0.0308,-0.04111 -0.0308,-0.0925 V 32.51354 q 0,-0.05139 0.0308,-0.0925 0.0308,-0.04111 0.10278,-0.06681 0.0771,-0.03083 0.20041,-0.04625 0.12334,-0.01542 0.31347,-0.01542 0.19014,0 0.31347,0.01542 0.12333,0.01542 0.19528,0.04625 0.0771,0.02569 0.10791,0.06681 0.0308,0.04111 0.0308,0.0925 v 4.023705 l 1.35665,-1.824285 q 0.0411,-0.06167 0.0925,-0.107916 0.0514,-0.04625 0.13361,-0.07194 0.0874,-0.02569 0.21069,-0.03597 0.12847,-0.01542 0.32374,-0.01542 0.19014,0 0.31861,0.01542 0.13361,0.01028 0.21069,0.03597 0.0822,0.02569 0.11306,0.0668 0.0308,0.03597 0.0308,0.0925 0,0.07708 -0.0411,0.164443 -0.036,0.08736 -0.11305,0.184998 l -1.34124,1.521094 1.55193,2.399834 q 0.0617,0.102777 0.0874,0.17986 0.0308,0.07194 0.0308,0.133609 z" />
        <path
           inkscape:connector-curvature="0"
           id="path925"
           style="font-style:normal;font-variant:normal;font-weight:bold;font-stretch:normal;font-family:Calibri;-inkscape-font-specification:Calibri;stroke-width:0.26310816px"
           d="m 153.27857,34.676988 q 0,0.05653 -0.0154,0.138748 -0.0154,0.08222 -0.0565,0.236387 l -1.22304,4.147037 q -0.0257,0.08736 -0.0668,0.143887 -0.0411,0.05139 -0.12848,0.08222 -0.0822,0.03083 -0.24152,0.04111 -0.15417,0.01028 -0.40597,0.01028 -0.2518,0 -0.41111,-0.01542 -0.1593,-0.01028 -0.2518,-0.04111 -0.0874,-0.03083 -0.12847,-0.08222 -0.0411,-0.05653 -0.0617,-0.138748 l -0.77083,-2.785247 -0.0103,-0.04625 -0.0103,0.04625 -0.70916,2.785247 q -0.0206,0.08736 -0.0617,0.143887 -0.036,0.05139 -0.12847,0.08222 -0.0925,0.03083 -0.2518,0.04111 -0.15931,0.01028 -0.41111,0.01028 -0.25694,0 -0.41624,-0.01542 -0.15417,-0.01028 -0.24667,-0.04111 -0.0874,-0.03083 -0.12847,-0.08222 -0.0411,-0.05653 -0.0617,-0.138748 l -1.21276,-4.147037 q -0.0462,-0.149027 -0.0617,-0.231248 -0.0103,-0.08736 -0.0103,-0.143887 0,-0.05139 0.0257,-0.08736 0.0308,-0.04111 0.10278,-0.06167 0.0771,-0.02569 0.20041,-0.03597 0.12847,-0.01028 0.31861,-0.01028 0.20555,0 0.33402,0.01028 0.12847,0.01028 0.20042,0.03597 0.0719,0.02569 0.0976,0.07194 0.0308,0.04111 0.0463,0.102777 l 0.90957,3.365935 0.0103,0.06167 0.0103,-0.06167 0.85305,-3.365935 q 0.0154,-0.06167 0.0463,-0.102777 0.036,-0.04625 0.10278,-0.07194 0.0668,-0.02569 0.18499,-0.03597 0.12334,-0.01028 0.31347,-0.01028 0.19014,0 0.30833,0.01542 0.1182,0.01028 0.185,0.03597 0.0719,0.02055 0.0976,0.06167 0.0308,0.03597 0.0463,0.08736 l 0.91471,3.391629 0.0154,0.05653 0.0103,-0.06167 0.87361,-3.365935 q 0.0103,-0.06167 0.0411,-0.102777 0.0308,-0.04625 0.10277,-0.07194 0.072,-0.02569 0.19528,-0.03597 0.12333,-0.01028 0.31347,-0.01028 0.19013,0 0.30833,0.01028 0.12333,0.01028 0.19013,0.03597 0.0719,0.02055 0.0976,0.06167 0.0257,0.03597 0.0257,0.08736 z" />
        <path
           inkscape:connector-curvature="0"
           id="path927"
           style="font-style:normal;font-variant:normal;font-weight:bold;font-stretch:normal;font-family:Calibri;-inkscape-font-specification:Calibri;stroke-width:0.26310816px"
           d="m 157.91893,39.28652 q 0,0.07194 -0.0514,0.113054 -0.0514,0.04111 -0.16444,0.05653 -0.10791,0.02056 -0.32375,0.02056 -0.23124,0 -0.33916,-0.02056 -0.10278,-0.01542 -0.14902,-0.05653 -0.0411,-0.04111 -0.0411,-0.113054 v -0.364857 q -0.28263,0.303191 -0.64749,0.472772 -0.35972,0.169582 -0.80166,0.169582 -0.36485,0 -0.67318,-0.09764 -0.30319,-0.0925 -0.5293,-0.277497 -0.22097,-0.190137 -0.3443,-0.467634 -0.12334,-0.277497 -0.12334,-0.647492 0,-0.400829 0.15417,-0.693743 0.1593,-0.298052 0.46763,-0.488189 0.31347,-0.195275 0.77597,-0.287774 0.46249,-0.0925 1.07401,-0.0925 h 0.44708 v -0.277497 q 0,-0.215831 -0.0462,-0.375135 -0.0411,-0.164442 -0.14389,-0.272358 -0.0976,-0.107915 -0.26722,-0.159304 -0.16444,-0.05139 -0.4111,-0.05139 -0.32375,0 -0.58069,0.07194 -0.2518,0.07194 -0.44708,0.159303 -0.19527,0.08736 -0.32888,0.159304 -0.12847,0.07194 -0.2107,0.07194 -0.0565,0 -0.10277,-0.03597 -0.0411,-0.03597 -0.072,-0.102777 -0.0257,-0.0668 -0.0411,-0.164442 -0.0154,-0.09764 -0.0154,-0.215831 0,-0.159304 0.0257,-0.251803 0.0257,-0.0925 0.0976,-0.164443 0.0719,-0.07708 0.2518,-0.164442 0.17986,-0.0925 0.42139,-0.169582 0.24152,-0.07708 0.52416,-0.123332 0.28777,-0.05139 0.59096,-0.05139 0.53958,0 0.91985,0.107916 0.38541,0.102776 0.63208,0.323746 0.24666,0.215831 0.35972,0.560133 0.11305,0.344301 0.11305,0.817074 z m -1.26929,-1.963034 h -0.49333 q -0.31347,0 -0.53444,0.04625 -0.22097,0.04625 -0.35971,0.138748 -0.13875,0.0925 -0.20556,0.226109 -0.0617,0.128471 -0.0617,0.298052 0,0.287775 0.17986,0.452217 0.18499,0.164443 0.50874,0.164443 0.27236,0 0.49847,-0.138749 0.23124,-0.138748 0.46763,-0.405967 z" />
        <path
           inkscape:connector-curvature="0"
           id="path929"
           style="font-style:normal;font-variant:normal;font-weight:bold;font-stretch:normal;font-family:Calibri;-inkscape-font-specification:Calibri;stroke-width:0.26310816px"
           d="m 163.5922,39.271103 q 0,0.05139 -0.0308,0.0925 -0.0308,0.03597 -0.10278,0.06167 -0.0719,0.02569 -0.20041,0.03597 -0.12334,0.01542 -0.30833,0.01542 -0.19014,0 -0.31861,-0.01542 -0.12333,-0.01028 -0.19528,-0.03597 -0.0719,-0.02569 -0.10277,-0.06167 -0.0308,-0.04111 -0.0308,-0.0925 v -2.615665 q 0,-0.334024 -0.0514,-0.524161 -0.0462,-0.190137 -0.13875,-0.323746 -0.0925,-0.138749 -0.24153,-0.210692 -0.14389,-0.07708 -0.33916,-0.07708 -0.24666,0 -0.49847,0.179859 -0.2518,0.179859 -0.52416,0.524161 v 3.047327 q 0,0.05139 -0.0308,0.0925 -0.0308,0.03597 -0.10792,0.06167 -0.0719,0.02569 -0.19527,0.03597 -0.12333,0.01542 -0.31347,0.01542 -0.19014,0 -0.31347,-0.01542 -0.12333,-0.01028 -0.20041,-0.03597 -0.0719,-0.02569 -0.10278,-0.06167 -0.0308,-0.04111 -0.0308,-0.0925 V 32.51354 q 0,-0.05139 0.0308,-0.0925 0.0308,-0.04111 0.10278,-0.06681 0.0771,-0.03083 0.20041,-0.04625 0.12333,-0.01542 0.31347,-0.01542 0.19014,0 0.31347,0.01542 0.12333,0.01542 0.19527,0.04625 0.0771,0.02569 0.10792,0.06681 0.0308,0.04111 0.0308,0.0925 v 2.533444 q 0.33403,-0.328885 0.67833,-0.488189 0.34944,-0.164443 0.72457,-0.164443 0.46764,0 0.78624,0.154165 0.32375,0.154165 0.51903,0.421384 0.20041,0.26722 0.28777,0.626938 0.0874,0.354579 0.0874,0.863323 z" />
      </g>
      <path
         sodipodi:nodetypes="ccccccscccsccccscccsccssccccccccccccccsscccccccscc"
         inkscape:connector-curvature="0"
         id="path840-3"
         d="m 19.593366,258.05467 c 0,-0.63918 0.547743,-2.2413 1.21726,-3.56036 3.993056,-7.86736 8.71666,-11.23274 12.136088,-8.64642 2.51357,1.90119 10.56955,0.11909 11.40836,-2.52395 0.58596,-1.84616 -0.10792,-2.37506 -2.59409,-1.97749 -4.28211,0.68473 -5.49526,-2.20019 -3.62729,-8.62576 1.06919,-3.67791 1.92583,-4.49014 4.20713,-3.98909 5.29412,1.16277 7.21104,9.67974 3.83728,17.04901 -2.92862,6.39691 -7.51159,9.02837 -13.46085,7.72889 -6.320333,-1.38056 -6.24384,-1.38406 -8.074841,0.36736 -0.941013,0.90023 -2.226572,2.46992 -2.856796,3.48817 -1.306294,2.11057 -2.192251,2.38919 -2.192251,0.68937 z m 35.941608,-4.67933 c -3.54965,-1.29828 -4.33852,-3.11543 -4.23534,-9.75583 0.19862,-12.7805 3.09277,-29.40556 5.11902,-29.40556 0.54257,0 0.74069,0.35929 0.54923,0.99685 -1.03839,3.45669 -2.13837,15.49943 -1.96657,21.53026 0.25365,8.90485 0.87634,10.08027 5.20712,9.82944 3.80007,-0.22001 4.10656,-0.8485 4.94532,-10.14001 1.42542,-15.79029 3.91981,-19.03457 21.37404,-27.7994 3.75972,-1.888 8.4887,-4.59234 10.50883,-6.00964 3.756446,-2.6355 4.587026,-2.80916 4.587026,-0.9591 0,2.41381 -7.788956,7.95328 -21.646886,15.39514 -6.6203,3.55519 -8.73105,5.08013 -9.81376,7.09005 -0.32706,0.60689 -0.80766,4.16893 -1.06795,7.91506 -0.54351,7.82221 -1.91832,15.80314 -3.1238,18.13427 -0.45611,0.88193 -1.41731,1.98885 -2.13609,2.45983 -1.83161,1.20011 -5.99762,1.56081 -8.30019,0.71864 z m -35.338034,-9.9675 c -1.077926,-0.54768 -2.048793,-1.28105 -2.157473,-1.62944 -0.108661,-0.34852 0.931789,-1.88094 2.312154,-3.40561 l 2.509762,-2.77209 2.052924,1.10558 2.052923,1.10551 2.047413,-2.39188 2.047407,-2.39194 2.240824,1.14319 c 1.23246,0.62908 2.24082,1.41117 2.24082,1.7387 0,1.71266 -3.599913,6.21713 -4.968679,6.21713 -0.422396,0 -1.351562,-0.38216 -2.064866,-0.84977 -1.219622,-0.79911 -1.411806,-0.73122 -3.224795,1.13935 -2.218586,2.289 -2.447264,2.33354 -5.088414,0.99127 z m 17.962164,-18.7431 -2.79632,-2.53963 2.79632,-2.50592 c 1.53798,-1.37827 3.08691,-2.51743 3.4421,-2.53149 0.69511,-0.0269 4.76594,4.23581 4.76594,4.99132 0,0.44205 -2.81756,3.22322 -4.55724,4.49882 -0.67896,0.49788 -1.4289,0.10496 -3.6508,-1.9131 z"
         style="fill:#f57215;fill-opacity:1;stroke-width:0.56965476" />
      <path
         sodipodi:nodetypes="cccsccscccccccsscccccssscccccccccsscccccsscccccssccccccccccccsscccccccccsccccccssscccscssccccccccccccssssccccsssccccccccccccccccccsccccscccccc"
         style="fill:#000000;fill-opacity:1;stroke-width:0.57868737"
         d="m 42.486209,292.2963 c -8.499485,-2.41525 -10.288313,-13.27541 -2.820075,-17.12106 1.886286,-0.9713 3.993182,-1.40374 8.178014,-1.67865 3.100422,-0.20366 5.637122,-0.47843 5.637122,-0.61035 0,-0.55977 -1.381714,-2.80217 -1.967361,-3.19325 -1.245385,-0.83154 -6.441897,-0.40941 -8.946221,0.72723 -1.387435,0.62949 -2.611871,1.14464 -2.720962,1.14464 -0.109083,0 -1.002761,-1.16918 -1.985939,-2.59814 l -1.787584,-2.59816 1.90446,-1.17554 c 3.236608,-1.99769 7.741298,-3.02608 12.241185,-2.79458 5.176144,0.26657 8.279211,1.77195 10.052481,4.87746 1.216481,2.13037 1.293087,2.93598 1.302047,13.69267 l 0.0096,11.42902 h -3.761473 c -3.626442,0 -3.761465,-0.0547 -3.761465,-1.44667 0,-1.74679 -0.624708,-1.83715 -2.022465,-0.29253 -1.078128,1.19133 -4.335514,2.34861 -6.368503,2.26255 -0.636533,-0.0273 -2.068804,-0.30825 -3.182783,-0.62471 z m 9.095646,-7.42167 c 0.34851,0 1.899415,-3.52037 1.899415,-4.31145 0,-0.71464 -0.737683,-0.89673 -3.632703,-0.89673 -4.130227,0 -6.204979,1.05148 -6.204979,3.14474 0,2.3324 2.636941,3.42695 6.072396,2.5205 0.952729,-0.25153 1.792374,-0.45725 1.865871,-0.45725 z m 67.154525,7.55509 c -5.10665,-1.63333 -8.39084,-6.09556 -7.78898,-10.58287 0.6985,-5.20763 4.65814,-7.74796 12.99968,-8.34007 5.76791,-0.40941 6.39395,-0.89025 4.11999,-3.16421 -1.02682,-1.0268 -1.74391,-1.18422 -4.48482,-0.98463 -1.79443,0.13054 -4.14894,0.68074 -5.23224,1.22229 -1.0833,0.54131 -2.15543,0.98456 -2.38252,0.98456 -0.50887,0 -3.46013,-4.39587 -3.46013,-5.15372 0,-0.3021 1.49735,-1.28147 3.32746,-2.17663 2.97341,-1.45447 3.94744,-1.62822 9.15449,-1.63348 5.39032,-0.005 6.00714,0.11346 8.23016,1.5831 4.12101,2.7248 4.41643,3.79118 4.64965,16.78444 l 0.20518,11.42902 h -4.10314 c -3.99707,0 -4.10314,-0.0341 -4.10314,-1.45487 v -1.45495 l -2.1893,1.44881 c -2.41366,1.59723 -6.4892,2.27779 -8.94231,1.49321 z m 7.34215,-7.21676 c 2.08459,-0.87103 3.21078,-2.39712 3.21078,-4.35108 0,-1.0834 -0.3466,-1.19543 -3.69737,-1.19543 -4.54689,0 -6.5391,1.22578 -5.93086,3.64915 0.27072,1.07868 0.93634,1.68931 2.25731,2.0709 1.03035,0.29733 1.94685,0.56457 2.03665,0.59327 0.0897,0.0273 1.04535,-0.31646 2.12349,-0.76681 z M 4.8715371,271.88445 v -20.51314 l 3.9061395,-3.17256 3.9061394,-3.17261 0.155357,13.26933 c 0.08544,7.29815 0.345845,13.26918 0.57871,13.26903 0.232864,-2e-4 2.328572,-2.08347 4.657184,-4.62953 l 4.233838,-4.62914 h 4.880487 c 3.032511,0 4.880486,0.23103 4.880486,0.60968 0,0.33491 -2.352938,3.07939 -5.228758,6.09815 -3.239335,3.40036 -5.070736,5.75553 -4.813429,6.19002 0.228422,0.38549 2.832151,4.41226 5.786041,8.94769 l 5.370706,8.2463 -5.042106,-0.0136 -5.042104,-0.0137 -3.65981,-5.54433 -3.659803,-5.54425 -1.403708,1.31872 c -1.238065,1.1631 -1.403709,1.81896 -1.403709,5.55799 v 4.23928 H 8.9223917 4.8715786 Z m 65.3916669,8.93935 v -11.57372 h -1.736056 c -1.718531,0 -1.736069,-0.0342 -1.736069,-3.18281 0,-3.1506 0.01781,-3.1828 1.736069,-3.1828 1.50731,0 1.736472,-0.20983 1.739289,-1.59136 0.0087,-4.31603 2.779674,-8.52741 6.544669,-9.94688 3.359583,-1.26658 7.989484,-0.49759 11.036999,1.83393 1.059275,0.81034 1.0445,0.91718 -0.489031,3.53391 -1.744827,2.97728 -1.849453,3.03203 -3.46268,1.81187 -2.348302,-1.7762 -4.952912,-0.37524 -4.952912,2.66383 0,1.68555 0.01911,1.6947 3.472126,1.6947 h 3.472126 v 3.1828 3.18281 h -3.472126 -3.472126 v 11.57372 11.57372 h -4.340155 -4.340155 z m 21.990118,0 v -11.57372 h -1.736057 c -1.718531,0 -1.736068,-0.0342 -1.736068,-3.18281 0,-3.1506 0.01779,-3.1828 1.736068,-3.1828 1.52296,0 1.736057,-0.20231 1.736057,-1.64966 0,-4.03381 2.654626,-8.18806 6.202298,-9.70595 3.45589,-1.47874 8.18839,-0.79217 11.38259,1.6513 1.05938,0.81041 1.04482,0.91663 -0.48288,3.52347 -1.57048,2.67987 -1.58019,2.68534 -3.23366,1.8303 -0.91214,-0.4716 -2.04339,-0.85764 -2.51387,-0.85764 -1.38678,0 -2.67416,1.69143 -2.67416,3.51348 0,1.68555 0.0191,1.6947 3.47211,1.6947 h 3.47214 v 3.1828 3.18281 h -3.47214 -3.47211 v 11.57372 11.57372 h -4.340152 -4.340155 z m 52.660538,-8.96962 v -20.54342 h 4.34015 4.34016 v 6.92798 6.92797 l 2.69027,-1.43047 c 5.7186,-3.04057 12.49589,-1.04143 15.16564,4.4735 1.13285,2.34014 1.24077,3.50357 1.24077,13.37547 v 10.81231 h -3.99247 -3.99245 l -0.203,-9.7192 c -0.22433,-10.73898 -0.71032,-12.41175 -3.78453,-13.02635 -2.10602,-0.42104 -5.4512,1.18682 -6.38775,3.07024 -0.48043,0.96618 -0.72223,4.47398 -0.72793,10.56099 l -0.009,9.11432 h -4.34017 -4.34015 z"
         id="path928"
         inkscape:connector-curvature="0" />
    </g>
  </g>
</svg>
